<?xml version="1.0" encoding="UTF-8"?>
<!--Generator: Apple Native CoreSVG 149-->
<!DOCTYPE svg
PUBLIC "-//W3C//DTD SVG 1.1//EN"
       "http://www.w3.org/Graphics/SVG/1.1/DTD/svg11.dtd">
<svg version="1.1" xmlns="http://www.w3.org/2000/svg" xmlns:xlink="http://www.w3.org/1999/xlink" width="3300" height="2200">
 <!--glyph: "uni100128.medium", point size: 100.000000, font version: "Version 16.0d18e1", template writer version: "8"-->
 <g id="Notes">
  <rect height="2200" id="artboard" style="fill:white;opacity:1" width="3300" x="0" y="0"/>
  <line id="" style="fill:none;stroke:black;opacity:1;stroke-width:0.5;" x1="263" x2="3036" y1="292" y2="292"/>
  <text style="stroke:none;fill:black;font-family:-apple-system,&quot;SF Pro Display&quot;,&quot;SF Pro Text&quot;,Helvetica,sans-serif;font-weight:bold;" transform="matrix(1 0 0 1 263 322)">Weight/Scale Variations</text>
  <text style="stroke:none;fill:black;font-family:-apple-system,&quot;SF Pro Display&quot;,&quot;SF Pro Text&quot;,Helvetica,sans-serif;text-anchor:middle;" transform="matrix(1 0 0 1 559.711 322)">Ultralight</text>
  <text style="stroke:none;fill:black;font-family:-apple-system,&quot;SF Pro Display&quot;,&quot;SF Pro Text&quot;,Helvetica,sans-serif;text-anchor:middle;" transform="matrix(1 0 0 1 856.422 322)">Thin</text>
  <text style="stroke:none;fill:black;font-family:-apple-system,&quot;SF Pro Display&quot;,&quot;SF Pro Text&quot;,Helvetica,sans-serif;text-anchor:middle;" transform="matrix(1 0 0 1 1153.13 322)">Light</text>
  <text style="stroke:none;fill:black;font-family:-apple-system,&quot;SF Pro Display&quot;,&quot;SF Pro Text&quot;,Helvetica,sans-serif;text-anchor:middle;" transform="matrix(1 0 0 1 1449.84 322)">Regular</text>
  <text style="stroke:none;fill:black;font-family:-apple-system,&quot;SF Pro Display&quot;,&quot;SF Pro Text&quot;,Helvetica,sans-serif;text-anchor:middle;" transform="matrix(1 0 0 1 1746.56 322)">Medium</text>
  <text style="stroke:none;fill:black;font-family:-apple-system,&quot;SF Pro Display&quot;,&quot;SF Pro Text&quot;,Helvetica,sans-serif;text-anchor:middle;" transform="matrix(1 0 0 1 2043.27 322)">Semibold</text>
  <text style="stroke:none;fill:black;font-family:-apple-system,&quot;SF Pro Display&quot;,&quot;SF Pro Text&quot;,Helvetica,sans-serif;text-anchor:middle;" transform="matrix(1 0 0 1 2339.98 322)">Bold</text>
  <text style="stroke:none;fill:black;font-family:-apple-system,&quot;SF Pro Display&quot;,&quot;SF Pro Text&quot;,Helvetica,sans-serif;text-anchor:middle;" transform="matrix(1 0 0 1 2636.69 322)">Heavy</text>
  <text style="stroke:none;fill:black;font-family:-apple-system,&quot;SF Pro Display&quot;,&quot;SF Pro Text&quot;,Helvetica,sans-serif;text-anchor:middle;" transform="matrix(1 0 0 1 2933.4 322)">Black</text>
  <line id="" style="fill:none;stroke:black;opacity:1;stroke-width:0.5;" x1="263" x2="3036" y1="1903" y2="1903"/>
  <g id="" transform="matrix(1 0 0 1 263 1933)">
   <path d="M9.24805 0.830078C13.5547 0.830078 17.1387-2.74414 17.1387-7.05078C17.1387-11.3574 13.5449-14.9316 9.23828-14.9316C4.94141-14.9316 1.36719-11.3574 1.36719-7.05078C1.36719-2.74414 4.95117 0.830078 9.24805 0.830078ZM9.24805-0.654297C5.70312-0.654297 2.87109-3.49609 2.87109-7.05078C2.87109-10.6055 5.69336-13.4473 9.23828-13.4473C12.793-13.4473 15.6348-10.6055 15.6445-7.05078C15.6543-3.49609 12.8027-0.654297 9.24805-0.654297ZM6.39648-6.31836L8.50586-6.31836L8.50586-4.19922C8.50586-3.75977 8.79883-3.45703 9.22852-3.45703C9.67773-3.45703 9.9707-3.75977 9.9707-4.19922L9.9707-6.31836L12.0996-6.31836C12.5391-6.31836 12.8418-6.61133 12.8418-7.04102C12.8418-7.48047 12.5391-7.7832 12.0996-7.7832L9.9707-7.7832L9.9707-9.89258C9.9707-10.3418 9.67773-10.6445 9.22852-10.6445C8.79883-10.6445 8.50586-10.3418 8.50586-9.89258L8.50586-7.7832L6.39648-7.7832C5.94727-7.7832 5.64453-7.48047 5.64453-7.04102C5.64453-6.61133 5.94727-6.31836 6.39648-6.31836Z"/>
  </g>
  <g id="" transform="matrix(1 0 0 1 281.506 1933)">
   <path d="M11.709 2.91016C17.1582 2.91016 21.6699-1.61133 21.6699-7.05078C21.6699-12.5 17.1484-17.0117 11.6992-17.0117C6.25977-17.0117 1.74805-12.5 1.74805-7.05078C1.74805-1.61133 6.26953 2.91016 11.709 2.91016ZM11.709 1.25C7.09961 1.25 3.41797-2.44141 3.41797-7.05078C3.41797-11.6602 7.08984-15.3516 11.6992-15.3516C16.3086-15.3516 20-11.6602 20.0098-7.05078C20.0195-2.44141 16.3184 1.25 11.709 1.25ZM7.98828-6.23047L10.8789-6.23047L10.8789-3.32031C10.8789-2.83203 11.2109-2.5 11.6895-2.5C12.1777-2.5 12.5195-2.83203 12.5195-3.32031L12.5195-6.23047L15.4297-6.23047C15.918-6.23047 16.25-6.5625 16.25-7.04102C16.25-7.5293 15.918-7.87109 15.4297-7.87109L12.5195-7.87109L12.5195-10.7617C12.5195-11.2695 12.1777-11.6016 11.6895-11.6016C11.2109-11.6016 10.8789-11.2598 10.8789-10.7617L10.8789-7.87109L7.98828-7.87109C7.48047-7.87109 7.14844-7.5293 7.14844-7.04102C7.14844-6.5625 7.49023-6.23047 7.98828-6.23047Z"/>
  </g>
  <g id="" transform="matrix(1 0 0 1 304.924 1933)">
   <path d="M14.9707 5.66406C21.9336 5.66406 27.6953-0.0976562 27.6953-7.05078C27.6953-14.0137 21.9238-19.7754 14.9609-19.7754C8.00781-19.7754 2.25586-14.0137 2.25586-7.05078C2.25586-0.0976562 8.01758 5.66406 14.9707 5.66406ZM14.9707 3.84766C8.93555 3.84766 4.08203-1.01562 4.08203-7.05078C4.08203-13.0957 8.92578-17.9492 14.9609-17.9492C21.0059-17.9492 25.8594-13.0957 25.8691-7.05078C25.8789-1.01562 21.0156 3.84766 14.9707 3.84766ZM10.0586-6.14258L14.0625-6.14258L14.0625-2.12891C14.0625-1.5918 14.4336-1.2207 14.9512-1.2207C15.4883-1.2207 15.8594-1.5918 15.8594-2.12891L15.8594-6.14258L19.8828-6.14258C20.4102-6.14258 20.791-6.51367 20.791-7.03125C20.791-7.56836 20.4199-7.94922 19.8828-7.94922L15.8594-7.94922L15.8594-11.9531C15.8594-12.5098 15.4883-12.8809 14.9512-12.8809C14.4336-12.8809 14.0625-12.5 14.0625-11.9531L14.0625-7.94922L10.0586-7.94922C9.50195-7.94922 9.13086-7.56836 9.13086-7.03125C9.13086-6.51367 9.51172-6.14258 10.0586-6.14258Z"/>
  </g>
  <text style="stroke:none;fill:black;font-family:-apple-system,&quot;SF Pro Display&quot;,&quot;SF Pro Text&quot;,Helvetica,sans-serif;font-weight:bold;" transform="matrix(1 0 0 1 263 1953)">Design Variations</text>
  <text style="stroke:none;fill:black;font-family:-apple-system,&quot;SF Pro Display&quot;,&quot;SF Pro Text&quot;,Helvetica,sans-serif;" transform="matrix(1 0 0 1 263 1971)">Symbols are supported in up to nine weights and three scales.</text>
  <text style="stroke:none;fill:black;font-family:-apple-system,&quot;SF Pro Display&quot;,&quot;SF Pro Text&quot;,Helvetica,sans-serif;" transform="matrix(1 0 0 1 263 1989)">For optimal layout with text and other symbols, vertically align</text>
  <text style="stroke:none;fill:black;font-family:-apple-system,&quot;SF Pro Display&quot;,&quot;SF Pro Text&quot;,Helvetica,sans-serif;" transform="matrix(1 0 0 1 263 2007)">symbols with the adjacent text.</text>
  <line id="" style="fill:none;stroke:#00AEEF;stroke-width:0.5;opacity:1.0;" x1="776" x2="776" y1="1919" y2="1933"/>
  <g id="" transform="matrix(1 0 0 1 776 1933)">
   <path d="M3.31055 0.126953C3.82812 0.126953 4.08203-0.0683594 4.26758-0.605469L5.52734-4.0625L11.2891-4.0625L12.5488-0.605469C12.7344-0.0683594 12.9883 0.126953 13.4961 0.126953C14.0137 0.126953 14.3457-0.185547 14.3457-0.673828C14.3457-0.839844 14.3164-0.986328 14.2383-1.20117L9.6582-13.3887C9.43359-13.9941 9.0332-14.2871 8.4082-14.2871C7.80273-14.2871 7.39258-13.9941 7.17773-13.3984L2.59766-1.19141C2.51953-0.976562 2.49023-0.830078 2.49023-0.664062C2.49023-0.175781 2.80273 0.126953 3.31055 0.126953ZM6.00586-5.53711L8.37891-12.1094L8.42773-12.1094L10.8008-5.53711Z"/>
  </g>
  <line id="" style="fill:none;stroke:#00AEEF;stroke-width:0.5;opacity:1.0;" x1="792.836" x2="792.836" y1="1919" y2="1933"/>
  <text style="stroke:none;fill:black;font-family:-apple-system,&quot;SF Pro Display&quot;,&quot;SF Pro Text&quot;,Helvetica,sans-serif;font-weight:bold;" transform="matrix(1 0 0 1 776 1953)">Margins</text>
  <text style="stroke:none;fill:black;font-family:-apple-system,&quot;SF Pro Display&quot;,&quot;SF Pro Text&quot;,Helvetica,sans-serif;" transform="matrix(1 0 0 1 776 1971)">Leading and trailing margins on the left and right side of each symbol</text>
  <text style="stroke:none;fill:black;font-family:-apple-system,&quot;SF Pro Display&quot;,&quot;SF Pro Text&quot;,Helvetica,sans-serif;" transform="matrix(1 0 0 1 776 1989)">can be adjusted by modifying the x-location of the margin guidelines.</text>
  <text style="stroke:none;fill:black;font-family:-apple-system,&quot;SF Pro Display&quot;,&quot;SF Pro Text&quot;,Helvetica,sans-serif;" transform="matrix(1 0 0 1 776 2007)">Modifications are automatically applied proportionally to all</text>
  <text style="stroke:none;fill:black;font-family:-apple-system,&quot;SF Pro Display&quot;,&quot;SF Pro Text&quot;,Helvetica,sans-serif;" transform="matrix(1 0 0 1 776 2025)">scales and weights.</text>
  <g id="" transform="matrix(1 0 0 1 1289 1933)">
   <path d="M2.8418 1.86523L4.54102 3.57422C5.40039 4.44336 6.38672 4.38477 7.31445 3.35938L17.4902-7.85156C17.7539-7.76367 18.0273-7.7832 18.3398-7.8418L19.4043-8.03711L20.0684-7.36328L20.0293-6.80664C19.9902-6.30859 20.1172-5.92773 20.6055-5.44922L21.3672-4.70703C21.8457-4.22852 22.4609-4.19922 22.9297-4.66797L25.8398-7.58789C26.3086-8.05664 26.2891-8.65234 25.8105-9.13086L25.0391-9.89258C24.5605-10.3711 24.1895-10.5273 23.7109-10.4883L23.1348-10.4395L22.4902-11.0742L22.7344-12.1973C22.8613-12.7637 22.7051-13.2031 22.1191-13.7891L19.9219-15.9766C16.582-19.2969 12.1484-19.2188 9.25781-16.3281C8.83789-15.918 8.80859-15.3418 9.04297-14.9512C9.27734-14.5898 9.73633-14.3555 10.3809-14.5215C11.8457-14.8633 13.3691-14.9219 14.7949-13.9844L14.209-12.5293C14.0137-12.0508 13.9844-11.6504 14.1113-11.2891L3.04688-0.898438C2.06055 0.0195312 1.98242 0.996094 2.8418 1.86523ZM10.752-15.957C13.1836-17.7344 16.4746-17.4316 18.7012-15.2051L21.1328-12.793C21.3672-12.5586 21.4062-12.373 21.3379-12.0312L21.0156-10.5469L22.5195-9.0625L23.5059-9.12109C23.7598-9.13086 23.8379-9.11133 24.0332-8.91602L24.6094-8.33984L22.168-5.89844L21.5918-6.47461C21.3965-6.66992 21.3672-6.74805 21.377-7.01172L21.4453-7.98828L19.9512-9.47266L18.4277-9.21875C18.1055-9.15039 17.959-9.17969 17.7148-9.41406L15.7129-11.416C15.459-11.6504 15.4297-11.8164 15.5859-12.1875L16.4648-14.2773C14.9023-15.7324 12.8711-16.3574 10.8398-15.7617C10.6836-15.7227 10.625-15.8496 10.752-15.957ZM5.27344 2.30469L4.10156 1.14258C3.63281 0.683594 3.74023 0.341797 4.14062-0.0195312L14.9512-10.1953L16.416-8.71094L6.42578 2.27539C6.07422 2.67578 5.74219 2.77344 5.27344 2.30469Z"/>
  </g>
  <text style="stroke:none;fill:black;font-family:-apple-system,&quot;SF Pro Display&quot;,&quot;SF Pro Text&quot;,Helvetica,sans-serif;font-weight:bold;" transform="matrix(1 0 0 1 1289 1953)">Exporting</text>
  <text style="stroke:none;fill:black;font-family:-apple-system,&quot;SF Pro Display&quot;,&quot;SF Pro Text&quot;,Helvetica,sans-serif;" transform="matrix(1 0 0 1 1289 1971)">Symbols should be outlined when exporting to ensure the</text>
  <text style="stroke:none;fill:black;font-family:-apple-system,&quot;SF Pro Display&quot;,&quot;SF Pro Text&quot;,Helvetica,sans-serif;" transform="matrix(1 0 0 1 1289 1989)">design is preserved when submitting to Xcode.</text>
  <text id="template-version" style="stroke:none;fill:black;font-family:-apple-system,&quot;SF Pro Display&quot;,&quot;SF Pro Text&quot;,Helvetica,sans-serif;text-anchor:end;" transform="matrix(1 0 0 1 3036 1933)">Template v.2.0</text>
  <text style="stroke:none;fill:black;font-family:-apple-system,&quot;SF Pro Display&quot;,&quot;SF Pro Text&quot;,Helvetica,sans-serif;text-anchor:end;" transform="matrix(1 0 0 1 3036 1951)">Requires Xcode 12 or greater</text>
  <text style="stroke:none;fill:black;font-family:-apple-system,&quot;SF Pro Display&quot;,&quot;SF Pro Text&quot;,Helvetica,sans-serif;text-anchor:end;" transform="matrix(1 0 0 1 3036 1969)">Generated from arrow.up</text>
  <text style="stroke:none;fill:black;font-family:-apple-system,&quot;SF Pro Display&quot;,&quot;SF Pro Text&quot;,Helvetica,sans-serif;text-anchor:end;" transform="matrix(1 0 0 1 3036 1987)">Typeset at 100 points</text>
  <text style="stroke:none;fill:black;font-family:-apple-system,&quot;SF Pro Display&quot;,&quot;SF Pro Text&quot;,Helvetica,sans-serif;" transform="matrix(1 0 0 1 263 726)">Small</text>
  <text style="stroke:none;fill:black;font-family:-apple-system,&quot;SF Pro Display&quot;,&quot;SF Pro Text&quot;,Helvetica,sans-serif;" transform="matrix(1 0 0 1 263 1156)">Medium</text>
  <text style="stroke:none;fill:black;font-family:-apple-system,&quot;SF Pro Display&quot;,&quot;SF Pro Text&quot;,Helvetica,sans-serif;" transform="matrix(1 0 0 1 263 1586)">Large</text>
 </g>
 <g id="Guides">
  <g id="H-reference" style="fill:#27AAE1;stroke:none;" transform="matrix(1 0 0 1 339 696)">
   <path d="M0.976562 0L3.66211 0L12.9883-24.4629L45.752-24.4629L55.127 0L57.7637 0L30.6152-70.459L28.125-70.459ZM29.3457-67.1387L29.4434-67.1387L44.873-26.709L13.8672-26.709Z"/>
  </g>
  <line id="Baseline-S" style="fill:none;stroke:#27AAE1;opacity:1;stroke-width:0.5;" x1="263" x2="3036" y1="696" y2="696"/>
  <line id="Capline-S" style="fill:none;stroke:#27AAE1;opacity:1;stroke-width:0.5;" x1="263" x2="3036" y1="625.541" y2="625.541"/>
  <g id="H-reference" style="fill:#27AAE1;stroke:none;" transform="matrix(1 0 0 1 339 1126)">
   <path d="M0.976562 0L3.66211 0L12.9883-24.4629L45.752-24.4629L55.127 0L57.7637 0L30.6152-70.459L28.125-70.459ZM29.3457-67.1387L29.4434-67.1387L44.873-26.709L13.8672-26.709Z"/>
  </g>
  <line id="Baseline-M" style="fill:none;stroke:#27AAE1;opacity:1;stroke-width:0.5;" x1="263" x2="3036" y1="1126" y2="1126"/>
  <line id="Capline-M" style="fill:none;stroke:#27AAE1;opacity:1;stroke-width:0.5;" x1="263" x2="3036" y1="1055.54" y2="1055.54"/>
  <g id="H-reference" style="fill:#27AAE1;stroke:none;" transform="matrix(1 0 0 1 339 1556)">
   <path d="M0.976562 0L3.66211 0L12.9883-24.4629L45.752-24.4629L55.127 0L57.7637 0L30.6152-70.459L28.125-70.459ZM29.3457-67.1387L29.4434-67.1387L44.873-26.709L13.8672-26.709Z"/>
  </g>
  <line id="Baseline-L" style="fill:none;stroke:#27AAE1;opacity:1;stroke-width:0.5;" x1="263" x2="3036" y1="1556" y2="1556"/>
  <line id="Capline-L" style="fill:none;stroke:#27AAE1;opacity:1;stroke-width:0.5;" x1="263" x2="3036" y1="1485.54" y2="1485.54"/>
  <line id="left-margin" style="fill:none;stroke:#00AEEF;stroke-width:0.5;opacity:1.0;" x1="1400.38" x2="1400.38" y1="1030.79" y2="1150.12"/>
  <line id="right-margin" style="fill:none;stroke:#00AEEF;stroke-width:0.5;opacity:1.0;" x1="1499.31" x2="1499.31" y1="1030.79" y2="1150.12"/>
 </g>
 <g id="Symbols">
  <g id="Black-L" transform="matrix(1 0 0 1 2864.99 1556)">
   <path d="M68.4082 25.6348C75.2441 25.6348 79.834 20.8984 79.834 13.6719L79.834-47.8027L79.1992-61.377L88.5254-50.1953L101.807-36.8652C103.906-34.7168 106.494-33.1543 110.01-33.1543C116.113-33.1543 120.752-37.6465 120.752-44.1406C120.752-47.1191 119.531-49.9512 117.236-52.2949L76.8066-92.7734C74.7559-94.8242 71.4844-96.0938 68.4082-96.0938C65.332-96.0938 62.0117-94.8242 60.0098-92.7734L19.6289-52.2949C17.2852-49.9512 16.0645-47.1191 16.0645-44.1406C16.0645-37.6465 20.7031-33.1543 26.8555-33.1543C30.3711-33.1543 32.959-34.7168 35.0098-36.8652L48.2422-50.1953L57.5684-61.377L56.9824-47.8027L56.9824 13.6719C56.9824 20.8984 61.5234 25.6348 68.4082 25.6348Z"/>
  </g>
  <g id="Heavy-L" transform="matrix(1 0 0 1 2569.48 1556)">
   <path d="M67.1875 25.2441C73.0957 25.2441 77.0508 21.1426 77.0508 14.9902L77.0508-52.2461L76.4648-65.918L87.7441-52.7344L102.002-38.5254C103.809-36.6699 106.055-35.3516 109.033-35.3516C114.355-35.3516 118.359-39.2578 118.359-44.8242C118.359-47.4121 117.334-49.8535 115.332-51.9043L74.4629-92.8223C72.6562-94.6289 69.873-95.7031 67.1875-95.7031C64.5508-95.7031 61.7188-94.6289 59.9609-92.8223L19.1406-51.9043C17.0898-49.8535 16.0645-47.4121 16.0645-44.8242C16.0645-39.2578 20.0684-35.3516 25.3906-35.3516C28.3691-35.3516 30.6641-36.6699 32.4219-38.5254L46.6309-52.7344L57.9102-65.918L57.3242-52.2461L57.3242 14.9902C57.3242 21.1426 61.2793 25.2441 67.1875 25.2441Z"/>
  </g>
  <g id="Bold-L" transform="matrix(1 0 0 1 2274.11 1556)">
   <path d="M65.8691 24.8047C70.6543 24.8047 73.9258 21.4355 73.9258 16.4551L73.9258-57.1777L73.3887-70.8984L86.9141-55.5664L102.197-40.332C103.662-38.8184 105.615-37.8418 108.008-37.8418C112.354-37.8418 115.674-41.0645 115.674-45.6543C115.674-47.7539 114.844-49.7559 113.184-51.4648L71.8262-92.8223C70.3125-94.3848 68.0664-95.2637 65.8691-95.2637C63.6719-95.2637 61.4258-94.3848 59.9121-92.8223L18.5547-51.4648C16.8945-49.7559 16.0645-47.7539 16.0645-45.6543C16.0645-41.0645 19.3848-37.8418 23.7305-37.8418C26.123-37.8418 28.0762-38.8184 29.541-40.332L44.8242-55.5664L58.3008-70.8984L57.7637-57.1777L57.7637 16.4551C57.7637 21.4355 61.0352 24.8047 65.8691 24.8047Z"/>
  </g>
  <g id="Semibold-L" transform="matrix(1 0 0 1 1978.33 1556)">
   <path d="M64.9414 24.5117C68.9941 24.5117 71.8262 21.6797 71.8262 17.4805L71.8262-60.5957L71.2891-74.2676L86.3281-57.4707L102.344-41.6016C103.613-40.332 105.273-39.502 107.275-39.502C111.035-39.502 113.818-42.334 113.818-46.1914C113.818-47.998 113.135-49.6582 111.719-51.123L70.0195-92.8223C68.7012-94.1895 66.7969-94.9707 64.9414-94.9707C63.0371-94.9707 61.1816-94.1895 59.8633-92.8223L18.2129-51.123C16.748-49.6582 16.0645-47.998 16.0645-46.1914C16.0645-42.334 18.8965-39.502 22.6074-39.502C24.6094-39.502 26.3184-40.332 27.5391-41.6016L43.5547-57.4707L58.5938-74.2676L58.0566-60.5957L58.0566 17.4805C58.0566 21.6797 60.8887 24.5117 64.9414 24.5117Z"/>
  </g>
  <g id="Medium-L" transform="matrix(1 0 0 1 1682.3 1556)">
   <path d="M64.2578 24.2676C67.7246 24.2676 70.166 21.8262 70.166 18.2617L70.166-63.1836L69.7266-76.7578L85.8887-58.9844L102.49-42.5293C103.516-41.4551 105.029-40.8203 106.738-40.8203C109.961-40.8203 112.451-43.2617 112.451-46.582C112.451-48.1934 111.816-49.6094 110.596-50.9277L68.6523-92.8223C67.4805-94.043 65.8691-94.7266 64.2578-94.7266C62.5977-94.7266 61.0352-94.043 59.8145-92.8223L17.9199-50.9277C16.6504-49.6094 16.0645-48.1934 16.0645-46.582C16.0645-43.2617 18.5059-40.8203 21.7773-40.8203C23.4375-40.8203 24.9512-41.4551 26.0254-42.5293L42.627-58.9844L58.7891-76.8066L58.3008-63.1836L58.3008 18.2617C58.3008 21.8262 60.7422 24.2676 64.2578 24.2676Z"/>
  </g>
  <g id="Regular-L" transform="matrix(1 0 0 1 1386.51 1556)">
   <path d="M63.3301 23.9746C66.1133 23.9746 68.0664 22.0215 68.0664 19.2871L68.0664-66.6016L67.627-80.0293L85.3027-60.8887L102.637-43.75C103.467-42.9199 104.736-42.4805 106.006-42.4805C108.643-42.4805 110.596-44.4824 110.596-47.168C110.596-48.4375 110.156-49.5117 109.131-50.5859L66.8945-92.8223C65.8691-93.8965 64.6484-94.4336 63.3301-94.4336C62.0117-94.4336 60.791-93.8965 59.7656-92.8223L17.5293-50.5859C16.5039-49.5117 16.0645-48.4375 16.0645-47.168C16.0645-44.4824 18.0176-42.4805 20.6543-42.4805C21.9238-42.4805 23.1934-42.9199 24.0234-43.75L41.3574-60.8887L59.0332-80.0781L58.5938-66.6016L58.5938 19.2871C58.5938 22.0215 60.5469 23.9746 63.3301 23.9746Z"/>
  </g>
  <g id="Light-L" transform="matrix(1 0 0 1 1090.49 1556)">
   <path d="M62.6465 23.5352C64.6973 23.5352 66.1621 22.0215 66.1621 20.0195L66.1621-69.7754L65.8691-83.2031L81.8359-66.2109L103.223-44.9707C103.809-44.3359 104.785-43.9941 105.762-43.9941C107.715-43.9941 109.229-45.5078 109.229-47.5098C109.229-48.4863 108.887-49.3164 108.105-50.0977L65.2832-92.8223C64.5508-93.6035 63.6719-93.9941 62.6465-93.9941C61.6211-93.9941 60.7422-93.6035 60.0098-92.8223L17.1875-50.0977C16.4062-49.3164 16.0645-48.4863 16.0645-47.5098C16.0645-45.5078 17.5781-43.9941 19.5312-43.9941C20.5078-43.9941 21.4844-44.3359 22.0703-44.9707L43.457-66.2109L59.4238-83.252L59.1309-69.7754L59.1309 20.0195C59.1309 22.0215 60.5957 23.5352 62.6465 23.5352Z"/>
  </g>
  <g id="Thin-L" transform="matrix(1 0 0 1 794.679 1556)">
   <path d="M61.7188 22.9492C62.8906 22.9492 63.6719 22.0703 63.6719 20.9961L63.6719-73.9746L63.4766-87.3535L77.2461-73.2422L104.004-46.5332C104.297-46.1914 104.883-45.9961 105.469-45.9961C106.543-45.9961 107.422-46.8262 107.422-47.998C107.422-48.584 107.227-49.0234 106.787-49.4141L63.1836-92.7734C62.793-93.2129 62.3535-93.4082 61.7188-93.4082C61.1328-93.4082 60.6934-93.2129 60.3027-92.7734L16.6992-49.4141C16.2598-49.0234 16.0645-48.584 16.0645-47.998C16.0645-46.8262 16.9434-45.9961 18.0176-45.9961C18.6035-45.9961 19.1895-46.1914 19.4824-46.5332L46.1914-73.2422L60.0098-87.3535L59.8145-73.9746L59.8145 20.9961C59.8145 22.0703 60.5957 22.9492 61.7188 22.9492Z"/>
  </g>
  <g id="Ultralight-L" transform="matrix(1 0 0 1 498.432 1556)">
   <path d="M61.2793 22.6562C61.9141 22.6562 62.4023 22.0703 62.4023 21.4844L62.4023-76.123L62.3047-89.4043L74.9512-76.8066L104.395-47.3145C104.59-47.168 104.932-47.0215 105.322-47.0215C105.908-47.0215 106.494-47.5098 106.494-48.2422C106.494-48.6328 106.348-48.877 106.152-49.1211L62.1094-92.7734C61.8652-93.0176 61.6699-93.1152 61.2793-93.1152C60.8887-93.1152 60.6934-93.0176 60.4492-92.7734L16.4062-49.1211C16.2109-48.877 16.0645-48.6328 16.0645-48.2422C16.0645-47.5098 16.6504-47.0215 17.2363-47.0215C17.627-47.0215 17.9688-47.168 18.1641-47.3145L47.6074-76.8066L60.2539-89.4043L60.1562-76.123L60.1562 21.4844C60.1562 22.0703 60.6445 22.6562 61.2793 22.6562Z"/>
  </g>
  <g id="Black-M" transform="matrix(1 0 0 1 2879.13 1126)">
   <path d="M54.248 12.2559C60.498 12.2559 64.5996 7.91016 64.5996 1.26953L64.5996-40.7227L64.1113-50.9277L67.7734-46.2402L78.9551-34.9609C80.8594-33.0078 83.1055-31.4453 86.377-31.4453C91.8945-31.4453 96.0938-35.4492 96.0938-41.3574C96.0938-44.0918 94.9707-46.6797 92.8711-48.7305L61.8164-79.834C60.0586-81.5918 57.0312-82.7148 54.248-82.7148C51.4648-82.7148 48.4375-81.5918 46.6797-79.834L15.6738-48.7305C13.5742-46.6797 12.4512-44.0918 12.4512-41.3574C12.4512-35.4492 16.6992-31.4453 22.168-31.4453C25.4395-31.4453 27.7344-33.0078 29.5898-34.9609L40.7227-46.2402L44.3848-50.9277L43.8965-40.7227L43.8965 1.26953C43.8965 7.91016 47.998 12.2559 54.248 12.2559Z"/>
  </g>
  <g id="Heavy-M" transform="matrix(1 0 0 1 2583.54 1126)">
   <path d="M53.125 11.9141C58.4961 11.9141 62.0605 8.20312 62.0605 2.53906L62.0605-44.7266L61.5723-55.2246L67.8711-47.6074L79.0039-36.4258C80.6641-34.7168 82.666-33.4961 85.4492-33.4961C90.1855-33.4961 93.8477-36.9629 93.8477-42.041C93.8477-44.3848 92.8711-46.6309 91.0645-48.4375L59.668-79.834C58.1055-81.3965 55.5176-82.373 53.125-82.373C50.7324-82.373 48.1445-81.3965 46.582-79.834L15.2344-48.4375C13.4277-46.6309 12.4512-44.3848 12.4512-42.041C12.4512-36.9629 16.1133-33.4961 20.8496-33.4961C23.6328-33.4961 25.6348-34.7168 27.2949-36.4258L38.3789-47.6074L44.6777-55.2246L44.1895-44.7266L44.1895 2.53906C44.1895 8.20312 47.7539 11.9141 53.125 11.9141Z"/>
  </g>
  <g id="Bold-M" transform="matrix(1 0 0 1 2288.1 1126)">
   <path d="M51.8555 11.5723C56.25 11.5723 59.2285 8.49609 59.2285 3.95508L59.2285-49.2188L58.7402-59.8145L67.9199-49.1699L79.0527-38.0371C80.4199-36.7188 82.1289-35.7422 84.3262-35.7422C88.2812-35.7422 91.3086-38.623 91.3086-42.8223C91.3086-44.7266 90.5273-46.5332 89.0137-48.0957L57.2754-79.834C55.9082-81.2012 53.8574-82.0312 51.8555-82.0312C49.8535-82.0312 47.8027-81.2012 46.4355-79.834L14.7461-48.0957C13.2324-46.5332 12.4512-44.7266 12.4512-42.8223C12.4512-38.623 15.4785-35.7422 19.4336-35.7422C21.6309-35.7422 23.3398-36.7188 24.6582-38.0371L35.791-49.1699L44.9707-59.8145L44.5312-49.2188L44.5312 3.95508C44.5312 8.49609 47.4609 11.5723 51.8555 11.5723Z"/>
  </g>
  <g id="Semibold-M" transform="matrix(1 0 0 1 1992.27 1126)">
   <path d="M50.9766 11.3281C54.6875 11.3281 57.2266 8.74023 57.2266 4.88281L57.2266-52.2949L56.8359-62.8906L67.9688-50.2441L79.1016-39.209C80.2246-38.0371 81.7383-37.2559 83.5938-37.2559C87.0117-37.2559 89.5508-39.7949 89.5508-43.3594C89.5508-44.9707 88.916-46.5332 87.5977-47.8516L55.6152-79.834C54.4434-81.1035 52.6855-81.7871 50.9766-81.7871C49.2676-81.7871 47.5586-81.1035 46.3379-79.834L14.4043-47.8516C13.0859-46.5332 12.4512-44.9707 12.4512-43.3594C12.4512-39.7949 14.9902-37.2559 18.4082-37.2559C20.2637-37.2559 21.7285-38.0371 22.9004-39.209L33.9844-50.2441L45.166-62.8906L44.7266-52.2949L44.7266 4.88281C44.7266 8.74023 47.2656 11.3281 50.9766 11.3281Z"/>
  </g>
  <g id="Medium-M" transform="matrix(1 0 0 1 1696.21 1126)">
   <path d="M50.3418 11.1328C53.5156 11.1328 55.7617 8.88672 55.7617 5.66406L55.7617-54.6387L55.3711-65.1855L68.0176-51.0742L79.1504-40.0391C80.127-39.0625 81.4941-38.4277 83.0078-38.4277C85.9863-38.4277 88.2324-40.6738 88.2324-43.75C88.2324-45.166 87.6953-46.4844 86.5234-47.6562L54.3457-79.8828C53.2715-81.0059 51.8066-81.5918 50.3418-81.5918C48.8281-81.5918 47.3633-81.0059 46.2891-79.8828L14.1602-47.6562C12.9883-46.4844 12.4512-45.166 12.4512-43.75C12.4512-40.6738 14.6484-38.4277 17.627-38.4277C19.1895-38.4277 20.5566-39.0625 21.5332-40.0391L32.6172-51.0742L45.3125-65.2344L44.873-54.6387L44.873 5.66406C44.873 8.88672 47.1191 11.1328 50.3418 11.1328Z"/>
  </g>
  <g id="Regular-M" transform="matrix(1 0 0 1 1400.38 1126)">
   <path d="M49.4629 10.8887C52.002 10.8887 53.8086 9.13086 53.8086 6.5918L53.8086-57.7148L53.4668-68.1152L68.0664-52.0996L79.1992-41.1621C79.9805-40.3809 81.1035-39.9902 82.2754-39.9902C84.7168-39.9902 86.4746-41.8457 86.4746-44.2383C86.4746-45.4102 86.084-46.4355 85.1562-47.4121L52.7344-79.8828C51.8066-80.8594 50.6836-81.3477 49.4629-81.3477C48.2422-81.3477 47.1191-80.8594 46.1914-79.8828L13.8184-47.4121C12.8906-46.4355 12.4512-45.4102 12.4512-44.2383C12.4512-41.8457 14.209-39.9902 16.6504-39.9902C17.8223-39.9902 18.9941-40.3809 19.7266-41.1621L30.8594-52.0996L45.5078-68.1641L45.1172-57.7148L45.1172 6.5918C45.1172 9.13086 46.9238 10.8887 49.4629 10.8887Z"/>
  </g>
  <g id="Light-M" transform="matrix(1 0 0 1 1104.28 1126)">
   <path d="M48.877 10.498C50.7812 10.498 52.1484 9.13086 52.1484 7.27539L52.1484-60.5469L51.8555-70.9961L64.9902-56.8848L79.7363-42.2363C80.3223-41.6504 81.2012-41.3574 82.0801-41.3574C83.8867-41.3574 85.2539-42.7246 85.2539-44.5801C85.2539-45.459 84.9609-46.2402 84.2285-46.9727L51.3184-79.834C50.5859-80.5664 49.7559-80.957 48.877-80.957C47.9492-80.957 47.1191-80.5664 46.3867-79.834L13.4766-46.9727C12.793-46.2402 12.4512-45.459 12.4512-44.5801C12.4512-42.7246 13.8184-41.3574 15.625-41.3574C16.5039-41.3574 17.4316-41.6504 17.9688-42.2363L32.7637-56.8848L45.8984-71.0449L45.5566-60.5469L45.5566 7.27539C45.5566 9.13086 46.9238 10.498 48.877 10.498Z"/>
  </g>
  <g id="Thin-M" transform="matrix(1 0 0 1 808.375 1126)">
   <path d="M48.0469 9.96094C49.1211 9.96094 49.9023 9.17969 49.9023 8.1543L49.9023-64.3555L49.707-74.7559L60.8887-63.1348L80.4199-43.6523C80.7617-43.3105 81.2988-43.1641 81.8359-43.1641C82.8125-43.1641 83.6426-43.9453 83.6426-45.0195C83.6426-45.5566 83.4473-45.9961 83.0566-46.3867L49.4141-79.834C49.0234-80.2246 48.584-80.4199 48.0469-80.4199C47.5098-80.4199 47.0703-80.2246 46.6797-79.834L13.0371-46.3867C12.6465-45.9961 12.4512-45.5566 12.4512-45.0195C12.4512-43.9453 13.2812-43.1641 14.2578-43.1641C14.7949-43.1641 15.332-43.3105 15.6738-43.6523L35.2051-63.1348L46.3867-74.7559L46.1914-64.3555L46.1914 8.1543C46.1914 9.17969 46.9727 9.96094 48.0469 9.96094Z"/>
  </g>
  <g id="Ultralight-M" transform="matrix(1 0 0 1 512.079 1126)">
   <path d="M47.6074 9.7168C48.291 9.7168 48.7793 9.17969 48.7793 8.59375L48.7793-66.2598L48.6328-76.6113L58.7891-66.3574L80.8105-44.3359C80.957-44.1895 81.2988-44.043 81.6895-44.043C82.2754-44.043 82.8125-44.5312 82.8125-45.2637C82.8125-45.6055 82.7148-45.8496 82.4707-46.0938L48.4375-79.834C48.2422-80.0781 47.998-80.1758 47.6074-80.1758C47.2656-80.1758 47.0215-80.0781 46.8262-79.834L12.793-46.0938C12.5488-45.8496 12.4512-45.6055 12.4512-45.2637C12.4512-44.5312 12.9883-44.043 13.5742-44.043C13.916-44.043 14.3066-44.1895 14.4531-44.3359L36.4746-66.3574L46.6309-76.6113L46.4844-66.2598L46.4844 8.59375C46.4844 9.17969 46.9727 9.7168 47.6074 9.7168Z"/>
  </g>
  <g id="Black-S" transform="matrix(1 0 0 1 2890.94 696)">
   <path d="M42.4316 1.95312C47.2656 1.95312 50.4395-1.41602 50.4395-6.54297L50.4395-39.7949L50.0488-47.8516L53.1738-43.8965L61.8652-35.1074C63.3301-33.5938 65.0879-32.4219 67.627-32.4219C71.875-32.4219 75.1465-35.498 75.1465-40.0879C75.1465-42.1875 74.2676-44.1895 72.6562-45.8008L48.291-70.166C46.9238-71.5332 44.5801-72.4121 42.4316-72.4121C40.2832-72.4121 37.9395-71.5332 36.5723-70.166L12.2559-45.8008C10.6445-44.1895 9.76562-42.1875 9.76562-40.0879C9.76562-35.498 13.0371-32.4219 17.2852-32.4219C19.8242-32.4219 21.582-33.5938 23.0469-35.1074L31.6895-43.8965L34.8145-47.8516L34.4238-39.7949L34.4238-6.54297C34.4238-1.41602 37.5977 1.95312 42.4316 1.95312Z"/>
  </g>
  <g id="Heavy-S" transform="matrix(1 0 0 1 2595.04 696)">
   <path d="M41.6504 1.75781C45.8496 1.75781 48.6816-1.2207 48.6816-5.66406L48.6816-42.5293L48.291-50.7812L53.5645-44.4336L61.8652-36.1328C63.1348-34.8145 64.6973-33.7891 66.8945-33.7891C70.6543-33.7891 73.5352-36.5723 73.5352-40.5762C73.5352-42.4316 72.8027-44.1895 71.3379-45.6055L46.8262-70.166C45.5566-71.4355 43.5547-72.2168 41.6504-72.2168C39.7461-72.2168 37.6953-71.4355 36.4746-70.166L11.9629-45.6055C10.5469-44.1895 9.76562-42.4316 9.76562-40.5762C9.76562-36.5723 12.6465-33.7891 16.4062-33.7891C18.6035-33.7891 20.166-34.8145 21.4844-36.1328L29.6875-44.4336L34.9609-50.7812L34.5703-42.5293L34.5703-5.66406C34.5703-1.2207 37.4023 1.75781 41.6504 1.75781Z"/>
  </g>
  <g id="Bold-S" transform="matrix(1 0 0 1 2299.21 696)">
   <path d="M40.7715 1.51367C44.3359 1.51367 46.7285-0.927734 46.7285-4.63867L46.7285-45.6543L46.3379-53.9062L54.0039-45.0195L61.8164-37.2559C62.9395-36.1328 64.3066-35.3516 66.1133-35.3516C69.3359-35.3516 71.7773-37.7441 71.7773-41.1133C71.7773-42.6758 71.1426-44.1406 69.9219-45.4102L45.166-70.166C44.043-71.3379 42.3828-71.9727 40.7715-71.9727C39.1113-71.9727 37.4512-71.3379 36.3281-70.166L11.6211-45.4102C10.4004-44.1406 9.76562-42.6758 9.76562-41.1133C9.76562-37.7441 12.207-35.3516 15.4297-35.3516C17.1875-35.3516 18.6035-36.1328 19.6777-37.2559L27.4902-45.0195L35.1562-53.9062L34.7656-45.6543L34.7656-4.63867C34.7656-0.927734 37.207 1.51367 40.7715 1.51367Z"/>
  </g>
  <g id="Semibold-S" transform="matrix(1 0 0 1 2003.13 696)">
   <path d="M40.1367 1.36719C43.2617 1.36719 45.3613-0.78125 45.3613-3.95508L45.3613-47.7539L45.0195-56.0059L54.2969-45.4102L61.8164-38.0371C62.7441-37.0605 64.0137-36.4258 65.5273-36.4258C68.4082-36.4258 70.5078-38.5742 70.5078-41.5039C70.5078-42.8711 69.9707-44.1406 68.8965-45.2637L43.9941-70.2148C43.0176-71.2402 41.5527-71.8262 40.1367-71.8262C38.7207-71.8262 37.2559-71.2402 36.2793-70.2148L11.377-45.2637C10.3027-44.1406 9.76562-42.8711 9.76562-41.5039C9.76562-38.5742 11.9141-36.4258 14.7461-36.4258C16.2598-36.4258 17.5293-37.0605 18.457-38.0371L25.9766-45.4102L35.2539-56.0547L34.9121-47.7539L34.9121-3.95508C34.9121-0.78125 37.0117 1.36719 40.1367 1.36719Z"/>
  </g>
  <g id="Medium-S" transform="matrix(1 0 0 1 1706.88 696)">
   <path d="M39.6484 1.26953C42.4316 1.26953 44.3359-0.634766 44.3359-3.4668L44.3359-49.3652L43.9941-57.5684L54.541-45.752L61.8164-38.623C62.6465-37.7441 63.8184-37.2559 65.1367-37.2559C67.6758-37.2559 69.5801-39.1602 69.5801-41.748C69.5801-43.0176 69.1406-44.1406 68.1152-45.166L43.1641-70.2148C42.1875-71.1914 40.9668-71.7285 39.6484-71.7285C38.3789-71.7285 37.1582-71.1914 36.1816-70.2148L11.2305-45.166C10.2539-44.1406 9.76562-43.0176 9.76562-41.748C9.76562-39.1602 11.6699-37.2559 14.209-37.2559C15.5273-37.2559 16.6992-37.7441 17.5293-38.623L24.8047-45.752L35.3516-57.6172L35.0098-49.3652L35.0098-3.4668C35.0098-0.634766 36.9141 1.26953 39.6484 1.26953Z"/>
  </g>
  <g id="Regular-S" transform="matrix(1 0 0 1 1410.78 696)">
   <path d="M39.0625 1.12305C41.3574 1.12305 43.0176-0.488281 43.0176-2.7832L43.0176-51.4648L42.6758-59.6191L54.834-46.1426L61.8164-39.3555C62.5-38.6719 63.5254-38.2812 64.5508-38.2812C66.748-38.2812 68.3594-39.9902 68.3594-42.1387C68.3594-43.1641 67.9688-44.0918 67.1387-45.0195L41.9922-70.2148C41.1621-71.0938 40.1367-71.582 39.0625-71.582C37.9883-71.582 36.9629-71.0938 36.1328-70.2148L10.9863-45.0195C10.1562-44.0918 9.76562-43.1641 9.76562-42.1387C9.76562-39.9902 11.377-38.2812 13.5742-38.2812C14.5996-38.2812 15.625-38.6719 16.3086-39.3555L23.291-46.1426L35.4492-59.6191L35.1074-51.4648L35.1074-2.7832C35.1074-0.488281 36.7676 1.12305 39.0625 1.12305Z"/>
  </g>
  <g id="Light-S" transform="matrix(1 0 0 1 1114.61 696)">
   <path d="M38.5254 0.78125C40.2832 0.78125 41.5039-0.488281 41.5039-2.19727L41.5039-54.0039L41.2598-62.1582L52.0996-50.3418L62.2559-40.332C62.793-39.7949 63.5742-39.502 64.4043-39.502C66.0645-39.502 67.2852-40.7715 67.2852-42.4316C67.2852-43.2129 66.9922-43.9453 66.3574-44.5801L40.7715-70.2148C40.1367-70.8496 39.3555-71.2402 38.5254-71.2402C37.6953-71.2402 36.9141-70.8496 36.2793-70.2148L10.6934-44.5801C10.0586-43.9453 9.76562-43.2129 9.76562-42.4316C9.76562-40.7715 10.9863-39.502 12.6465-39.502C13.4277-39.502 14.2578-39.7949 14.7949-40.332L24.9512-50.3418L35.791-62.207L35.5469-54.0039L35.5469-2.19727C35.5469-0.488281 36.7676 0.78125 38.5254 0.78125Z"/>
  </g>
  <g id="Thin-S" transform="matrix(1 0 0 1 818.605 696)">
   <path d="M37.793 0.292969C38.8184 0.292969 39.5508-0.439453 39.5508-1.41602L39.5508-57.3242L39.3555-65.4785L48.4863-55.9082L62.8906-41.5527C63.1836-41.2598 63.6719-41.0645 64.1602-41.0645C65.0879-41.0645 65.8691-41.7969 65.8691-42.8223C65.8691-43.3105 65.6738-43.7012 65.332-44.0918L39.1113-70.166C38.7207-70.5566 38.3301-70.752 37.793-70.752C37.3047-70.752 36.9141-70.5566 36.5234-70.166L10.3027-44.0918C9.96094-43.7012 9.76562-43.3105 9.76562-42.8223C9.76562-41.7969 10.498-41.0645 11.4746-41.0645C11.9629-41.0645 12.4512-41.2598 12.7441-41.5527L27.1484-55.9082L36.2305-65.4785L36.084-57.3242L36.084-1.41602C36.084-0.439453 36.8164 0.292969 37.793 0.292969Z"/>
  </g>
  <g id="Ultralight-S" transform="matrix(1 0 0 1 522.284 696)">
   <path d="M37.4512 0.0488281C38.0859 0.0488281 38.5254-0.439453 38.5254-1.02539L38.5254-59.0332L38.4277-67.1387L46.6309-58.7891L63.2324-42.1875C63.3789-41.9922 63.7207-41.8945 64.0625-41.8945C64.5996-41.8945 65.0879-42.334 65.0879-43.0176C65.0879-43.3594 64.9902-43.6035 64.7949-43.7988L38.2324-70.166C37.9883-70.4102 37.793-70.5078 37.4512-70.5078C37.1094-70.5078 36.8652-70.4102 36.6211-70.166L10.1074-43.7988C9.86328-43.6035 9.76562-43.3594 9.76562-43.0176C9.76562-42.334 10.2539-41.8945 10.8398-41.8945C11.1816-41.8945 11.4746-41.9922 11.6699-42.1875L28.2715-58.7891L36.4746-67.1387L36.377-59.0332L36.377-1.02539C36.377-0.439453 36.8164 0.0488281 37.4512 0.0488281Z"/>
  </g>
 </g>
</svg>
