<?xml version="1.0" encoding="UTF-8"?>
<!--Generator: Apple Native CoreSVG 175-->
<!DOCTYPE svg
PUBLIC "-//W3C//DTD SVG 1.1//EN"
       "http://www.w3.org/Graphics/SVG/1.1/DTD/svg11.dtd">
<svg version="1.1" xmlns="http://www.w3.org/2000/svg" xmlns:xlink="http://www.w3.org/1999/xlink" width="3300" height="2200">
 <!--glyph: "uni1000DD.medium", point size: 100.0, font version: "17.0d11e1", template writer version: "65.1"-->
 <g id="Notes">
  <rect height="2200" id="artboard" style="fill:white;opacity:1" width="3300" x="0" y="0"/>
  <line style="fill:none;stroke:black;opacity:1;stroke-width:0.5;" x1="263" x2="3036" y1="292" y2="292"/>
  <text style="stroke:none;fill:black;font-family:sans-serif;font-size:13;font-weight:bold;" transform="matrix(1 0 0 1 263 322)">Weight/Scale Variations</text>
  <text style="stroke:none;fill:black;font-family:sans-serif;font-size:13;text-anchor:middle;" transform="matrix(1 0 0 1 559.711 322)">Ultralight</text>
  <text style="stroke:none;fill:black;font-family:sans-serif;font-size:13;text-anchor:middle;" transform="matrix(1 0 0 1 856.422 322)">Thin</text>
  <text style="stroke:none;fill:black;font-family:sans-serif;font-size:13;text-anchor:middle;" transform="matrix(1 0 0 1 1153.13 322)">Light</text>
  <text style="stroke:none;fill:black;font-family:sans-serif;font-size:13;text-anchor:middle;" transform="matrix(1 0 0 1 1449.84 322)">Regular</text>
  <text style="stroke:none;fill:black;font-family:sans-serif;font-size:13;text-anchor:middle;" transform="matrix(1 0 0 1 1746.56 322)">Medium</text>
  <text style="stroke:none;fill:black;font-family:sans-serif;font-size:13;text-anchor:middle;" transform="matrix(1 0 0 1 2043.27 322)">Semibold</text>
  <text style="stroke:none;fill:black;font-family:sans-serif;font-size:13;text-anchor:middle;" transform="matrix(1 0 0 1 2339.98 322)">Bold</text>
  <text style="stroke:none;fill:black;font-family:sans-serif;font-size:13;text-anchor:middle;" transform="matrix(1 0 0 1 2636.69 322)">Heavy</text>
  <text style="stroke:none;fill:black;font-family:sans-serif;font-size:13;text-anchor:middle;" transform="matrix(1 0 0 1 2933.4 322)">Black</text>
  <line style="fill:none;stroke:black;opacity:1;stroke-width:0.5;" x1="263" x2="3036" y1="1903" y2="1903"/>
  <g transform="matrix(1 0 0 1 263 1933)">
   <path d="M9.24805 0.830078Q10.8691 0.830078 12.2949 0.214844Q13.7207-0.400391 14.8096-1.49414Q15.8984-2.58789 16.5186-4.01367Q17.1387-5.43945 17.1387-7.05078Q17.1387-8.66211 16.5186-10.0879Q15.8984-11.5137 14.8047-12.6074Q13.7109-13.7012 12.2852-14.3164Q10.8594-14.9316 9.23828-14.9316Q7.62695-14.9316 6.20117-14.3164Q4.77539-13.7012 3.69141-12.6074Q2.60742-11.5137 1.9873-10.0879Q1.36719-8.66211 1.36719-7.05078Q1.36719-5.43945 1.9873-4.01367Q2.60742-2.58789 3.69629-1.49414Q4.78516-0.400391 6.21094 0.214844Q7.63672 0.830078 9.24805 0.830078ZM9.24805-0.654297Q7.91992-0.654297 6.7627-1.14746Q5.60547-1.64062 4.73145-2.51953Q3.85742-3.39844 3.36426-4.56055Q2.87109-5.72266 2.87109-7.05078Q2.87109-8.37891 3.35938-9.54102Q3.84766-10.7031 4.72168-11.582Q5.5957-12.4609 6.75293-12.9541Q7.91016-13.4473 9.23828-13.4473Q10.5762-13.4473 11.7334-12.9541Q12.8906-12.4609 13.7695-11.582Q14.6484-10.7031 15.1465-9.54102Q15.6445-8.37891 15.6445-7.05078Q15.6445-5.72266 15.1514-4.56055Q14.6582-3.39844 13.7842-2.51953Q12.9102-1.64062 11.748-1.14746Q10.5859-0.654297 9.24805-0.654297ZM5.6543-7.05078Q5.6543-6.72852 5.85938-6.52832Q6.06445-6.32812 6.40625-6.32812L8.51562-6.32812L8.51562-4.20898Q8.51562-3.88672 8.71094-3.67676Q8.90625-3.4668 9.23828-3.4668Q9.56055-3.4668 9.77051-3.67676Q9.98047-3.88672 9.98047-4.20898L9.98047-6.32812L12.0898-6.32812Q12.4219-6.32812 12.627-6.52832Q12.832-6.72852 12.832-7.05078Q12.832-7.38281 12.627-7.58789Q12.4219-7.79297 12.0898-7.79297L9.98047-7.79297L9.98047-9.90234Q9.98047-10.2344 9.77051-10.4443Q9.56055-10.6543 9.23828-10.6543Q8.90625-10.6543 8.71094-10.4443Q8.51562-10.2344 8.51562-9.90234L8.51562-7.79297L6.40625-7.79297Q6.06445-7.79297 5.85938-7.58789Q5.6543-7.38281 5.6543-7.05078Z"/>
  </g>
  <g transform="matrix(1 0 0 1 281.867 1933)">
   <path d="M11.709 2.91016Q13.75 2.91016 15.5518 2.12891Q17.3535 1.34766 18.7305-0.0292969Q20.1074-1.40625 20.8887-3.20801Q21.6699-5.00977 21.6699-7.05078Q21.6699-9.0918 20.8887-10.8936Q20.1074-12.6953 18.7305-14.0723Q17.3535-15.4492 15.5469-16.2305Q13.7402-17.0117 11.6992-17.0117Q9.6582-17.0117 7.85645-16.2305Q6.05469-15.4492 4.68262-14.0723Q3.31055-12.6953 2.5293-10.8936Q1.74805-9.0918 1.74805-7.05078Q1.74805-5.00977 2.5293-3.20801Q3.31055-1.40625 4.6875-0.0292969Q6.06445 1.34766 7.86621 2.12891Q9.66797 2.91016 11.709 2.91016ZM11.709 1.25Q9.98047 1.25 8.47656 0.605469Q6.97266-0.0390625 5.83496-1.17676Q4.69727-2.31445 4.05762-3.81836Q3.41797-5.32227 3.41797-7.05078Q3.41797-8.7793 4.05762-10.2832Q4.69727-11.7871 5.83008-12.9297Q6.96289-14.0723 8.4668-14.7119Q9.9707-15.3516 11.6992-15.3516Q13.4277-15.3516 14.9316-14.7119Q16.4355-14.0723 17.5781-12.9297Q18.7207-11.7871 19.3652-10.2832Q20.0098-8.7793 20.0098-7.05078Q20.0098-5.32227 19.3701-3.81836Q18.7305-2.31445 17.5928-1.17676Q16.4551-0.0390625 14.9463 0.605469Q13.4375 1.25 11.709 1.25ZM7.17773-7.05078Q7.17773-6.69922 7.41211-6.47461Q7.64648-6.25 8.01758-6.25L10.8887-6.25L10.8887-3.36914Q10.8887-2.99805 11.1133-2.76855Q11.3379-2.53906 11.6895-2.53906Q12.0605-2.53906 12.29-2.76855Q12.5195-2.99805 12.5195-3.36914L12.5195-6.25L15.4004-6.25Q15.7715-6.25 16.001-6.47461Q16.2305-6.69922 16.2305-7.05078Q16.2305-7.42188 16.001-7.65137Q15.7715-7.88086 15.4004-7.88086L12.5195-7.88086L12.5195-10.752Q12.5195-11.1328 12.29-11.3623Q12.0605-11.5918 11.6895-11.5918Q11.3379-11.5918 11.1133-11.3574Q10.8887-11.123 10.8887-10.752L10.8887-7.88086L8.01758-7.88086Q7.63672-7.88086 7.40723-7.65137Q7.17773-7.42188 7.17773-7.05078Z"/>
  </g>
  <g transform="matrix(1 0 0 1 305.646 1933)">
   <path d="M14.9707 5.66406Q17.0605 5.66406 18.96 5.01465Q20.8594 4.36523 22.4512 3.19336Q24.043 2.02148 25.2197 0.429688Q26.3965-1.16211 27.0459-3.06641Q27.6953-4.9707 27.6953-7.05078Q27.6953-9.14062 27.0459-11.04Q26.3965-12.9395 25.2197-14.5312Q24.043-16.123 22.4512-17.2998Q20.8594-18.4766 18.9551-19.126Q17.0508-19.7754 14.9609-19.7754Q12.8711-19.7754 10.9717-19.126Q9.07227-18.4766 7.48535-17.2998Q5.89844-16.123 4.72168-14.5312Q3.54492-12.9395 2.90039-11.04Q2.25586-9.14062 2.25586-7.05078Q2.25586-4.9707 2.90527-3.06641Q3.55469-1.16211 4.72656 0.429688Q5.89844 2.02148 7.49023 3.19336Q9.08203 4.36523 10.9814 5.01465Q12.8809 5.66406 14.9707 5.66406ZM14.9707 3.84766Q13.1641 3.84766 11.5283 3.2959Q9.89258 2.74414 8.53516 1.74805Q7.17773 0.751953 6.17676-0.610352Q5.17578-1.97266 4.62891-3.6084Q4.08203-5.24414 4.08203-7.05078Q4.08203-8.86719 4.62891-10.5029Q5.17578-12.1387 6.17188-13.501Q7.16797-14.8633 8.52539-15.8594Q9.88281-16.8555 11.5186-17.4023Q13.1543-17.9492 14.9609-17.9492Q16.7773-17.9492 18.4131-17.4023Q20.0488-16.8555 21.4111-15.8594Q22.7734-14.8633 23.7695-13.501Q24.7656-12.1387 25.3174-10.5029Q25.8691-8.86719 25.8691-7.05078Q25.8789-5.24414 25.332-3.6084Q24.7852-1.97266 23.7842-0.610352Q22.7832 0.751953 21.4209 1.74805Q20.0586 2.74414 18.4229 3.2959Q16.7871 3.84766 14.9707 3.84766ZM9.19922-7.05078Q9.19922-6.66992 9.45801-6.4209Q9.7168-6.17188 10.1172-6.17188L14.0625-6.17188L14.0625-2.2168Q14.0625-1.81641 14.3115-1.55762Q14.5605-1.29883 14.9512-1.29883Q15.3516-1.29883 15.6104-1.55273Q15.8691-1.80664 15.8691-2.2168L15.8691-6.17188L19.8242-6.17188Q20.2246-6.17188 20.4785-6.4209Q20.7324-6.66992 20.7324-7.05078Q20.7324-7.46094 20.4785-7.71484Q20.2246-7.96875 19.8242-7.96875L15.8691-7.96875L15.8691-11.9141Q15.8691-12.3242 15.6104-12.583Q15.3516-12.8418 14.9512-12.8418Q14.5605-12.8418 14.3115-12.583Q14.0625-12.3242 14.0625-11.9141L14.0625-7.96875L10.1172-7.96875Q9.70703-7.96875 9.45312-7.71484Q9.19922-7.46094 9.19922-7.05078Z"/>
  </g>
  <text style="stroke:none;fill:black;font-family:sans-serif;font-size:13;font-weight:bold;" transform="matrix(1 0 0 1 263 1953)">Design Variations</text>
  <text style="stroke:none;fill:black;font-family:sans-serif;font-size:13;" transform="matrix(1 0 0 1 263 1971)">Symbols are supported in up to nine weights and three scales.</text>
  <text style="stroke:none;fill:black;font-family:sans-serif;font-size:13;" transform="matrix(1 0 0 1 263 1989)">For optimal layout with text and other symbols, vertically align</text>
  <text style="stroke:none;fill:black;font-family:sans-serif;font-size:13;" transform="matrix(1 0 0 1 263 2007)">symbols with the adjacent text.</text>
  <line style="fill:none;stroke:#00AEEF;stroke-width:0.5;opacity:1.0;" x1="776" x2="776" y1="1919" y2="1933"/>
  <g transform="matrix(1 0 0 1 776 1933)">
   <path d="M3.31055 0.15625Q3.70117 0.15625 3.91602-0.00976562Q4.13086-0.175781 4.26758-0.585938L5.52734-4.0332L11.2891-4.0332L12.5488-0.585938Q12.6855-0.175781 12.9004-0.00976562Q13.1152 0.15625 13.4961 0.15625Q13.8867 0.15625 14.1162-0.0585938Q14.3457-0.273438 14.3457-0.644531Q14.3457-0.869141 14.2383-1.17188L9.6582-13.3691Q9.48242-13.8184 9.17969-14.043Q8.87695-14.2676 8.4082-14.2676Q7.5-14.2676 7.17773-13.3789L2.59766-1.16211Q2.49023-0.859375 2.49023-0.634766Q2.49023-0.263672 2.70996-0.0537109Q2.92969 0.15625 3.31055 0.15625ZM6.00586-5.51758L8.37891-12.0898L8.42773-12.0898L10.8008-5.51758Z"/>
  </g>
  <line style="fill:none;stroke:#00AEEF;stroke-width:0.5;opacity:1.0;" x1="793.197" x2="793.197" y1="1919" y2="1933"/>
  <text style="stroke:none;fill:black;font-family:sans-serif;font-size:13;font-weight:bold;" transform="matrix(1 0 0 1 776 1953)">Margins</text>
  <text style="stroke:none;fill:black;font-family:sans-serif;font-size:13;" transform="matrix(1 0 0 1 776 1971)">Leading and trailing margins on the left and right side of each symbol</text>
  <text style="stroke:none;fill:black;font-family:sans-serif;font-size:13;" transform="matrix(1 0 0 1 776 1989)">can be adjusted by modifying the x-location of the margin guidelines.</text>
  <text style="stroke:none;fill:black;font-family:sans-serif;font-size:13;" transform="matrix(1 0 0 1 776 2007)">Modifications are automatically applied proportionally to all</text>
  <text style="stroke:none;fill:black;font-family:sans-serif;font-size:13;" transform="matrix(1 0 0 1 776 2025)">scales and weights.</text>
  <g transform="matrix(1 0 0 1 1289 1933)">
   <path d="M2.8418 1.86523L4.54102 3.57422Q5.18555 4.22852 5.90332 4.17969Q6.62109 4.13086 7.31445 3.35938L18.0078-8.42773L17.041-9.4043L6.42578 2.27539Q6.16211 2.57812 5.89355 2.61719Q5.625 2.65625 5.27344 2.30469L4.10156 1.14258Q3.75 0.791016 3.79395 0.522461Q3.83789 0.253906 4.14062-0.0195312L15.6152-10.8203L14.6387-11.7871L3.04688-0.898438Q2.30469-0.214844 2.25098 0.498047Q2.19727 1.21094 2.8418 1.86523ZM9.25781-16.3281Q8.94531-16.0254 8.90625-15.6348Q8.86719-15.2441 9.04297-14.9512Q9.21875-14.6777 9.55566-14.541Q9.89258-14.4043 10.3809-14.5215Q11.4746-14.7754 12.5977-14.7314Q13.7207-14.6875 14.7949-13.9844L14.209-12.5293Q13.9551-11.9043 14.0674-11.4404Q14.1797-10.9766 14.5801-10.5664L16.875-8.25195Q17.2363-7.88086 17.5781-7.82227Q17.9199-7.76367 18.3398-7.8418L19.4043-8.03711L20.0684-7.36328L20.0293-6.80664Q20-6.43555 20.1221-6.12305Q20.2441-5.81055 20.6055-5.44922L21.3672-4.70703Q21.7285-4.3457 22.1533-4.33105Q22.5781-4.31641 22.9297-4.66797L25.8398-7.58789Q26.1914-7.93945 26.1816-8.35449Q26.1719-8.76953 25.8105-9.13086L25.0391-9.89258Q24.6875-10.2539 24.3799-10.3857Q24.0723-10.5176 23.7109-10.4883L23.1348-10.4395L22.4902-11.0742L22.7344-12.1973Q22.832-12.6172 22.6953-12.9834Q22.5586-13.3496 22.1191-13.7891L19.9219-15.9766Q18.6719-17.2168 17.2607-17.8369Q15.8496-18.457 14.4189-18.4814Q12.9883-18.5059 11.665-17.959Q10.3418-17.4121 9.25781-16.3281ZM10.752-15.957Q11.6602-16.6211 12.7002-16.9043Q13.7402-17.1875 14.8047-17.085Q15.8691-16.9824 16.8701-16.5137Q17.8711-16.0449 18.7012-15.2051L21.1328-12.793Q21.3086-12.6172 21.3525-12.4512Q21.3965-12.2852 21.3379-12.0312L21.0156-10.5469L22.5195-9.0625L23.5059-9.12109Q23.6914-9.13086 23.7891-9.09668Q23.8867-9.0625 24.0332-8.91602L24.6094-8.33984L22.168-5.89844L21.5918-6.47461Q21.4453-6.62109 21.4062-6.71875Q21.3672-6.81641 21.377-7.01172L21.4453-7.98828L19.9512-9.47266L18.4277-9.21875Q18.1836-9.16992 18.042-9.2041Q17.9004-9.23828 17.7148-9.41406L15.7129-11.416Q15.5176-11.5918 15.4932-11.7529Q15.4688-11.9141 15.5859-12.1875L16.4648-14.2773Q15.293-15.3711 13.8281-15.791Q12.3633-16.2109 10.8398-15.7617Q10.7227-15.7324 10.6885-15.8057Q10.6543-15.8789 10.752-15.957Z"/>
  </g>
  <text style="stroke:none;fill:black;font-family:sans-serif;font-size:13;font-weight:bold;" transform="matrix(1 0 0 1 1289 1953)">Exporting</text>
  <text style="stroke:none;fill:black;font-family:sans-serif;font-size:13;" transform="matrix(1 0 0 1 1289 1971)">Symbols should be outlined when exporting to ensure the</text>
  <text style="stroke:none;fill:black;font-family:sans-serif;font-size:13;" transform="matrix(1 0 0 1 1289 1989)">design is preserved when submitting to Xcode.</text>
  <text id="template-version" style="stroke:none;fill:black;font-family:sans-serif;font-size:13;text-anchor:end;" transform="matrix(1 0 0 1 3036 1933)">Template v.2.0</text>
  <text style="stroke:none;fill:black;font-family:sans-serif;font-size:13;text-anchor:end;" transform="matrix(1 0 0 1 3036 1951)">Requires Xcode 13 or greater</text>
  <text id="descriptive-name" style="stroke:none;fill:black;font-family:sans-serif;font-size:13;text-anchor:end;" transform="matrix(1 0 0 1 3036 1969)">Generated from plus.square.fill</text>
  <text style="stroke:none;fill:black;font-family:sans-serif;font-size:13;text-anchor:end;" transform="matrix(1 0 0 1 3036 1987)">Typeset at 100 points</text>
  <text style="stroke:none;fill:black;font-family:sans-serif;font-size:13;" transform="matrix(1 0 0 1 263 726)">Small</text>
  <text style="stroke:none;fill:black;font-family:sans-serif;font-size:13;" transform="matrix(1 0 0 1 263 1156)">Medium</text>
  <text style="stroke:none;fill:black;font-family:sans-serif;font-size:13;" transform="matrix(1 0 0 1 263 1586)">Large</text>
 </g>
 <g id="Guides">
  <g id="H-reference" style="fill:#27AAE1;stroke:none;" transform="matrix(1 0 0 1 339 696)">
   <path d="M0.976562 0L3.66211 0L29.3457-67.1387L30.0293-67.1387L30.0293-70.459L28.125-70.459ZM11.6699-24.4629L46.9727-24.4629L46.2402-26.709L12.4512-26.709ZM55.127 0L57.7637 0L30.6152-70.459L29.4434-70.459L29.4434-67.1387Z"/>
  </g>
  <line id="Baseline-S" style="fill:none;stroke:#27AAE1;opacity:1;stroke-width:0.5;" x1="263" x2="3036" y1="696" y2="696"/>
  <line id="Capline-S" style="fill:none;stroke:#27AAE1;opacity:1;stroke-width:0.5;" x1="263" x2="3036" y1="625.541" y2="625.541"/>
  <g id="H-reference" style="fill:#27AAE1;stroke:none;" transform="matrix(1 0 0 1 339 1126)">
   <path d="M0.976562 0L3.66211 0L29.3457-67.1387L30.0293-67.1387L30.0293-70.459L28.125-70.459ZM11.6699-24.4629L46.9727-24.4629L46.2402-26.709L12.4512-26.709ZM55.127 0L57.7637 0L30.6152-70.459L29.4434-70.459L29.4434-67.1387Z"/>
  </g>
  <line id="Baseline-M" style="fill:none;stroke:#27AAE1;opacity:1;stroke-width:0.5;" x1="263" x2="3036" y1="1126" y2="1126"/>
  <line id="Capline-M" style="fill:none;stroke:#27AAE1;opacity:1;stroke-width:0.5;" x1="263" x2="3036" y1="1055.54" y2="1055.54"/>
  <g id="H-reference" style="fill:#27AAE1;stroke:none;" transform="matrix(1 0 0 1 339 1556)">
   <path d="M0.976562 0L3.66211 0L29.3457-67.1387L30.0293-67.1387L30.0293-70.459L28.125-70.459ZM11.6699-24.4629L46.9727-24.4629L46.2402-26.709L12.4512-26.709ZM55.127 0L57.7637 0L30.6152-70.459L29.4434-70.459L29.4434-67.1387Z"/>
  </g>
  <line id="Baseline-L" style="fill:none;stroke:#27AAE1;opacity:1;stroke-width:0.5;" x1="263" x2="3036" y1="1556" y2="1556"/>
  <line id="Capline-L" style="fill:none;stroke:#27AAE1;opacity:1;stroke-width:0.5;" x1="263" x2="3036" y1="1485.54" y2="1485.54"/>
  <line id="left-margin" style="fill:none;stroke:#00AEEF;stroke-width:0.5;opacity:1.0;" x1="1392.45" x2="1392.45" y1="1030.79" y2="1150.12"/>
  <line id="right-margin" style="fill:none;stroke:#00AEEF;stroke-width:0.5;opacity:1.0;" x1="1507.24" x2="1507.24" y1="1030.79" y2="1150.12"/>
 </g>
 <g id="Symbols">
  <g id="Black-L" transform="matrix(1 0 0 1 2855.62 1556)">
   <path d="M39.9902 26.5137L115.576 26.5137Q127.002 26.5137 133.252 20.3125Q139.502 14.1113 139.502 2.68555L139.502-73.0957Q139.502-84.4727 133.252-90.6738Q127.002-96.875 115.576-96.875L39.9902-96.875Q28.5645-96.875 22.3145-90.6738Q16.0645-84.4727 16.0645-73.0957L16.0645 2.68555Q16.0645 14.1113 22.3145 20.3125Q28.5645 26.5137 39.9902 26.5137ZM47.2168-35.2539Q47.2168-39.0625 49.6582-41.5771Q52.0996-44.0918 55.8105-44.0918L69.5801-44.0918L69.5801-57.8613Q69.5801-61.5723 72.0703-64.0137Q74.5605-66.4551 78.3691-66.4551Q82.1289-66.4551 84.6436-64.0137Q87.1582-61.5723 87.1582-57.8613L87.1582-44.0918L100.977-44.0918Q104.639-44.0918 107.08-41.5771Q109.521-39.0625 109.521-35.2539Q109.521-31.4941 107.08-29.0039Q104.639-26.5137 100.977-26.5137L87.1582-26.5137L87.1582-12.6953Q87.1582-9.0332 84.6436-6.5918Q82.1289-4.15039 78.3691-4.15039Q74.5605-4.15039 72.0703-6.5918Q69.5801-9.0332 69.5801-12.6953L69.5801-26.5137L55.8105-26.5137Q52.0996-26.5137 49.6582-29.0039Q47.2168-31.4941 47.2168-35.2539Z"/>
  </g>
  <g id="Heavy-L" transform="matrix(1 0 0 1 2559.93 1556)">
   <path d="M38.8184 25.4883L114.697 25.4883Q125.684 25.4883 131.567 19.6289Q137.451 13.7695 137.451 2.88086L137.451-73.2422Q137.451-84.1309 131.567-89.9902Q125.684-95.8496 114.697-95.8496L38.8184-95.8496Q27.8809-95.8496 21.9727-89.9902Q16.0645-84.1309 16.0645-73.2422L16.0645 2.88086Q16.0645 13.8184 21.9727 19.6533Q27.8809 25.4883 38.8184 25.4883ZM46.3379-35.2539Q46.3379-38.6719 48.5107-40.8936Q50.6836-43.1152 54.0039-43.1152L69.4336-43.1152L69.4336-58.5449Q69.4336-61.8652 71.6309-64.0381Q73.8281-66.2109 77.1973-66.2109Q80.5664-66.2109 82.8125-64.0381Q85.0586-61.8652 85.0586-58.5449L85.0586-43.1152L100.488-43.1152Q103.76-43.1152 105.957-40.8936Q108.154-38.6719 108.154-35.2539Q108.154-31.8848 105.957-29.6875Q103.76-27.4902 100.488-27.4902L85.0586-27.4902L85.0586-12.0605Q85.0586-8.78906 82.8125-6.5918Q80.5664-4.39453 77.1973-4.39453Q73.8281-4.39453 71.6309-6.5918Q69.4336-8.78906 69.4336-12.0605L69.4336-27.4902L54.0039-27.4902Q50.6836-27.4902 48.5107-29.6875Q46.3379-31.8848 46.3379-35.2539Z"/>
  </g>
  <g id="Bold-L" transform="matrix(1 0 0 1 2264.34 1556)">
   <path d="M37.5488 24.3652L113.721 24.3652Q124.17 24.3652 129.688 18.8965Q135.205 13.4277 135.205 3.07617L135.205-73.4375Q135.205-83.7891 129.688-89.2578Q124.17-94.7266 113.721-94.7266L37.5488-94.7266Q27.0996-94.7266 21.582-89.2578Q16.0645-83.7891 16.0645-73.4375L16.0645 3.07617Q16.0645 13.4766 21.582 18.9209Q27.0996 24.3652 37.5488 24.3652ZM45.3125-35.2539Q45.3125-38.2324 47.1924-40.1367Q49.0723-42.041 52.002-42.041L69.2383-42.041L69.2383-59.2773Q69.2383-62.1582 71.1182-64.0625Q72.998-65.9668 75.8789-65.9668Q78.8086-65.9668 80.7373-64.0625Q82.666-62.1582 82.666-59.2773L82.666-42.041L99.9023-42.041Q102.783-42.041 104.663-40.1367Q106.543-38.2324 106.543-35.2539Q106.543-32.373 104.663-30.4932Q102.783-28.6133 99.9023-28.6133L82.666-28.6133L82.666-11.3281Q82.666-8.49609 80.7373-6.61621Q78.8086-4.73633 75.8789-4.73633Q72.998-4.73633 71.1182-6.61621Q69.2383-8.49609 69.2383-11.3281L69.2383-28.6133L52.002-28.6133Q49.1211-28.6133 47.2168-30.4932Q45.3125-32.373 45.3125-35.2539Z"/>
  </g>
  <g id="Semibold-L" transform="matrix(1 0 0 1 1968.44 1556)">
   <path d="M36.6211 23.584L112.988 23.584Q123.145 23.584 128.369 18.3838Q133.594 13.1836 133.594 3.17383L133.594-73.5352Q133.594-83.4961 128.369-88.6963Q123.145-93.8965 112.988-93.8965L36.6211-93.8965Q26.5625-93.8965 21.3135-88.7207Q16.0645-83.5449 16.0645-73.5352L16.0645 3.17383Q16.0645 13.2324 21.3135 18.4082Q26.5625 23.584 36.6211 23.584ZM44.6289-35.2051Q44.6289-37.8418 46.3135-39.5508Q47.998-41.2598 50.5859-41.2598L69.0918-41.2598L69.0918-59.7656Q69.0918-62.3047 70.752-64.0137Q72.4121-65.7227 75-65.7227Q77.5879-65.7227 79.2969-64.0137Q81.0059-62.3047 81.0059-59.7656L81.0059-41.2598L99.5117-41.2598Q102.1-41.2598 103.784-39.5508Q105.469-37.8418 105.469-35.2051Q105.469-32.666 103.784-31.0059Q102.1-29.3457 99.5117-29.3457L81.0059-29.3457L81.0059-10.791Q81.0059-8.20312 79.2969-6.54297Q77.5879-4.88281 75-4.88281Q72.4121-4.88281 70.752-6.56738Q69.0918-8.25195 69.0918-10.791L69.0918-29.3457L50.5859-29.3457Q47.998-29.3457 46.3135-31.0059Q44.6289-32.666 44.6289-35.2051Z"/>
  </g>
  <g id="Medium-L" transform="matrix(1 0 0 1 1672.31 1556)">
   <path d="M35.9375 22.998L112.5 22.998Q122.363 22.998 127.393 17.9932Q132.422 12.9883 132.422 3.27148L132.422-73.6328Q132.422-83.3008 127.393-88.3057Q122.363-93.3105 112.5-93.3105L35.9375-93.3105Q26.1719-93.3105 21.1182-88.3301Q16.0645-83.3496 16.0645-73.6328L16.0645 3.27148Q16.0645 13.0371 21.1182 18.0176Q26.1719 22.998 35.9375 22.998ZM44.0918-35.2051Q44.0918-37.5977 45.6055-39.1357Q47.1191-40.6738 49.5117-40.6738L68.9941-40.6738L68.9941-60.1562Q68.9941-62.5 70.4834-64.0381Q71.9727-65.5762 74.2676-65.5762Q76.6602-65.5762 78.1982-64.0381Q79.7363-62.5 79.7363-60.1562L79.7363-40.6738L99.2188-40.6738Q101.611-40.6738 103.125-39.1357Q104.639-37.5977 104.639-35.2051Q104.639-32.9102 103.101-31.4209Q101.562-29.9316 99.2188-29.9316L79.7363-29.9316L79.7363-10.4004Q79.7363-8.05664 78.1982-6.54297Q76.6602-5.0293 74.2676-5.0293Q71.9727-5.0293 70.4834-6.56738Q68.9941-8.10547 68.9941-10.4004L68.9941-29.9316L49.5117-29.9316Q47.168-29.9316 45.6299-31.4209Q44.0918-32.9102 44.0918-35.2051Z"/>
  </g>
  <g id="Regular-L" transform="matrix(1 0 0 1 1376.38 1556)">
   <path d="M35.0586 22.2168L111.816 22.2168Q121.338 22.2168 126.099 17.4805Q130.859 12.7441 130.859 3.41797L130.859-73.7305Q130.859-83.0566 126.099-87.793Q121.338-92.5293 111.816-92.5293L35.0586-92.5293Q25.6348-92.5293 20.8496-87.8174Q16.0645-83.1055 16.0645-73.7305L16.0645 3.41797Q16.0645 12.793 20.8496 17.5049Q25.6348 22.2168 35.0586 22.2168ZM43.4082-35.2051Q43.4082-37.3047 44.7266-38.623Q46.0449-39.9414 48.1445-39.9414L68.8477-39.9414L68.8477-60.6445Q68.8477-62.6953 70.1172-64.0381Q71.3867-65.3809 73.3887-65.3809Q75.4883-65.3809 76.8066-64.0381Q78.125-62.6953 78.125-60.6445L78.125-39.9414L98.8281-39.9414Q100.928-39.9414 102.246-38.623Q103.564-37.3047 103.564-35.2051Q103.564-33.2031 102.222-31.9336Q100.879-30.6641 98.8281-30.6641L78.125-30.6641L78.125-9.91211Q78.125-7.86133 76.8066-6.54297Q75.4883-5.22461 73.3887-5.22461Q71.3867-5.22461 70.1172-6.56738Q68.8477-7.91016 68.8477-9.91211L68.8477-30.6641L48.1445-30.6641Q46.0938-30.6641 44.751-31.9336Q43.4082-33.2031 43.4082-35.2051Z"/>
  </g>
  <g id="Light-L" transform="matrix(1 0 0 1 1080.5 1556)">
   <path d="M34.0332 21.4355L111.182 21.4355Q120.117 21.4355 124.658 16.8945Q129.199 12.3535 129.199 3.56445L129.199-73.8281Q129.199-82.6172 124.658-87.1582Q120.117-91.6992 111.182-91.6992L34.0332-91.6992Q25.1465-91.6992 20.6055-87.207Q16.0645-82.7148 16.0645-73.8281L16.0645 3.56445Q16.0645 12.4023 20.6055 16.9189Q25.1465 21.4355 34.0332 21.4355ZM43.5547-35.2051Q43.5547-36.7676 44.5557-37.793Q45.5566-38.8184 47.168-38.8184L69.1406-38.8184L69.1406-60.8398Q69.1406-62.3535 70.1172-63.3789Q71.0938-64.4043 72.5586-64.4043Q74.1699-64.4043 75.1953-63.3789Q76.2207-62.3535 76.2207-60.8398L76.2207-38.8184L98.1934-38.8184Q99.7559-38.8184 100.781-37.793Q101.807-36.7676 101.807-35.2051Q101.807-33.7402 100.757-32.7637Q99.707-31.7871 98.1934-31.7871L76.2207-31.7871L76.2207-9.76562Q76.2207-8.20312 75.1953-7.20215Q74.1699-6.20117 72.5586-6.20117Q71.0938-6.20117 70.1172-7.22656Q69.1406-8.25195 69.1406-9.76562L69.1406-31.7871L47.168-31.7871Q45.6055-31.7871 44.5801-32.7637Q43.5547-33.7402 43.5547-35.2051Z"/>
  </g>
  <g id="Thin-L" transform="matrix(1 0 0 1 784.889 1556)">
   <path d="M32.666 20.3613L110.352 20.3613Q118.506 20.3613 122.754 16.0889Q127.002 11.8164 127.002 3.75977L127.002-73.9746Q127.002-82.0312 122.754-86.3037Q118.506-90.5762 110.352-90.5762L32.666-90.5762Q24.5117-90.5762 20.2881-86.377Q16.0645-82.1777 16.0645-73.9746L16.0645 3.75977Q16.0645 11.9141 20.2881 16.1377Q24.5117 20.3613 32.666 20.3613ZM43.7012-35.2539Q43.7012-36.1816 44.2871-36.792Q44.873-37.4023 45.8008-37.4023L69.4336-37.4023L69.4336-61.1328Q69.4336-61.9141 70.0439-62.5488Q70.6543-63.1836 71.4844-63.1836Q72.3633-63.1836 72.9736-62.5977Q73.584-62.0117 73.584-61.1328L73.584-37.4023L97.3145-37.4023Q98.1934-37.4023 98.8037-36.792Q99.4141-36.1816 99.4141-35.2539Q99.4141-34.4727 98.7793-33.8867Q98.1445-33.3008 97.3145-33.3008L73.584-33.3008L73.584-9.57031Q73.584-8.69141 72.9736-8.10547Q72.3633-7.51953 71.4844-7.51953Q70.6543-7.51953 70.0439-8.1543Q69.4336-8.78906 69.4336-9.57031L69.4336-33.3008L45.8008-33.3008Q44.9219-33.3008 44.3115-33.8867Q43.7012-34.4727 43.7012-35.2539Z"/>
  </g>
  <g id="Ultralight-L" transform="matrix(1 0 0 1 488.739 1556)">
   <path d="M31.9824 19.8242L109.961 19.8242Q117.725 19.8242 121.802 15.6738Q125.879 11.5234 125.879 3.85742L125.879-74.0723Q125.879-81.7383 121.802-85.8643Q117.725-89.9902 109.961-89.9902L31.9824-89.9902Q24.1699-89.9902 20.1172-85.9375Q16.0645-81.8848 16.0645-74.0723L16.0645 3.85742Q16.0645 11.6699 20.1172 15.7471Q24.1699 19.8242 31.9824 19.8242ZM43.7988-35.2539Q43.7988-35.791 44.1895-36.2305Q44.5801-36.6699 45.1172-36.6699L69.6289-36.6699L69.6289-61.2305Q69.6289-61.7188 70.0439-62.1094Q70.459-62.5 70.8984-62.5Q71.4844-62.5 71.8994-62.1338Q72.3145-61.7676 72.3145-61.2305L72.3145-36.6699L96.875-36.6699Q97.4121-36.6699 97.8027-36.2305Q98.1934-35.791 98.1934-35.2539Q98.1934-34.8633 97.7783-34.4482Q97.3633-34.0332 96.875-34.0332L72.3145-34.0332L72.3145-9.47266Q72.3145-8.88672 71.8994-8.54492Q71.4844-8.20312 70.8984-8.20312Q70.459-8.20312 70.0439-8.59375Q69.6289-8.98438 69.6289-9.47266L69.6289-34.0332L45.1172-34.0332Q44.6289-34.0332 44.2139-34.4482Q43.7988-34.8633 43.7988-35.2539Z"/>
  </g>
  <g id="Black-M" transform="matrix(1 0 0 1 2872.54 1126)">
   <path d="M31.5918 13.2324L90.1367 13.2324Q99.1699 13.2324 104.224 8.17871Q109.277 3.125 109.277-5.9082L109.277-64.4531Q109.277-73.5352 104.224-78.5645Q99.1699-83.5938 90.1367-83.5938L31.5918-83.5938Q22.5586-83.5938 17.5049-78.5645Q12.4512-73.5352 12.4512-64.4531L12.4512-5.9082Q12.4512 3.125 17.5049 8.17871Q22.5586 13.2324 31.5918 13.2324ZM37.4023-35.2539Q37.4023-38.3789 39.4287-40.4541Q41.4551-42.5293 44.4824-42.5293L54.1504-42.5293L54.1504-52.2461Q54.1504-55.2734 56.25-57.2998Q58.3496-59.3262 61.4258-59.3262Q64.5508-59.3262 66.626-57.2998Q68.7012-55.2734 68.7012-52.2461L68.7012-42.5293L78.418-42.5293Q81.4453-42.5293 83.4717-40.4541Q85.498-38.3789 85.498-35.2539Q85.498-32.1777 83.4717-30.0781Q81.4453-27.9785 78.418-27.9785L68.7012-27.9785L68.7012-18.2617Q68.7012-15.2832 66.626-13.2568Q64.5508-11.2305 61.4258-11.2305Q58.3496-11.2305 56.25-13.2568Q54.1504-15.2832 54.1504-18.2617L54.1504-27.9785L44.4824-27.9785Q41.4551-27.9785 39.4287-30.0781Q37.4023-32.1777 37.4023-35.2539Z"/>
  </g>
  <g id="Heavy-M" transform="matrix(1 0 0 1 2576.65 1126)">
   <path d="M30.7129 12.4023L89.4043 12.4023Q98.0957 12.4023 102.856 7.66602Q107.617 2.92969 107.617-5.76172L107.617-64.5996Q107.617-73.291 102.856-78.0273Q98.0957-82.7637 89.4043-82.7637L30.7129-82.7637Q21.9727-82.7637 17.2119-78.0273Q12.4512-73.291 12.4512-64.5996L12.4512-5.76172Q12.4512 2.92969 17.2119 7.66602Q21.9727 12.4023 30.7129 12.4023ZM36.5234-35.2539Q36.5234-38.0859 38.3545-39.9658Q40.1855-41.8457 42.9688-41.8457L53.9551-41.8457L53.9551-52.8809Q53.9551-55.6152 55.835-57.4463Q57.7148-59.2773 60.498-59.2773Q63.3301-59.2773 65.1855-57.4463Q67.041-55.6152 67.041-52.8809L67.041-41.8457L78.125-41.8457Q80.8594-41.8457 82.6904-39.9658Q84.5215-38.0859 84.5215-35.2539Q84.5215-32.4707 82.6904-30.5908Q80.8594-28.7109 78.125-28.7109L67.041-28.7109L67.041-17.6758Q67.041-14.9414 65.1855-13.1104Q63.3301-11.2793 60.498-11.2793Q57.7148-11.2793 55.835-13.1104Q53.9551-14.9414 53.9551-17.6758L53.9551-28.7109L42.9688-28.7109Q40.1855-28.7109 38.3545-30.5908Q36.5234-32.4707 36.5234-35.2539Z"/>
  </g>
  <g id="Bold-M" transform="matrix(1 0 0 1 2280.85 1126)">
   <path d="M29.6875 11.5234L88.5742 11.5234Q96.9238 11.5234 101.367 7.10449Q105.811 2.68555 105.811-5.66406L105.811-64.7461Q105.811-73.0469 101.367-77.4658Q96.9238-81.8848 88.5742-81.8848L29.6875-81.8848Q21.3379-81.8848 16.8945-77.4658Q12.4512-73.0469 12.4512-64.7461L12.4512-5.66406Q12.4512 2.68555 16.8945 7.10449Q21.3379 11.5234 29.6875 11.5234ZM35.498-35.2539Q35.498-37.793 37.1338-39.4287Q38.7695-41.0645 41.2109-41.0645L53.7109-41.0645L53.7109-53.5645Q53.7109-56.0059 55.3223-57.6416Q56.9336-59.2773 59.4238-59.2773Q61.9141-59.2773 63.5498-57.6416Q65.1855-56.0059 65.1855-53.5645L65.1855-41.0645L77.7344-41.0645Q80.1758-41.0645 81.7871-39.4287Q83.3984-37.793 83.3984-35.2539Q83.3984-32.8125 81.7871-31.1768Q80.1758-29.541 77.7344-29.541L65.1855-29.541L65.1855-17.041Q65.1855-14.5996 63.5498-12.9883Q61.9141-11.377 59.4238-11.377Q56.9336-11.377 55.3223-12.9883Q53.7109-14.5996 53.7109-17.041L53.7109-29.541L41.2109-29.541Q38.7695-29.541 37.1338-31.1768Q35.498-32.8125 35.498-35.2539Z"/>
  </g>
  <g id="Semibold-M" transform="matrix(1 0 0 1 1984.77 1126)">
   <path d="M29.0039 10.8887L87.9883 10.8887Q96.0938 10.8887 100.317 6.68945Q104.541 2.49023 104.541-5.51758L104.541-64.8438Q104.541-72.8516 100.317-77.0508Q96.0938-81.25 87.9883-81.25L29.0039-81.25Q20.8984-81.25 16.6748-77.0508Q12.4512-72.8516 12.4512-64.8438L12.4512-5.51758Q12.4512 2.49023 16.6748 6.68945Q20.8984 10.8887 29.0039 10.8887ZM34.8145-35.2051Q34.8145-37.5 36.2793-38.9648Q37.7441-40.4297 40.0391-40.4297L53.5156-40.4297L53.5156-53.9551Q53.5156-56.2012 54.9805-57.6904Q56.4453-59.1797 58.6914-59.1797Q60.9863-59.1797 62.4512-57.6904Q63.916-56.2012 63.916-53.9551L63.916-40.4297L77.4414-40.4297Q79.7363-40.4297 81.2012-38.9648Q82.666-37.5 82.666-35.2051Q82.666-32.959 81.1768-31.5186Q79.6875-30.0781 77.4414-30.0781L63.916-30.0781L63.916-16.5039Q63.916-14.2578 62.4512-12.793Q60.9863-11.3281 58.6914-11.3281Q56.4453-11.3281 54.9805-12.793Q53.5156-14.2578 53.5156-16.5039L53.5156-30.0781L40.0391-30.0781Q37.7441-30.0781 36.2793-31.5186Q34.8145-32.959 34.8145-35.2051Z"/>
  </g>
  <g id="Medium-M" transform="matrix(1 0 0 1 1688.52 1126)">
   <path d="M28.4668 10.4004L87.5977 10.4004Q95.5078 10.4004 99.5605 6.37207Q103.613 2.34375 103.613-5.46875L103.613-64.8926Q103.613-72.7539 99.5605-76.7578Q95.5078-80.7617 87.5977-80.7617L28.4668-80.7617Q20.5566-80.7617 16.5039-76.7578Q12.4512-72.7539 12.4512-64.8926L12.4512-5.46875Q12.4512 2.34375 16.5039 6.37207Q20.5566 10.4004 28.4668 10.4004ZM34.2773-35.2051Q34.2773-37.3047 35.6445-38.6719Q37.0117-40.0391 39.1113-40.0391L53.3691-40.0391L53.3691-54.2969Q53.3691-56.4453 54.6875-57.8125Q56.0059-59.1797 58.1055-59.1797Q60.2051-59.1797 61.5723-57.8125Q62.9395-56.4453 62.9395-54.2969L62.9395-40.0391L77.2461-40.0391Q79.3457-40.0391 80.6885-38.6719Q82.0312-37.3047 82.0312-35.2051Q82.0312-33.1543 80.6885-31.8115Q79.3457-30.4688 77.2461-30.4688L62.9395-30.4688L62.9395-16.1621Q62.9395-14.0625 61.5723-12.7197Q60.2051-11.377 58.1055-11.377Q56.0059-11.377 54.6875-12.7197Q53.3691-14.0625 53.3691-16.1621L53.3691-30.4688L39.1113-30.4688Q37.0117-30.4688 35.6445-31.8115Q34.2773-33.1543 34.2773-35.2051Z"/>
  </g>
  <g id="Regular-M" transform="matrix(1 0 0 1 1392.45 1126)">
   <path d="M27.7832 9.76562L87.0117 9.76562Q94.6777 9.76562 98.5107 5.98145Q102.344 2.19727 102.344-5.37109L102.344-64.9902Q102.344-72.5586 98.5107-76.3428Q94.6777-80.127 87.0117-80.127L27.7832-80.127Q20.1172-80.127 16.2842-76.3428Q12.4512-72.5586 12.4512-64.9902L12.4512-5.37109Q12.4512 2.19727 16.2842 5.98145Q20.1172 9.76562 27.7832 9.76562ZM33.5938-35.2051Q33.5938-37.1094 34.8145-38.3057Q36.0352-39.502 37.9395-39.502L53.2227-39.502L53.2227-54.7852Q53.2227-56.6895 54.3701-57.9102Q55.5176-59.1309 57.373-59.1309Q59.2773-59.1309 60.4736-57.9102Q61.6699-56.6895 61.6699-54.7852L61.6699-39.502L77.002-39.502Q78.9062-39.502 80.1025-38.3057Q81.2988-37.1094 81.2988-35.2051Q81.2988-33.3496 80.0781-32.2021Q78.8574-31.0547 77.002-31.0547L61.6699-31.0547L61.6699-15.7227Q61.6699-13.8184 60.4736-12.6221Q59.2773-11.4258 57.373-11.4258Q55.5176-11.4258 54.3701-12.6221Q53.2227-13.8184 53.2227-15.7227L53.2227-31.0547L37.9395-31.0547Q36.0352-31.0547 34.8145-32.2021Q33.5938-33.3496 33.5938-35.2051Z"/>
  </g>
  <g id="Light-M" transform="matrix(1 0 0 1 1096.47 1126)">
   <path d="M26.8555 9.0332L86.4746 9.0332Q93.6035 9.0332 97.2412 5.44434Q100.879 1.85547 100.879-5.22461L100.879-65.0879Q100.879-72.168 97.2412-75.7812Q93.6035-79.3945 86.4746-79.3945L26.8555-79.3945Q19.6777-79.3945 16.0645-75.8057Q12.4512-72.2168 12.4512-65.0879L12.4512-5.22461Q12.4512 1.85547 16.0645 5.44434Q19.6777 9.0332 26.8555 9.0332ZM33.6914-35.2051Q33.6914-36.6699 34.6191-37.5977Q35.5469-38.5254 37.0117-38.5254L53.418-38.5254L53.418-54.9316Q53.418-56.3965 54.3213-57.3242Q55.2246-58.252 56.5918-58.252Q58.0566-58.252 58.9844-57.3242Q59.9121-56.3965 59.9121-54.9316L59.9121-38.5254L76.3672-38.5254Q77.832-38.5254 78.7598-37.5977Q79.6875-36.6699 79.6875-35.2051Q79.6875-33.8379 78.7354-32.9346Q77.7832-32.0312 76.3672-32.0312L59.9121-32.0312L59.9121-15.5762Q59.9121-14.1113 58.9844-13.208Q58.0566-12.3047 56.5918-12.3047Q55.2246-12.3047 54.3213-13.2324Q53.418-14.1602 53.418-15.5762L53.418-32.0312L37.0117-32.0312Q35.5957-32.0312 34.6436-32.9346Q33.6914-33.8379 33.6914-35.2051Z"/>
  </g>
  <g id="Thin-M" transform="matrix(1 0 0 1 800.758 1126)">
   <path d="M25.5859 8.05664L85.6934 8.05664Q92.2363 8.05664 95.5566 4.71191Q98.877 1.36719 98.877-5.07812L98.877-65.2344Q98.877-71.6309 95.5566-75Q92.2363-78.3691 85.6934-78.3691L25.5859-78.3691Q19.1406-78.3691 15.7959-75.0488Q12.4512-71.7285 12.4512-65.2344L12.4512-5.07812Q12.4512 1.41602 15.7959 4.73633Q19.1406 8.05664 25.5859 8.05664ZM33.8379-35.2539Q33.8379-36.084 34.3994-36.6455Q34.9609-37.207 35.791-37.207L53.7598-37.207L53.7598-55.2246Q53.7598-56.0547 54.2969-56.6162Q54.834-57.1777 55.6152-57.1777Q56.4453-57.1777 57.0312-56.6162Q57.6172-56.0547 57.6172-55.2246L57.6172-37.207L75.5859-37.207Q76.4648-37.207 77.002-36.6455Q77.5391-36.084 77.5391-35.2539Q77.5391-34.4727 76.9775-33.9355Q76.416-33.3984 75.5859-33.3984L57.6172-33.3984L57.6172-15.4297Q57.6172-14.5508 57.0312-14.0137Q56.4453-13.4766 55.6152-13.4766Q54.834-13.4766 54.2969-14.0381Q53.7598-14.5996 53.7598-15.4297L53.7598-33.3984L35.791-33.3984Q34.9609-33.3984 34.3994-33.9355Q33.8379-34.4727 33.8379-35.2539Z"/>
  </g>
  <g id="Ultralight-M" transform="matrix(1 0 0 1 504.535 1126)">
   <path d="M24.9512 7.56836L85.3516 7.56836Q91.5039 7.56836 94.7021 4.3457Q97.9004 1.12305 97.9004-4.98047L97.9004-65.332Q97.9004-71.3867 94.7021-74.6338Q91.5039-77.8809 85.3516-77.8809L24.9512-77.8809Q18.8477-77.8809 15.6494-74.6826Q12.4512-71.4844 12.4512-65.332L12.4512-4.98047Q12.4512 1.2207 15.6494 4.39453Q18.8477 7.56836 24.9512 7.56836ZM33.9355-35.2539Q33.9355-35.791 34.3018-36.1816Q34.668-36.5723 35.2051-36.5723L53.9062-36.5723L53.9062-55.3223Q53.9062-55.8105 54.2969-56.2012Q54.6875-56.5918 55.127-56.5918Q55.6641-56.5918 56.0791-56.2256Q56.4941-55.8594 56.4941-55.3223L56.4941-36.5723L75.1953-36.5723Q75.7324-36.5723 76.0986-36.1816Q76.4648-35.791 76.4648-35.2539Q76.4648-34.8145 76.0742-34.4238Q75.6836-34.0332 75.1953-34.0332L56.4941-34.0332L56.4941-15.332Q56.4941-14.7949 56.0791-14.4287Q55.6641-14.0625 55.127-14.0625Q54.6875-14.0625 54.2969-14.4531Q53.9062-14.8438 53.9062-15.332L53.9062-34.0332L35.2051-34.0332Q34.7168-34.0332 34.3262-34.4238Q33.9355-34.8145 33.9355-35.2539Z"/>
  </g>
  <g id="Black-S" transform="matrix(1 0 0 1 2885.5 696)">
   <path d="M25 2.92969L70.8008 2.92969Q77.9785 2.92969 82.0068-1.09863Q86.0352-5.12695 86.0352-12.3047L86.0352-58.1055Q86.0352-65.2832 82.0068-69.3115Q77.9785-73.3398 70.8008-73.3398L25-73.3398Q17.8223-73.3398 13.7939-69.3115Q9.76562-65.2832 9.76562-58.1055L9.76562-12.3047Q9.76562-5.12695 13.7939-1.09863Q17.8223 2.92969 25 2.92969ZM29.5898-35.2539Q29.5898-37.7441 31.2256-39.4287Q32.8613-41.1133 35.2539-41.1133L42.5293-41.1133L42.5293-48.3887Q42.5293-50.8301 44.2139-52.4414Q45.8984-54.0527 48.3887-54.0527Q50.8789-54.0527 52.5635-52.4414Q54.248-50.8301 54.248-48.3887L54.248-41.1133L61.5234-41.1133Q63.9648-41.1133 65.5762-39.4287Q67.1875-37.7441 67.1875-35.2539Q67.1875-32.7637 65.5762-31.0791Q63.9648-29.3945 61.5234-29.3945L54.248-29.3945L54.248-22.1191Q54.248-19.7266 52.5635-18.0908Q50.8789-16.4551 48.3887-16.4551Q45.8984-16.4551 44.2139-18.0908Q42.5293-19.7266 42.5293-22.1191L42.5293-29.3945L35.2539-29.3945Q32.8613-29.3945 31.2256-31.0791Q29.5898-32.7637 29.5898-35.2539Z"/>
  </g>
  <g id="Heavy-S" transform="matrix(1 0 0 1 2589.4 696)">
   <path d="M24.3652 2.34375L70.2637 2.34375Q77.1973 2.34375 81.0059-1.46484Q84.8145-5.27344 84.8145-12.207L84.8145-58.2031Q84.8145-65.1367 81.0059-68.9453Q77.1973-72.7539 70.2637-72.7539L24.3652-72.7539Q17.3828-72.7539 13.5742-68.9453Q9.76562-65.1367 9.76562-58.2031L9.76562-12.207Q9.76562-5.27344 13.5742-1.46484Q17.3828 2.34375 24.3652 2.34375ZM28.8086-35.2539Q28.8086-37.5488 30.3223-39.0869Q31.8359-40.625 34.082-40.625L42.2852-40.625L42.2852-48.877Q42.2852-51.1719 43.8232-52.6611Q45.3613-54.1504 47.6562-54.1504Q50-54.1504 51.5381-52.6611Q53.0762-51.1719 53.0762-48.877L53.0762-40.625L61.3281-40.625Q63.5742-40.625 65.0635-39.0869Q66.5527-37.5488 66.5527-35.2539Q66.5527-32.959 65.0635-31.4209Q63.5742-29.8828 61.3281-29.8828L53.0762-29.8828L53.0762-21.6309Q53.0762-19.3848 51.5381-17.8955Q50-16.4062 47.6562-16.4062Q45.3613-16.4062 43.8232-17.8955Q42.2852-19.3848 42.2852-21.6309L42.2852-29.8828L34.082-29.8828Q31.8359-29.8828 30.3223-31.4209Q28.8086-32.959 28.8086-35.2539Z"/>
  </g>
  <g id="Bold-S" transform="matrix(1 0 0 1 2293.35 696)">
   <path d="M23.6328 1.66016L69.6289 1.66016Q76.3672 1.66016 79.9316-1.9043Q83.4961-5.46875 83.4961-12.1094L83.4961-58.3008Q83.4961-64.9902 79.9316-68.5303Q76.3672-72.0703 69.6289-72.0703L23.6328-72.0703Q16.9434-72.0703 13.3545-68.5303Q9.76562-64.9902 9.76562-58.3008L9.76562-12.1094Q9.76562-5.46875 13.3545-1.9043Q16.9434 1.66016 23.6328 1.66016ZM27.9297-35.2539Q27.9297-37.3535 29.2969-38.7451Q30.6641-40.1367 32.7148-40.1367L42.041-40.1367L42.041-49.4629Q42.041-51.5625 43.4082-52.9053Q44.7754-54.248 46.875-54.248Q48.9746-54.248 50.3418-52.9053Q51.709-51.5625 51.709-49.4629L51.709-40.1367L61.084-40.1367Q63.1348-40.1367 64.502-38.7451Q65.8691-37.3535 65.8691-35.2539Q65.8691-33.2031 64.502-31.8359Q63.1348-30.4688 61.084-30.4688L51.709-30.4688L51.709-21.0938Q51.709-19.043 50.3418-17.7002Q48.9746-16.3574 46.875-16.3574Q44.7754-16.3574 43.4082-17.7002Q42.041-19.043 42.041-21.0938L42.041-30.4688L32.7148-30.4688Q30.6641-30.4688 29.2969-31.8359Q27.9297-33.2031 27.9297-35.2539Z"/>
  </g>
  <g id="Semibold-S" transform="matrix(1 0 0 1 1997.12 696)">
   <path d="M23.0957 1.2207L69.1895 1.2207Q75.7324 1.2207 79.126-2.17285Q82.5195-5.56641 82.5195-12.0605L82.5195-58.3496Q82.5195-64.8438 79.126-68.2373Q75.7324-71.6309 69.1895-71.6309L23.0957-71.6309Q16.6016-71.6309 13.1836-68.2373Q9.76562-64.8438 9.76562-58.3496L9.76562-12.0605Q9.76562-5.56641 13.1836-2.17285Q16.6016 1.2207 23.0957 1.2207ZM27.2949-35.2051Q27.2949-37.1582 28.54-38.4277Q29.7852-39.6973 31.7383-39.6973L41.8457-39.6973L41.8457-49.8047Q41.8457-51.7578 43.0908-53.0029Q44.3359-54.248 46.2402-54.248Q48.2422-54.248 49.4873-53.0029Q50.7324-51.7578 50.7324-49.8047L50.7324-39.6973L60.8887-39.6973Q62.793-39.6973 64.0625-38.4277Q65.332-37.1582 65.332-35.2051Q65.332-33.3008 64.0625-32.0312Q62.793-30.7617 60.8887-30.7617L50.7324-30.7617L50.7324-20.6543Q50.7324-18.75 49.4873-17.5049Q48.2422-16.2598 46.2402-16.2598Q44.3359-16.2598 43.0908-17.5049Q41.8457-18.75 41.8457-20.6543L41.8457-30.7617L31.7383-30.7617Q29.7852-30.7617 28.54-32.0312Q27.2949-33.3008 27.2949-35.2051Z"/>
  </g>
  <g id="Medium-S" transform="matrix(1 0 0 1 1700.75 696)">
   <path d="M22.7051 0.830078L68.8965 0.830078Q75.293 0.830078 78.5645-2.41699Q81.8359-5.66406 81.8359-11.9629L81.8359-58.4473Q81.8359-64.7461 78.5645-67.9932Q75.293-71.2402 68.8965-71.2402L22.7051-71.2402Q16.3574-71.2402 13.0615-67.9932Q9.76562-64.7461 9.76562-58.4473L9.76562-11.9629Q9.76562-5.66406 13.0615-2.41699Q16.3574 0.830078 22.7051 0.830078ZM26.8066-35.2051Q26.8066-37.0605 27.9785-38.2324Q29.1504-39.4043 31.0059-39.4043L41.6504-39.4043L41.6504-50.0977Q41.6504-51.9531 42.8223-53.125Q43.9941-54.2969 45.8008-54.2969Q47.7051-54.2969 48.8525-53.125Q50-51.9531 50-50.0977L50-39.4043L60.7422-39.4043Q62.5488-39.4043 63.7451-38.2324Q64.9414-37.0605 64.9414-35.2051Q64.9414-33.3984 63.7451-32.2266Q62.5488-31.0547 60.7422-31.0547L50-31.0547L50-20.4102Q50-18.5547 48.8525-17.3828Q47.7051-16.2109 45.8008-16.2109Q43.9941-16.2109 42.8223-17.3828Q41.6504-18.5547 41.6504-20.4102L41.6504-31.0547L31.0059-31.0547Q29.1504-31.0547 27.9785-32.2266Q26.8066-33.3984 26.8066-35.2051Z"/>
  </g>
  <g id="Regular-S" transform="matrix(1 0 0 1 1404.51 696)">
   <path d="M22.2168 0.390625L68.457 0.390625Q74.707 0.390625 77.8076-2.68555Q80.9082-5.76172 80.9082-11.9141L80.9082-58.4961Q80.9082-64.6484 77.8076-67.7246Q74.707-70.8008 68.457-70.8008L22.2168-70.8008Q16.0156-70.8008 12.8906-67.7246Q9.76562-64.6484 9.76562-58.4961L9.76562-11.9141Q9.76562-5.76172 12.8906-2.68555Q16.0156 0.390625 22.2168 0.390625ZM26.2207-35.2051Q26.2207-36.9141 27.2949-37.9883Q28.3691-39.0625 30.127-39.0625L41.5039-39.0625L41.5039-50.4883Q41.5039-52.1973 42.5537-53.2715Q43.6035-54.3457 45.2637-54.3457Q47.0215-54.3457 48.0713-53.2715Q49.1211-52.1973 49.1211-50.4883L49.1211-39.0625L60.5957-39.0625Q62.2559-39.0625 63.3545-37.9883Q64.4531-36.9141 64.4531-35.2051Q64.4531-33.5449 63.3545-32.4951Q62.2559-31.4453 60.5957-31.4453L49.1211-31.4453L49.1211-20.0195Q49.1211-18.3105 48.0713-17.2363Q47.0215-16.1621 45.2637-16.1621Q43.6035-16.1621 42.5537-17.2363Q41.5039-18.3105 41.5039-20.0195L41.5039-31.4453L30.127-31.4453Q28.3691-31.4453 27.2949-32.4951Q26.2207-33.5449 26.2207-35.2051Z"/>
  </g>
  <g id="Light-S" transform="matrix(1 0 0 1 1108.46 696)">
   <path d="M21.3867-0.244141L67.9688-0.244141Q73.7793-0.244141 76.6846-3.17383Q79.5898-6.10352 79.5898-11.8164L79.5898-58.5938Q79.5898-64.3066 76.6846-67.2119Q73.7793-70.1172 67.9688-70.1172L21.3867-70.1172Q15.625-70.1172 12.6953-67.2119Q9.76562-64.3066 9.76562-58.5938L9.76562-11.8164Q9.76562-6.05469 12.6953-3.14941Q15.625-0.244141 21.3867-0.244141ZM26.3184-35.2051Q26.3184-36.5234 27.1484-37.3535Q27.9785-38.1836 29.2969-38.1836L41.6992-38.1836L41.6992-50.6348Q41.6992-51.9043 42.5293-52.7588Q43.3594-53.6133 44.6289-53.6133Q45.9473-53.6133 46.7773-52.7832Q47.6074-51.9531 47.6074-50.6348L47.6074-38.1836L60.0586-38.1836Q61.3281-38.1836 62.1826-37.3535Q63.0371-36.5234 63.0371-35.2051Q63.0371-33.9355 62.1826-33.1299Q61.3281-32.3242 60.0586-32.3242L47.6074-32.3242L47.6074-19.873Q47.6074-18.5547 46.7773-17.7246Q45.9473-16.8945 44.6289-16.8945Q43.3594-16.8945 42.5293-17.749Q41.6992-18.6035 41.6992-19.873L41.6992-32.3242L29.2969-32.3242Q27.9785-32.3242 27.1484-33.1299Q26.3184-33.9355 26.3184-35.2051Z"/>
  </g>
  <g id="Thin-S" transform="matrix(1 0 0 1 812.623 696)">
   <path d="M20.3125-1.12305L67.2852-1.12305Q72.5098-1.12305 75.1709-3.80859Q77.832-6.49414 77.832-11.6211L77.832-58.6914Q77.832-63.8184 75.1709-66.5283Q72.5098-69.2383 67.2852-69.2383L20.3125-69.2383Q15.0879-69.2383 12.4268-66.5771Q9.76562-63.916 9.76562-58.6914L9.76562-11.6211Q9.76562-6.44531 12.4268-3.78418Q15.0879-1.12305 20.3125-1.12305ZM26.4648-35.2539Q26.4648-36.0352 26.9531-36.5479Q27.4414-37.0605 28.2715-37.0605L42.041-37.0605L42.041-50.8301Q42.041-51.6113 42.5293-52.124Q43.0176-52.6367 43.75-52.6367Q44.5312-52.6367 45.0439-52.1484Q45.5566-51.6602 45.5566-50.8301L45.5566-37.0605L59.375-37.0605Q60.1562-37.0605 60.6445-36.5479Q61.1328-36.0352 61.1328-35.2539Q61.1328-34.5215 60.6201-34.0332Q60.1074-33.5449 59.375-33.5449L45.5566-33.5449L45.5566-19.7754Q45.5566-18.9453 45.0439-18.457Q44.5312-17.9688 43.75-17.9688Q43.0176-17.9688 42.5293-18.4814Q42.041-18.9941 42.041-19.7754L42.041-33.5449L28.2715-33.5449Q27.4902-33.5449 26.9775-34.0332Q26.4648-34.5215 26.4648-35.2539Z"/>
  </g>
  <g id="Ultralight-S" transform="matrix(1 0 0 1 516.352 696)">
   <path d="M19.7754-1.5625L66.9434-1.5625Q71.875-1.5625 74.4141-4.15039Q76.9531-6.73828 76.9531-11.5723L76.9531-58.7891Q76.9531-63.623 74.4141-66.1865Q71.875-68.75 66.9434-68.75L19.7754-68.75Q14.8438-68.75 12.3047-66.2109Q9.76562-63.6719 9.76562-58.7891L9.76562-11.5723Q9.76562-6.64062 12.3047-4.10156Q14.8438-1.5625 19.7754-1.5625ZM26.5625-35.2539Q26.5625-35.7422 26.8799-36.1084Q27.1973-36.4746 27.7344-36.4746L42.1875-36.4746L42.1875-50.9277Q42.1875-51.416 42.5537-51.7822Q42.9199-52.1484 43.3594-52.1484Q43.7988-52.1484 44.1895-51.8066Q44.5801-51.4648 44.5801-50.9277L44.5801-36.4746L59.0332-36.4746Q59.5703-36.4746 59.8877-36.1084Q60.2051-35.7422 60.2051-35.2539Q60.2051-34.8145 59.8633-34.4727Q59.5215-34.1309 59.0332-34.1309L44.5801-34.1309L44.5801-19.6777Q44.5801-19.1406 44.1895-18.7988Q43.7988-18.457 43.3594-18.457Q42.9199-18.457 42.5537-18.8232Q42.1875-19.1895 42.1875-19.6777L42.1875-34.1309L27.7344-34.1309Q27.2461-34.1309 26.9043-34.4727Q26.5625-34.8145 26.5625-35.2539Z"/>
  </g>
 </g>
</svg>
