<?xml version="1.0" encoding="UTF-8"?>
<!--Generator: Apple Native CoreSVG 149-->
<!DOCTYPE svg
PUBLIC "-//W3C//DTD SVG 1.1//EN"
       "http://www.w3.org/Graphics/SVG/1.1/DTD/svg11.dtd">
<svg version="1.1" xmlns="http://www.w3.org/2000/svg" xmlns:xlink="http://www.w3.org/1999/xlink" width="3300" height="2200">
 <!--glyph: "uni100129.medium", point size: 100.000000, font version: "Version 16.0d18e1", template writer version: "8"-->
 <g id="Notes">
  <rect height="2200" id="artboard" style="fill:white;opacity:1" width="3300" x="0" y="0"/>
  <line id="" style="fill:none;stroke:black;opacity:1;stroke-width:0.5;" x1="263" x2="3036" y1="292" y2="292"/>
  <text style="stroke:none;fill:black;font-family:-apple-system,&quot;SF Pro Display&quot;,&quot;SF Pro Text&quot;,Helvetica,sans-serif;font-weight:bold;" transform="matrix(1 0 0 1 263 322)">Weight/Scale Variations</text>
  <text style="stroke:none;fill:black;font-family:-apple-system,&quot;SF Pro Display&quot;,&quot;SF Pro Text&quot;,Helvetica,sans-serif;text-anchor:middle;" transform="matrix(1 0 0 1 559.711 322)">Ultralight</text>
  <text style="stroke:none;fill:black;font-family:-apple-system,&quot;SF Pro Display&quot;,&quot;SF Pro Text&quot;,Helvetica,sans-serif;text-anchor:middle;" transform="matrix(1 0 0 1 856.422 322)">Thin</text>
  <text style="stroke:none;fill:black;font-family:-apple-system,&quot;SF Pro Display&quot;,&quot;SF Pro Text&quot;,Helvetica,sans-serif;text-anchor:middle;" transform="matrix(1 0 0 1 1153.13 322)">Light</text>
  <text style="stroke:none;fill:black;font-family:-apple-system,&quot;SF Pro Display&quot;,&quot;SF Pro Text&quot;,Helvetica,sans-serif;text-anchor:middle;" transform="matrix(1 0 0 1 1449.84 322)">Regular</text>
  <text style="stroke:none;fill:black;font-family:-apple-system,&quot;SF Pro Display&quot;,&quot;SF Pro Text&quot;,Helvetica,sans-serif;text-anchor:middle;" transform="matrix(1 0 0 1 1746.56 322)">Medium</text>
  <text style="stroke:none;fill:black;font-family:-apple-system,&quot;SF Pro Display&quot;,&quot;SF Pro Text&quot;,Helvetica,sans-serif;text-anchor:middle;" transform="matrix(1 0 0 1 2043.27 322)">Semibold</text>
  <text style="stroke:none;fill:black;font-family:-apple-system,&quot;SF Pro Display&quot;,&quot;SF Pro Text&quot;,Helvetica,sans-serif;text-anchor:middle;" transform="matrix(1 0 0 1 2339.98 322)">Bold</text>
  <text style="stroke:none;fill:black;font-family:-apple-system,&quot;SF Pro Display&quot;,&quot;SF Pro Text&quot;,Helvetica,sans-serif;text-anchor:middle;" transform="matrix(1 0 0 1 2636.69 322)">Heavy</text>
  <text style="stroke:none;fill:black;font-family:-apple-system,&quot;SF Pro Display&quot;,&quot;SF Pro Text&quot;,Helvetica,sans-serif;text-anchor:middle;" transform="matrix(1 0 0 1 2933.4 322)">Black</text>
  <line id="" style="fill:none;stroke:black;opacity:1;stroke-width:0.5;" x1="263" x2="3036" y1="1903" y2="1903"/>
  <g id="" transform="matrix(1 0 0 1 263 1933)">
   <path d="M9.24805 0.830078C13.5547 0.830078 17.1387-2.74414 17.1387-7.05078C17.1387-11.3574 13.5449-14.9316 9.23828-14.9316C4.94141-14.9316 1.36719-11.3574 1.36719-7.05078C1.36719-2.74414 4.95117 0.830078 9.24805 0.830078ZM9.24805-0.654297C5.70312-0.654297 2.87109-3.49609 2.87109-7.05078C2.87109-10.6055 5.69336-13.4473 9.23828-13.4473C12.793-13.4473 15.6348-10.6055 15.6445-7.05078C15.6543-3.49609 12.8027-0.654297 9.24805-0.654297ZM6.39648-6.31836L8.50586-6.31836L8.50586-4.19922C8.50586-3.75977 8.79883-3.45703 9.22852-3.45703C9.67773-3.45703 9.9707-3.75977 9.9707-4.19922L9.9707-6.31836L12.0996-6.31836C12.5391-6.31836 12.8418-6.61133 12.8418-7.04102C12.8418-7.48047 12.5391-7.7832 12.0996-7.7832L9.9707-7.7832L9.9707-9.89258C9.9707-10.3418 9.67773-10.6445 9.22852-10.6445C8.79883-10.6445 8.50586-10.3418 8.50586-9.89258L8.50586-7.7832L6.39648-7.7832C5.94727-7.7832 5.64453-7.48047 5.64453-7.04102C5.64453-6.61133 5.94727-6.31836 6.39648-6.31836Z"/>
  </g>
  <g id="" transform="matrix(1 0 0 1 281.506 1933)">
   <path d="M11.709 2.91016C17.1582 2.91016 21.6699-1.61133 21.6699-7.05078C21.6699-12.5 17.1484-17.0117 11.6992-17.0117C6.25977-17.0117 1.74805-12.5 1.74805-7.05078C1.74805-1.61133 6.26953 2.91016 11.709 2.91016ZM11.709 1.25C7.09961 1.25 3.41797-2.44141 3.41797-7.05078C3.41797-11.6602 7.08984-15.3516 11.6992-15.3516C16.3086-15.3516 20-11.6602 20.0098-7.05078C20.0195-2.44141 16.3184 1.25 11.709 1.25ZM7.98828-6.23047L10.8789-6.23047L10.8789-3.32031C10.8789-2.83203 11.2109-2.5 11.6895-2.5C12.1777-2.5 12.5195-2.83203 12.5195-3.32031L12.5195-6.23047L15.4297-6.23047C15.918-6.23047 16.25-6.5625 16.25-7.04102C16.25-7.5293 15.918-7.87109 15.4297-7.87109L12.5195-7.87109L12.5195-10.7617C12.5195-11.2695 12.1777-11.6016 11.6895-11.6016C11.2109-11.6016 10.8789-11.2598 10.8789-10.7617L10.8789-7.87109L7.98828-7.87109C7.48047-7.87109 7.14844-7.5293 7.14844-7.04102C7.14844-6.5625 7.49023-6.23047 7.98828-6.23047Z"/>
  </g>
  <g id="" transform="matrix(1 0 0 1 304.924 1933)">
   <path d="M14.9707 5.66406C21.9336 5.66406 27.6953-0.0976562 27.6953-7.05078C27.6953-14.0137 21.9238-19.7754 14.9609-19.7754C8.00781-19.7754 2.25586-14.0137 2.25586-7.05078C2.25586-0.0976562 8.01758 5.66406 14.9707 5.66406ZM14.9707 3.84766C8.93555 3.84766 4.08203-1.01562 4.08203-7.05078C4.08203-13.0957 8.92578-17.9492 14.9609-17.9492C21.0059-17.9492 25.8594-13.0957 25.8691-7.05078C25.8789-1.01562 21.0156 3.84766 14.9707 3.84766ZM10.0586-6.14258L14.0625-6.14258L14.0625-2.12891C14.0625-1.5918 14.4336-1.2207 14.9512-1.2207C15.4883-1.2207 15.8594-1.5918 15.8594-2.12891L15.8594-6.14258L19.8828-6.14258C20.4102-6.14258 20.791-6.51367 20.791-7.03125C20.791-7.56836 20.4199-7.94922 19.8828-7.94922L15.8594-7.94922L15.8594-11.9531C15.8594-12.5098 15.4883-12.8809 14.9512-12.8809C14.4336-12.8809 14.0625-12.5 14.0625-11.9531L14.0625-7.94922L10.0586-7.94922C9.50195-7.94922 9.13086-7.56836 9.13086-7.03125C9.13086-6.51367 9.51172-6.14258 10.0586-6.14258Z"/>
  </g>
  <text style="stroke:none;fill:black;font-family:-apple-system,&quot;SF Pro Display&quot;,&quot;SF Pro Text&quot;,Helvetica,sans-serif;font-weight:bold;" transform="matrix(1 0 0 1 263 1953)">Design Variations</text>
  <text style="stroke:none;fill:black;font-family:-apple-system,&quot;SF Pro Display&quot;,&quot;SF Pro Text&quot;,Helvetica,sans-serif;" transform="matrix(1 0 0 1 263 1971)">Symbols are supported in up to nine weights and three scales.</text>
  <text style="stroke:none;fill:black;font-family:-apple-system,&quot;SF Pro Display&quot;,&quot;SF Pro Text&quot;,Helvetica,sans-serif;" transform="matrix(1 0 0 1 263 1989)">For optimal layout with text and other symbols, vertically align</text>
  <text style="stroke:none;fill:black;font-family:-apple-system,&quot;SF Pro Display&quot;,&quot;SF Pro Text&quot;,Helvetica,sans-serif;" transform="matrix(1 0 0 1 263 2007)">symbols with the adjacent text.</text>
  <line id="" style="fill:none;stroke:#00AEEF;stroke-width:0.5;opacity:1.0;" x1="776" x2="776" y1="1919" y2="1933"/>
  <g id="" transform="matrix(1 0 0 1 776 1933)">
   <path d="M3.31055 0.126953C3.82812 0.126953 4.08203-0.0683594 4.26758-0.605469L5.52734-4.0625L11.2891-4.0625L12.5488-0.605469C12.7344-0.0683594 12.9883 0.126953 13.4961 0.126953C14.0137 0.126953 14.3457-0.185547 14.3457-0.673828C14.3457-0.839844 14.3164-0.986328 14.2383-1.20117L9.6582-13.3887C9.43359-13.9941 9.0332-14.2871 8.4082-14.2871C7.80273-14.2871 7.39258-13.9941 7.17773-13.3984L2.59766-1.19141C2.51953-0.976562 2.49023-0.830078 2.49023-0.664062C2.49023-0.175781 2.80273 0.126953 3.31055 0.126953ZM6.00586-5.53711L8.37891-12.1094L8.42773-12.1094L10.8008-5.53711Z"/>
  </g>
  <line id="" style="fill:none;stroke:#00AEEF;stroke-width:0.5;opacity:1.0;" x1="792.836" x2="792.836" y1="1919" y2="1933"/>
  <text style="stroke:none;fill:black;font-family:-apple-system,&quot;SF Pro Display&quot;,&quot;SF Pro Text&quot;,Helvetica,sans-serif;font-weight:bold;" transform="matrix(1 0 0 1 776 1953)">Margins</text>
  <text style="stroke:none;fill:black;font-family:-apple-system,&quot;SF Pro Display&quot;,&quot;SF Pro Text&quot;,Helvetica,sans-serif;" transform="matrix(1 0 0 1 776 1971)">Leading and trailing margins on the left and right side of each symbol</text>
  <text style="stroke:none;fill:black;font-family:-apple-system,&quot;SF Pro Display&quot;,&quot;SF Pro Text&quot;,Helvetica,sans-serif;" transform="matrix(1 0 0 1 776 1989)">can be adjusted by modifying the x-location of the margin guidelines.</text>
  <text style="stroke:none;fill:black;font-family:-apple-system,&quot;SF Pro Display&quot;,&quot;SF Pro Text&quot;,Helvetica,sans-serif;" transform="matrix(1 0 0 1 776 2007)">Modifications are automatically applied proportionally to all</text>
  <text style="stroke:none;fill:black;font-family:-apple-system,&quot;SF Pro Display&quot;,&quot;SF Pro Text&quot;,Helvetica,sans-serif;" transform="matrix(1 0 0 1 776 2025)">scales and weights.</text>
  <g id="" transform="matrix(1 0 0 1 1289 1933)">
   <path d="M2.8418 1.86523L4.54102 3.57422C5.40039 4.44336 6.38672 4.38477 7.31445 3.35938L17.4902-7.85156C17.7539-7.76367 18.0273-7.7832 18.3398-7.8418L19.4043-8.03711L20.0684-7.36328L20.0293-6.80664C19.9902-6.30859 20.1172-5.92773 20.6055-5.44922L21.3672-4.70703C21.8457-4.22852 22.4609-4.19922 22.9297-4.66797L25.8398-7.58789C26.3086-8.05664 26.2891-8.65234 25.8105-9.13086L25.0391-9.89258C24.5605-10.3711 24.1895-10.5273 23.7109-10.4883L23.1348-10.4395L22.4902-11.0742L22.7344-12.1973C22.8613-12.7637 22.7051-13.2031 22.1191-13.7891L19.9219-15.9766C16.582-19.2969 12.1484-19.2188 9.25781-16.3281C8.83789-15.918 8.80859-15.3418 9.04297-14.9512C9.27734-14.5898 9.73633-14.3555 10.3809-14.5215C11.8457-14.8633 13.3691-14.9219 14.7949-13.9844L14.209-12.5293C14.0137-12.0508 13.9844-11.6504 14.1113-11.2891L3.04688-0.898438C2.06055 0.0195312 1.98242 0.996094 2.8418 1.86523ZM10.752-15.957C13.1836-17.7344 16.4746-17.4316 18.7012-15.2051L21.1328-12.793C21.3672-12.5586 21.4062-12.373 21.3379-12.0312L21.0156-10.5469L22.5195-9.0625L23.5059-9.12109C23.7598-9.13086 23.8379-9.11133 24.0332-8.91602L24.6094-8.33984L22.168-5.89844L21.5918-6.47461C21.3965-6.66992 21.3672-6.74805 21.377-7.01172L21.4453-7.98828L19.9512-9.47266L18.4277-9.21875C18.1055-9.15039 17.959-9.17969 17.7148-9.41406L15.7129-11.416C15.459-11.6504 15.4297-11.8164 15.5859-12.1875L16.4648-14.2773C14.9023-15.7324 12.8711-16.3574 10.8398-15.7617C10.6836-15.7227 10.625-15.8496 10.752-15.957ZM5.27344 2.30469L4.10156 1.14258C3.63281 0.683594 3.74023 0.341797 4.14062-0.0195312L14.9512-10.1953L16.416-8.71094L6.42578 2.27539C6.07422 2.67578 5.74219 2.77344 5.27344 2.30469Z"/>
  </g>
  <text style="stroke:none;fill:black;font-family:-apple-system,&quot;SF Pro Display&quot;,&quot;SF Pro Text&quot;,Helvetica,sans-serif;font-weight:bold;" transform="matrix(1 0 0 1 1289 1953)">Exporting</text>
  <text style="stroke:none;fill:black;font-family:-apple-system,&quot;SF Pro Display&quot;,&quot;SF Pro Text&quot;,Helvetica,sans-serif;" transform="matrix(1 0 0 1 1289 1971)">Symbols should be outlined when exporting to ensure the</text>
  <text style="stroke:none;fill:black;font-family:-apple-system,&quot;SF Pro Display&quot;,&quot;SF Pro Text&quot;,Helvetica,sans-serif;" transform="matrix(1 0 0 1 1289 1989)">design is preserved when submitting to Xcode.</text>
  <text id="template-version" style="stroke:none;fill:black;font-family:-apple-system,&quot;SF Pro Display&quot;,&quot;SF Pro Text&quot;,Helvetica,sans-serif;text-anchor:end;" transform="matrix(1 0 0 1 3036 1933)">Template v.2.0</text>
  <text style="stroke:none;fill:black;font-family:-apple-system,&quot;SF Pro Display&quot;,&quot;SF Pro Text&quot;,Helvetica,sans-serif;text-anchor:end;" transform="matrix(1 0 0 1 3036 1951)">Requires Xcode 12 or greater</text>
  <text style="stroke:none;fill:black;font-family:-apple-system,&quot;SF Pro Display&quot;,&quot;SF Pro Text&quot;,Helvetica,sans-serif;text-anchor:end;" transform="matrix(1 0 0 1 3036 1969)">Generated from arrow.down</text>
  <text style="stroke:none;fill:black;font-family:-apple-system,&quot;SF Pro Display&quot;,&quot;SF Pro Text&quot;,Helvetica,sans-serif;text-anchor:end;" transform="matrix(1 0 0 1 3036 1987)">Typeset at 100 points</text>
  <text style="stroke:none;fill:black;font-family:-apple-system,&quot;SF Pro Display&quot;,&quot;SF Pro Text&quot;,Helvetica,sans-serif;" transform="matrix(1 0 0 1 263 726)">Small</text>
  <text style="stroke:none;fill:black;font-family:-apple-system,&quot;SF Pro Display&quot;,&quot;SF Pro Text&quot;,Helvetica,sans-serif;" transform="matrix(1 0 0 1 263 1156)">Medium</text>
  <text style="stroke:none;fill:black;font-family:-apple-system,&quot;SF Pro Display&quot;,&quot;SF Pro Text&quot;,Helvetica,sans-serif;" transform="matrix(1 0 0 1 263 1586)">Large</text>
 </g>
 <g id="Guides">
  <g id="H-reference" style="fill:#27AAE1;stroke:none;" transform="matrix(1 0 0 1 339 696)">
   <path d="M0.976562 0L3.66211 0L12.9883-24.4629L45.752-24.4629L55.127 0L57.7637 0L30.6152-70.459L28.125-70.459ZM29.3457-67.1387L29.4434-67.1387L44.873-26.709L13.8672-26.709Z"/>
  </g>
  <line id="Baseline-S" style="fill:none;stroke:#27AAE1;opacity:1;stroke-width:0.5;" x1="263" x2="3036" y1="696" y2="696"/>
  <line id="Capline-S" style="fill:none;stroke:#27AAE1;opacity:1;stroke-width:0.5;" x1="263" x2="3036" y1="625.541" y2="625.541"/>
  <g id="H-reference" style="fill:#27AAE1;stroke:none;" transform="matrix(1 0 0 1 339 1126)">
   <path d="M0.976562 0L3.66211 0L12.9883-24.4629L45.752-24.4629L55.127 0L57.7637 0L30.6152-70.459L28.125-70.459ZM29.3457-67.1387L29.4434-67.1387L44.873-26.709L13.8672-26.709Z"/>
  </g>
  <line id="Baseline-M" style="fill:none;stroke:#27AAE1;opacity:1;stroke-width:0.5;" x1="263" x2="3036" y1="1126" y2="1126"/>
  <line id="Capline-M" style="fill:none;stroke:#27AAE1;opacity:1;stroke-width:0.5;" x1="263" x2="3036" y1="1055.54" y2="1055.54"/>
  <g id="H-reference" style="fill:#27AAE1;stroke:none;" transform="matrix(1 0 0 1 339 1556)">
   <path d="M0.976562 0L3.66211 0L12.9883-24.4629L45.752-24.4629L55.127 0L57.7637 0L30.6152-70.459L28.125-70.459ZM29.3457-67.1387L29.4434-67.1387L44.873-26.709L13.8672-26.709Z"/>
  </g>
  <line id="Baseline-L" style="fill:none;stroke:#27AAE1;opacity:1;stroke-width:0.5;" x1="263" x2="3036" y1="1556" y2="1556"/>
  <line id="Capline-L" style="fill:none;stroke:#27AAE1;opacity:1;stroke-width:0.5;" x1="263" x2="3036" y1="1485.54" y2="1485.54"/>
  <line id="left-margin" style="fill:none;stroke:#00AEEF;stroke-width:0.5;opacity:1.0;" x1="1400.38" x2="1400.38" y1="1030.79" y2="1150.12"/>
  <line id="right-margin" style="fill:none;stroke:#00AEEF;stroke-width:0.5;opacity:1.0;" x1="1499.31" x2="1499.31" y1="1030.79" y2="1150.12"/>
 </g>
 <g id="Symbols">
  <g id="Black-L" transform="matrix(1 0 0 1 2864.99 1556)">
   <path d="M68.4082-96.0938C61.5234-96.0938 56.9824-91.3574 56.9824-84.1309L56.9824-22.6562L57.5684-9.08203L48.2422-20.2637L35.0098-33.5938C32.959-35.7422 30.3711-37.3047 26.8555-37.3047C20.7031-37.3047 16.0645-32.8125 16.0645-26.3184C16.0645-23.3398 17.2852-20.5078 19.6289-18.1641L60.0098 22.3145C62.0117 24.3652 65.332 25.6348 68.4082 25.6348C71.4844 25.6348 74.7559 24.3652 76.8066 22.3145L117.236-18.1641C119.531-20.5078 120.752-23.3398 120.752-26.3184C120.752-32.8125 116.113-37.3047 110.01-37.3047C106.494-37.3047 103.906-35.7422 101.807-33.5938L88.5254-20.2637L79.1992-9.08203L79.834-22.6562L79.834-84.1309C79.834-91.3574 75.2441-96.0938 68.4082-96.0938Z"/>
  </g>
  <g id="Heavy-L" transform="matrix(1 0 0 1 2569.48 1556)">
   <path d="M67.1875-95.7031C61.2793-95.7031 57.3242-91.6016 57.3242-85.4492L57.3242-18.2129L57.9102-4.54102L46.6309-17.7246L32.4219-31.9336C30.6641-33.7891 28.3691-35.1074 25.3906-35.1074C20.0684-35.1074 16.0645-31.2012 16.0645-25.6348C16.0645-23.0469 17.0898-20.6055 19.1406-18.5547L59.9609 22.3633C61.7188 24.1699 64.5508 25.2441 67.1875 25.2441C69.873 25.2441 72.6562 24.1699 74.4629 22.3633L115.332-18.5547C117.334-20.6055 118.359-23.0469 118.359-25.6348C118.359-31.2012 114.355-35.1074 109.033-35.1074C106.055-35.1074 103.809-33.7891 102.002-31.9336L87.7441-17.7246L76.4648-4.54102L77.0508-18.2129L77.0508-85.4492C77.0508-91.6016 73.0957-95.7031 67.1875-95.7031Z"/>
  </g>
  <g id="Bold-L" transform="matrix(1 0 0 1 2274.11 1556)">
   <path d="M65.8691-95.2637C61.0352-95.2637 57.7637-91.8945 57.7637-86.9141L57.7637-13.2812L58.3008 0.439453L44.8242-14.8926L29.541-30.127C28.0762-31.6406 26.123-32.6172 23.7305-32.6172C19.3848-32.6172 16.0645-29.3945 16.0645-24.8047C16.0645-22.7051 16.8945-20.7031 18.5547-18.9941L59.9121 22.3633C61.4258 23.9258 63.6719 24.8047 65.8691 24.8047C68.0664 24.8047 70.3125 23.9258 71.8262 22.3633L113.184-18.9941C114.844-20.7031 115.674-22.7051 115.674-24.8047C115.674-29.3945 112.354-32.6172 108.008-32.6172C105.615-32.6172 103.662-31.6406 102.197-30.127L86.9141-14.8926L73.3887 0.439453L73.9258-13.2812L73.9258-86.9141C73.9258-91.8945 70.6543-95.2637 65.8691-95.2637Z"/>
  </g>
  <g id="Semibold-L" transform="matrix(1 0 0 1 1978.33 1556)">
   <path d="M64.9414-94.9707C60.8887-94.9707 58.0566-92.1387 58.0566-87.9395L58.0566-9.86328L58.5938 3.80859L43.5547-12.9883L27.5391-28.8574C26.3184-30.127 24.6094-30.957 22.6074-30.957C18.8965-30.957 16.0645-28.125 16.0645-24.2676C16.0645-22.4609 16.748-20.8008 18.2129-19.3359L59.8633 22.3633C61.1816 23.7305 63.0371 24.5117 64.9414 24.5117C66.7969 24.5117 68.7012 23.7305 70.0195 22.3633L111.719-19.3359C113.135-20.8008 113.818-22.4609 113.818-24.2676C113.818-28.125 111.035-30.957 107.275-30.957C105.273-30.957 103.613-30.127 102.344-28.8574L86.3281-12.9883L71.2891 3.80859L71.8262-9.86328L71.8262-87.9395C71.8262-92.1387 68.9941-94.9707 64.9414-94.9707Z"/>
  </g>
  <g id="Medium-L" transform="matrix(1 0 0 1 1682.3 1556)">
   <path d="M64.2578-94.7266C60.7422-94.7266 58.3008-92.2852 58.3008-88.7207L58.3008-7.27539L58.7891 6.34766L42.627-11.4746L26.0254-27.9297C24.9512-29.0039 23.4375-29.6387 21.7773-29.6387C18.5059-29.6387 16.0645-27.1973 16.0645-23.877C16.0645-22.2656 16.6504-20.8496 17.9199-19.5312L59.8145 22.3633C61.0352 23.584 62.5977 24.2676 64.2578 24.2676C65.8691 24.2676 67.4805 23.584 68.6523 22.3633L110.596-19.5312C111.816-20.8496 112.451-22.2656 112.451-23.877C112.451-27.1973 109.961-29.6387 106.738-29.6387C105.029-29.6387 103.516-29.0039 102.49-27.9297L85.8887-11.4746L69.7266 6.29883L70.166-7.27539L70.166-88.7207C70.166-92.2852 67.7246-94.7266 64.2578-94.7266Z"/>
  </g>
  <g id="Regular-L" transform="matrix(1 0 0 1 1386.51 1556)">
   <path d="M63.3301-94.4336C60.5469-94.4336 58.5938-92.4805 58.5938-89.7461L58.5938-3.85742L59.0332 9.61914L41.3574-9.57031L24.0234-26.709C23.1934-27.5391 21.9238-27.9785 20.6543-27.9785C18.0176-27.9785 16.0645-25.9766 16.0645-23.291C16.0645-22.0215 16.5039-20.9473 17.5293-19.873L59.7656 22.3633C60.791 23.4375 62.0117 23.9746 63.3301 23.9746C64.6484 23.9746 65.8691 23.4375 66.8945 22.3633L109.131-19.873C110.156-20.9473 110.596-22.0215 110.596-23.291C110.596-25.9766 108.643-27.9785 106.006-27.9785C104.736-27.9785 103.467-27.5391 102.637-26.709L85.3027-9.57031L67.627 9.57031L68.0664-3.85742L68.0664-89.7461C68.0664-92.4805 66.1133-94.4336 63.3301-94.4336Z"/>
  </g>
  <g id="Light-L" transform="matrix(1 0 0 1 1090.49 1556)">
   <path d="M62.6465-93.9941C60.5957-93.9941 59.1309-92.4805 59.1309-90.4785L59.1309-0.683594L59.4238 12.793L43.457-4.24805L22.0703-25.4883C21.4844-26.123 20.5078-26.4648 19.5312-26.4648C17.5781-26.4648 16.0645-24.9512 16.0645-22.9492C16.0645-21.9727 16.4062-21.1426 17.1875-20.3613L60.0098 22.3633C60.7422 23.1445 61.6211 23.5352 62.6465 23.5352C63.6719 23.5352 64.5508 23.1445 65.2832 22.3633L108.105-20.3613C108.887-21.1426 109.229-21.9727 109.229-22.9492C109.229-24.9512 107.715-26.4648 105.762-26.4648C104.785-26.4648 103.809-26.123 103.223-25.4883L81.8359-4.24805L65.8691 12.7441L66.1621-0.683594L66.1621-90.4785C66.1621-92.4805 64.6973-93.9941 62.6465-93.9941Z"/>
  </g>
  <g id="Thin-L" transform="matrix(1 0 0 1 794.679 1556)">
   <path d="M61.7188-93.4082C60.5957-93.4082 59.8145-92.5293 59.8145-91.4551L59.8145 3.51562L60.0098 16.8945L46.1914 2.7832L19.4824-23.9258C19.1895-24.2676 18.6035-24.4629 18.0176-24.4629C16.9434-24.4629 16.0645-23.6328 16.0645-22.4609C16.0645-21.875 16.2598-21.4355 16.6992-21.0449L60.3027 22.3145C60.6934 22.7539 61.1328 22.9492 61.7188 22.9492C62.3535 22.9492 62.793 22.7539 63.1836 22.3145L106.787-21.0449C107.227-21.4355 107.422-21.875 107.422-22.4609C107.422-23.6328 106.543-24.4629 105.469-24.4629C104.883-24.4629 104.297-24.2676 104.004-23.9258L77.2461 2.7832L63.4766 16.8945L63.6719 3.51562L63.6719-91.4551C63.6719-92.5293 62.8906-93.4082 61.7188-93.4082Z"/>
  </g>
  <g id="Ultralight-L" transform="matrix(1 0 0 1 498.432 1556)">
   <path d="M61.2793-93.1152C60.6445-93.1152 60.1562-92.5293 60.1562-91.9434L60.1562 5.66406L60.2539 18.9453L47.6074 6.34766L18.1641-23.1445C17.9688-23.291 17.627-23.4375 17.2363-23.4375C16.6504-23.4375 16.0645-22.9492 16.0645-22.2168C16.0645-21.8262 16.2109-21.582 16.4062-21.3379L60.4492 22.3145C60.6934 22.5586 60.8887 22.6562 61.2793 22.6562C61.6699 22.6562 61.8652 22.5586 62.1094 22.3145L106.152-21.3379C106.348-21.582 106.494-21.8262 106.494-22.2168C106.494-22.9492 105.908-23.4375 105.322-23.4375C104.932-23.4375 104.59-23.291 104.395-23.1445L74.9512 6.34766L62.3047 18.9453L62.4023 5.66406L62.4023-91.9434C62.4023-92.5293 61.9141-93.1152 61.2793-93.1152Z"/>
  </g>
  <g id="Black-M" transform="matrix(1 0 0 1 2879.13 1126)">
   <path d="M54.248-82.7148C47.998-82.7148 43.8965-78.3691 43.8965-71.7285L43.8965-29.7363L44.3848-19.5312L40.7227-24.2188L29.5898-35.498C27.7344-37.4512 25.4395-39.0137 22.168-39.0137C16.6992-39.0137 12.4512-35.0098 12.4512-29.1016C12.4512-26.3672 13.5742-23.7793 15.6738-21.7285L46.6797 9.375C48.4375 11.1328 51.4648 12.2559 54.248 12.2559C57.0312 12.2559 60.0586 11.1328 61.8164 9.375L92.8711-21.7285C94.9707-23.7793 96.0938-26.3672 96.0938-29.1016C96.0938-35.0098 91.8945-39.0137 86.377-39.0137C83.1055-39.0137 80.8594-37.4512 78.9551-35.498L67.7734-24.2188L64.1113-19.5312L64.5996-29.7363L64.5996-71.7285C64.5996-78.3691 60.498-82.7148 54.248-82.7148Z"/>
  </g>
  <g id="Heavy-M" transform="matrix(1 0 0 1 2583.54 1126)">
   <path d="M53.125-82.373C47.7539-82.373 44.1895-78.6621 44.1895-72.998L44.1895-25.7324L44.6777-15.2344L38.3789-22.8516L27.2949-34.0332C25.6348-35.7422 23.6328-36.9629 20.8496-36.9629C16.1133-36.9629 12.4512-33.4961 12.4512-28.418C12.4512-26.0742 13.4277-23.8281 15.2344-22.0215L46.582 9.375C48.1445 10.9375 50.7324 11.9141 53.125 11.9141C55.5176 11.9141 58.1055 10.9375 59.668 9.375L91.0645-22.0215C92.8711-23.8281 93.8477-26.0742 93.8477-28.418C93.8477-33.4961 90.1855-36.9629 85.4492-36.9629C82.666-36.9629 80.6641-35.7422 79.0039-34.0332L67.8711-22.8516L61.5723-15.2344L62.0605-25.7324L62.0605-72.998C62.0605-78.6621 58.4961-82.373 53.125-82.373Z"/>
  </g>
  <g id="Bold-M" transform="matrix(1 0 0 1 2288.1 1126)">
   <path d="M51.8555-82.0312C47.4609-82.0312 44.5312-78.9551 44.5312-74.4141L44.5312-21.2402L44.9707-10.6445L35.791-21.2891L24.6582-32.4219C23.3398-33.7402 21.6309-34.7168 19.4336-34.7168C15.4785-34.7168 12.4512-31.8359 12.4512-27.6367C12.4512-25.7324 13.2324-23.9258 14.7461-22.3633L46.4355 9.375C47.8027 10.7422 49.8535 11.5723 51.8555 11.5723C53.8574 11.5723 55.9082 10.7422 57.2754 9.375L89.0137-22.3633C90.5273-23.9258 91.3086-25.7324 91.3086-27.6367C91.3086-31.8359 88.2812-34.7168 84.3262-34.7168C82.1289-34.7168 80.4199-33.7402 79.0527-32.4219L67.9199-21.2891L58.7402-10.6445L59.2285-21.2402L59.2285-74.4141C59.2285-78.9551 56.25-82.0312 51.8555-82.0312Z"/>
  </g>
  <g id="Semibold-M" transform="matrix(1 0 0 1 1992.27 1126)">
   <path d="M50.9766-81.7871C47.2656-81.7871 44.7266-79.1992 44.7266-75.3418L44.7266-18.1641L45.166-7.56836L33.9844-20.2148L22.9004-31.25C21.7285-32.4219 20.2637-33.2031 18.4082-33.2031C14.9902-33.2031 12.4512-30.6641 12.4512-27.0996C12.4512-25.4883 13.0859-23.9258 14.4043-22.6074L46.3379 9.375C47.5586 10.6445 49.2676 11.3281 50.9766 11.3281C52.6855 11.3281 54.4434 10.6445 55.6152 9.375L87.5977-22.6074C88.916-23.9258 89.5508-25.4883 89.5508-27.0996C89.5508-30.6641 87.0117-33.2031 83.5938-33.2031C81.7383-33.2031 80.2246-32.4219 79.1016-31.25L67.9688-20.2148L56.8359-7.56836L57.2266-18.1641L57.2266-75.3418C57.2266-79.1992 54.6875-81.7871 50.9766-81.7871Z"/>
  </g>
  <g id="Medium-M" transform="matrix(1 0 0 1 1696.21 1126)">
   <path d="M50.3418-81.5918C47.1191-81.5918 44.873-79.3457 44.873-76.123L44.873-15.8203L45.3125-5.22461L32.6172-19.3848L21.5332-30.4199C20.5566-31.3965 19.1895-32.0312 17.627-32.0312C14.6484-32.0312 12.4512-29.7852 12.4512-26.709C12.4512-25.293 12.9883-23.9746 14.1602-22.8027L46.2891 9.42383C47.3633 10.5469 48.8281 11.1328 50.3418 11.1328C51.8066 11.1328 53.2715 10.5469 54.3457 9.42383L86.5234-22.8027C87.6953-23.9746 88.2324-25.293 88.2324-26.709C88.2324-29.7852 85.9863-32.0312 83.0078-32.0312C81.4941-32.0312 80.127-31.3965 79.1504-30.4199L68.0176-19.3848L55.3711-5.27344L55.7617-15.8203L55.7617-76.123C55.7617-79.3457 53.5156-81.5918 50.3418-81.5918Z"/>
  </g>
  <g id="Regular-M" transform="matrix(1 0 0 1 1400.38 1126)">
   <path d="M49.4629-81.3477C46.9238-81.3477 45.1172-79.5898 45.1172-77.0508L45.1172-12.7441L45.5078-2.29492L30.8594-18.3594L19.7266-29.2969C18.9941-30.0781 17.8223-30.4688 16.6504-30.4688C14.209-30.4688 12.4512-28.6133 12.4512-26.2207C12.4512-25.0488 12.8906-24.0234 13.8184-23.0469L46.1914 9.42383C47.1191 10.4004 48.2422 10.8887 49.4629 10.8887C50.6836 10.8887 51.8066 10.4004 52.7344 9.42383L85.1562-23.0469C86.084-24.0234 86.4746-25.0488 86.4746-26.2207C86.4746-28.6133 84.7168-30.4688 82.2754-30.4688C81.1035-30.4688 79.9805-30.0781 79.1992-29.2969L68.0664-18.3594L53.4668-2.34375L53.8086-12.7441L53.8086-77.0508C53.8086-79.5898 52.002-81.3477 49.4629-81.3477Z"/>
  </g>
  <g id="Light-M" transform="matrix(1 0 0 1 1104.28 1126)">
   <path d="M48.877-80.957C46.9238-80.957 45.5566-79.5898 45.5566-77.7344L45.5566-9.91211L45.8984 0.585938L32.7637-13.5742L17.9688-28.2227C17.4316-28.8086 16.5039-29.1016 15.625-29.1016C13.8184-29.1016 12.4512-27.7344 12.4512-25.8789C12.4512-25 12.793-24.2188 13.4766-23.4863L46.3867 9.375C47.1191 10.1074 47.9492 10.498 48.877 10.498C49.7559 10.498 50.5859 10.1074 51.3184 9.375L84.2285-23.4863C84.9609-24.2188 85.2539-25 85.2539-25.8789C85.2539-27.7344 83.8867-29.1016 82.0801-29.1016C81.2012-29.1016 80.3223-28.8086 79.7363-28.2227L64.9902-13.5742L51.8555 0.537109L52.1484-9.91211L52.1484-77.7344C52.1484-79.5898 50.7812-80.957 48.877-80.957Z"/>
  </g>
  <g id="Thin-M" transform="matrix(1 0 0 1 808.375 1126)">
   <path d="M48.0469-80.4199C46.9727-80.4199 46.1914-79.6387 46.1914-78.6133L46.1914-6.10352L46.3867 4.29688L35.2051-7.32422L15.6738-26.8066C15.332-27.1484 14.7949-27.2949 14.2578-27.2949C13.2812-27.2949 12.4512-26.5137 12.4512-25.4395C12.4512-24.9023 12.6465-24.4629 13.0371-24.0723L46.6797 9.375C47.0703 9.76562 47.5098 9.96094 48.0469 9.96094C48.584 9.96094 49.0234 9.76562 49.4141 9.375L83.0566-24.0723C83.4473-24.4629 83.6426-24.9023 83.6426-25.4395C83.6426-26.5137 82.8125-27.2949 81.8359-27.2949C81.2988-27.2949 80.7617-27.1484 80.4199-26.8066L60.8887-7.32422L49.707 4.29688L49.9023-6.10352L49.9023-78.6133C49.9023-79.6387 49.1211-80.4199 48.0469-80.4199Z"/>
  </g>
  <g id="Ultralight-M" transform="matrix(1 0 0 1 512.079 1126)">
   <path d="M47.6074-80.1758C46.9727-80.1758 46.4844-79.6387 46.4844-79.0527L46.4844-4.19922L46.6309 6.15234L36.4746-4.10156L14.4531-26.123C14.3066-26.2695 13.916-26.416 13.5742-26.416C12.9883-26.416 12.4512-25.9277 12.4512-25.1953C12.4512-24.8535 12.5488-24.6094 12.793-24.3652L46.8262 9.375C47.0215 9.61914 47.2656 9.7168 47.6074 9.7168C47.998 9.7168 48.2422 9.61914 48.4375 9.375L82.4707-24.3652C82.7148-24.6094 82.8125-24.8535 82.8125-25.1953C82.8125-25.9277 82.2754-26.416 81.6895-26.416C81.2988-26.416 80.957-26.2695 80.8105-26.123L58.7891-4.10156L48.6328 6.15234L48.7793-4.19922L48.7793-79.0527C48.7793-79.6387 48.291-80.1758 47.6074-80.1758Z"/>
  </g>
  <g id="Black-S" transform="matrix(1 0 0 1 2890.94 696)">
   <path d="M42.4316-72.4121C37.5977-72.4121 34.4238-69.043 34.4238-63.916L34.4238-30.6641L34.8145-22.6074L31.6895-26.5625L23.0469-35.3516C21.582-36.8652 19.8242-38.0371 17.2852-38.0371C13.0371-38.0371 9.76562-34.9609 9.76562-30.3711C9.76562-28.2715 10.6445-26.2695 12.2559-24.6582L36.5723-0.292969C37.9395 1.07422 40.2832 1.95312 42.4316 1.95312C44.5801 1.95312 46.9238 1.07422 48.291-0.292969L72.6562-24.6582C74.2676-26.2695 75.1465-28.2715 75.1465-30.3711C75.1465-34.9609 71.875-38.0371 67.627-38.0371C65.0879-38.0371 63.3301-36.8652 61.8652-35.3516L53.1738-26.5625L50.0488-22.6074L50.4395-30.6641L50.4395-63.916C50.4395-69.043 47.2656-72.4121 42.4316-72.4121Z"/>
  </g>
  <g id="Heavy-S" transform="matrix(1 0 0 1 2595.04 696)">
   <path d="M41.6504-72.2168C37.4023-72.2168 34.5703-69.2383 34.5703-64.7949L34.5703-27.9297L34.9609-19.6777L29.6875-26.0254L21.4844-34.3262C20.166-35.6445 18.6035-36.6699 16.4062-36.6699C12.6465-36.6699 9.76562-33.8867 9.76562-29.8828C9.76562-28.0273 10.5469-26.2695 11.9629-24.8535L36.4746-0.292969C37.6953 0.976562 39.7461 1.75781 41.6504 1.75781C43.5547 1.75781 45.5566 0.976562 46.8262-0.292969L71.3379-24.8535C72.8027-26.2695 73.5352-28.0273 73.5352-29.8828C73.5352-33.8867 70.6543-36.6699 66.8945-36.6699C64.6973-36.6699 63.1348-35.6445 61.8652-34.3262L53.5645-26.0254L48.291-19.6777L48.6816-27.9297L48.6816-64.7949C48.6816-69.2383 45.8496-72.2168 41.6504-72.2168Z"/>
  </g>
  <g id="Bold-S" transform="matrix(1 0 0 1 2299.21 696)">
   <path d="M40.7715-71.9727C37.207-71.9727 34.7656-69.5312 34.7656-65.8203L34.7656-24.8047L35.1562-16.5527L27.4902-25.4395L19.6777-33.2031C18.6035-34.3262 17.1875-35.1074 15.4297-35.1074C12.207-35.1074 9.76562-32.7148 9.76562-29.3457C9.76562-27.7832 10.4004-26.3184 11.6211-25.0488L36.3281-0.292969C37.4512 0.878906 39.1113 1.51367 40.7715 1.51367C42.3828 1.51367 44.043 0.878906 45.166-0.292969L69.9219-25.0488C71.1426-26.3184 71.7773-27.7832 71.7773-29.3457C71.7773-32.7148 69.3359-35.1074 66.1133-35.1074C64.3066-35.1074 62.9395-34.3262 61.8164-33.2031L54.0039-25.4395L46.3379-16.5527L46.7285-24.8047L46.7285-65.8203C46.7285-69.5312 44.3359-71.9727 40.7715-71.9727Z"/>
  </g>
  <g id="Semibold-S" transform="matrix(1 0 0 1 2003.13 696)">
   <path d="M40.1367-71.8262C37.0117-71.8262 34.9121-69.6777 34.9121-66.5039L34.9121-22.7051L35.2539-14.4043L25.9766-25.0488L18.457-32.4219C17.5293-33.3984 16.2598-34.0332 14.7461-34.0332C11.9141-34.0332 9.76562-31.8848 9.76562-28.9551C9.76562-27.5879 10.3027-26.3184 11.377-25.1953L36.2793-0.244141C37.2559 0.78125 38.7207 1.36719 40.1367 1.36719C41.5527 1.36719 43.0176 0.78125 43.9941-0.244141L68.8965-25.1953C69.9707-26.3184 70.5078-27.5879 70.5078-28.9551C70.5078-31.8848 68.4082-34.0332 65.5273-34.0332C64.0137-34.0332 62.7441-33.3984 61.8164-32.4219L54.2969-25.0488L45.0195-14.4531L45.3613-22.7051L45.3613-66.5039C45.3613-69.6777 43.2617-71.8262 40.1367-71.8262Z"/>
  </g>
  <g id="Medium-S" transform="matrix(1 0 0 1 1706.88 696)">
   <path d="M39.6484-71.7285C36.9141-71.7285 35.0098-69.8242 35.0098-66.9922L35.0098-21.0938L35.3516-12.8418L24.8047-24.707L17.5293-31.8359C16.6992-32.7148 15.5273-33.2031 14.209-33.2031C11.6699-33.2031 9.76562-31.2988 9.76562-28.7109C9.76562-27.4414 10.2539-26.3184 11.2305-25.293L36.1816-0.244141C37.1582 0.732422 38.3789 1.26953 39.6484 1.26953C40.9668 1.26953 42.1875 0.732422 43.1641-0.244141L68.1152-25.293C69.1406-26.3184 69.5801-27.4414 69.5801-28.7109C69.5801-31.2988 67.6758-33.2031 65.1367-33.2031C63.8184-33.2031 62.6465-32.7148 61.8164-31.8359L54.541-24.707L43.9941-12.8906L44.3359-21.0938L44.3359-66.9922C44.3359-69.8242 42.4316-71.7285 39.6484-71.7285Z"/>
  </g>
  <g id="Regular-S" transform="matrix(1 0 0 1 1410.78 696)">
   <path d="M39.0625-71.582C36.7676-71.582 35.1074-69.9707 35.1074-67.6758L35.1074-18.9941L35.4492-10.8398L23.291-24.3164L16.3086-31.1035C15.625-31.7871 14.5996-32.1777 13.5742-32.1777C11.377-32.1777 9.76562-30.4688 9.76562-28.3203C9.76562-27.2949 10.1562-26.3672 10.9863-25.4395L36.1328-0.244141C36.9629 0.634766 37.9883 1.12305 39.0625 1.12305C40.1367 1.12305 41.1621 0.634766 41.9922-0.244141L67.1387-25.4395C67.9688-26.3672 68.3594-27.2949 68.3594-28.3203C68.3594-30.4688 66.748-32.1777 64.5508-32.1777C63.5254-32.1777 62.5-31.7871 61.8164-31.1035L54.834-24.3164L42.6758-10.8398L43.0176-18.9941L43.0176-67.6758C43.0176-69.9707 41.3574-71.582 39.0625-71.582Z"/>
  </g>
  <g id="Light-S" transform="matrix(1 0 0 1 1114.61 696)">
   <path d="M38.5254-71.2402C36.7676-71.2402 35.5469-69.9707 35.5469-68.2617L35.5469-16.4551L35.791-8.25195L24.9512-20.1172L14.7949-30.127C14.2578-30.6641 13.4277-30.957 12.6465-30.957C10.9863-30.957 9.76562-29.6875 9.76562-28.0273C9.76562-27.2461 10.0586-26.5137 10.6934-25.8789L36.2793-0.244141C36.9141 0.390625 37.6953 0.78125 38.5254 0.78125C39.3555 0.78125 40.1367 0.390625 40.7715-0.244141L66.3574-25.8789C66.9922-26.5137 67.2852-27.2461 67.2852-28.0273C67.2852-29.6875 66.0645-30.957 64.4043-30.957C63.5742-30.957 62.793-30.6641 62.2559-30.127L52.0996-20.1172L41.2598-8.30078L41.5039-16.4551L41.5039-68.2617C41.5039-69.9707 40.2832-71.2402 38.5254-71.2402Z"/>
  </g>
  <g id="Thin-S" transform="matrix(1 0 0 1 818.605 696)">
   <path d="M37.793-70.752C36.8164-70.752 36.084-70.0195 36.084-69.043L36.084-13.1348L36.2305-4.98047L27.1484-14.5508L12.7441-28.9062C12.4512-29.1992 11.9629-29.3945 11.4746-29.3945C10.498-29.3945 9.76562-28.6621 9.76562-27.6367C9.76562-27.1484 9.96094-26.7578 10.3027-26.3672L36.5234-0.292969C36.9141 0.0976562 37.3047 0.292969 37.793 0.292969C38.3301 0.292969 38.7207 0.0976562 39.1113-0.292969L65.332-26.3672C65.6738-26.7578 65.8691-27.1484 65.8691-27.6367C65.8691-28.6621 65.0879-29.3945 64.1602-29.3945C63.6719-29.3945 63.1836-29.1992 62.8906-28.9062L48.4863-14.5508L39.3555-4.98047L39.5508-13.1348L39.5508-69.043C39.5508-70.0195 38.8184-70.752 37.793-70.752Z"/>
  </g>
  <g id="Ultralight-S" transform="matrix(1 0 0 1 522.284 696)">
   <path d="M37.4512-70.5078C36.8164-70.5078 36.377-70.0195 36.377-69.4336L36.377-11.4258L36.4746-3.32031L28.2715-11.6699L11.6699-28.2715C11.4746-28.4668 11.1816-28.5645 10.8398-28.5645C10.2539-28.5645 9.76562-28.125 9.76562-27.4414C9.76562-27.0996 9.86328-26.8555 10.1074-26.6602L36.6211-0.292969C36.8652-0.0488281 37.1094 0.0488281 37.4512 0.0488281C37.793 0.0488281 37.9883-0.0488281 38.2324-0.292969L64.7949-26.6602C64.9902-26.8555 65.0879-27.0996 65.0879-27.4414C65.0879-28.125 64.5996-28.5645 64.0625-28.5645C63.7207-28.5645 63.3789-28.4668 63.2324-28.2715L46.6309-11.6699L38.4277-3.32031L38.5254-11.4258L38.5254-69.4336C38.5254-70.0195 38.0859-70.5078 37.4512-70.5078Z"/>
  </g>
 </g>
</svg>
