<?xml version="1.0" encoding="UTF-8"?>
<!--Generator: Apple Native CoreSVG 175-->
<!DOCTYPE svg
PUBLIC "-//W3C//DTD SVG 1.1//EN"
       "http://www.w3.org/Graphics/SVG/1.1/DTD/svg11.dtd">
<svg version="1.1" xmlns="http://www.w3.org/2000/svg" xmlns:xlink="http://www.w3.org/1999/xlink" width="3300" height="2200">
 <!--glyph: "uni10012B.medium", point size: 100.0, font version: "17.0d11e1", template writer version: "65.1"-->
 <g id="Notes">
  <rect height="2200" id="artboard" style="fill:white;opacity:1" width="3300" x="0" y="0"/>
  <line style="fill:none;stroke:black;opacity:1;stroke-width:0.5;" x1="263" x2="3036" y1="292" y2="292"/>
  <text style="stroke:none;fill:black;font-family:sans-serif;font-size:13;font-weight:bold;" transform="matrix(1 0 0 1 263 322)">Weight/Scale Variations</text>
  <text style="stroke:none;fill:black;font-family:sans-serif;font-size:13;text-anchor:middle;" transform="matrix(1 0 0 1 559.711 322)">Ultralight</text>
  <text style="stroke:none;fill:black;font-family:sans-serif;font-size:13;text-anchor:middle;" transform="matrix(1 0 0 1 856.422 322)">Thin</text>
  <text style="stroke:none;fill:black;font-family:sans-serif;font-size:13;text-anchor:middle;" transform="matrix(1 0 0 1 1153.13 322)">Light</text>
  <text style="stroke:none;fill:black;font-family:sans-serif;font-size:13;text-anchor:middle;" transform="matrix(1 0 0 1 1449.84 322)">Regular</text>
  <text style="stroke:none;fill:black;font-family:sans-serif;font-size:13;text-anchor:middle;" transform="matrix(1 0 0 1 1746.56 322)">Medium</text>
  <text style="stroke:none;fill:black;font-family:sans-serif;font-size:13;text-anchor:middle;" transform="matrix(1 0 0 1 2043.27 322)">Semibold</text>
  <text style="stroke:none;fill:black;font-family:sans-serif;font-size:13;text-anchor:middle;" transform="matrix(1 0 0 1 2339.98 322)">Bold</text>
  <text style="stroke:none;fill:black;font-family:sans-serif;font-size:13;text-anchor:middle;" transform="matrix(1 0 0 1 2636.69 322)">Heavy</text>
  <text style="stroke:none;fill:black;font-family:sans-serif;font-size:13;text-anchor:middle;" transform="matrix(1 0 0 1 2933.4 322)">Black</text>
  <line style="fill:none;stroke:black;opacity:1;stroke-width:0.5;" x1="263" x2="3036" y1="1903" y2="1903"/>
  <g transform="matrix(1 0 0 1 263 1933)">
   <path d="M9.24805 0.830078Q10.8691 0.830078 12.2949 0.214844Q13.7207-0.400391 14.8096-1.49414Q15.8984-2.58789 16.5186-4.01367Q17.1387-5.43945 17.1387-7.05078Q17.1387-8.66211 16.5186-10.0879Q15.8984-11.5137 14.8047-12.6074Q13.7109-13.7012 12.2852-14.3164Q10.8594-14.9316 9.23828-14.9316Q7.62695-14.9316 6.20117-14.3164Q4.77539-13.7012 3.69141-12.6074Q2.60742-11.5137 1.9873-10.0879Q1.36719-8.66211 1.36719-7.05078Q1.36719-5.43945 1.9873-4.01367Q2.60742-2.58789 3.69629-1.49414Q4.78516-0.400391 6.21094 0.214844Q7.63672 0.830078 9.24805 0.830078ZM9.24805-0.654297Q7.91992-0.654297 6.7627-1.14746Q5.60547-1.64062 4.73145-2.51953Q3.85742-3.39844 3.36426-4.56055Q2.87109-5.72266 2.87109-7.05078Q2.87109-8.37891 3.35938-9.54102Q3.84766-10.7031 4.72168-11.582Q5.5957-12.4609 6.75293-12.9541Q7.91016-13.4473 9.23828-13.4473Q10.5762-13.4473 11.7334-12.9541Q12.8906-12.4609 13.7695-11.582Q14.6484-10.7031 15.1465-9.54102Q15.6445-8.37891 15.6445-7.05078Q15.6445-5.72266 15.1514-4.56055Q14.6582-3.39844 13.7842-2.51953Q12.9102-1.64062 11.748-1.14746Q10.5859-0.654297 9.24805-0.654297ZM5.6543-7.05078Q5.6543-6.72852 5.85938-6.52832Q6.06445-6.32812 6.40625-6.32812L8.51562-6.32812L8.51562-4.20898Q8.51562-3.88672 8.71094-3.67676Q8.90625-3.4668 9.23828-3.4668Q9.56055-3.4668 9.77051-3.67676Q9.98047-3.88672 9.98047-4.20898L9.98047-6.32812L12.0898-6.32812Q12.4219-6.32812 12.627-6.52832Q12.832-6.72852 12.832-7.05078Q12.832-7.38281 12.627-7.58789Q12.4219-7.79297 12.0898-7.79297L9.98047-7.79297L9.98047-9.90234Q9.98047-10.2344 9.77051-10.4443Q9.56055-10.6543 9.23828-10.6543Q8.90625-10.6543 8.71094-10.4443Q8.51562-10.2344 8.51562-9.90234L8.51562-7.79297L6.40625-7.79297Q6.06445-7.79297 5.85938-7.58789Q5.6543-7.38281 5.6543-7.05078Z"/>
  </g>
  <g transform="matrix(1 0 0 1 281.867 1933)">
   <path d="M11.709 2.91016Q13.75 2.91016 15.5518 2.12891Q17.3535 1.34766 18.7305-0.0292969Q20.1074-1.40625 20.8887-3.20801Q21.6699-5.00977 21.6699-7.05078Q21.6699-9.0918 20.8887-10.8936Q20.1074-12.6953 18.7305-14.0723Q17.3535-15.4492 15.5469-16.2305Q13.7402-17.0117 11.6992-17.0117Q9.6582-17.0117 7.85645-16.2305Q6.05469-15.4492 4.68262-14.0723Q3.31055-12.6953 2.5293-10.8936Q1.74805-9.0918 1.74805-7.05078Q1.74805-5.00977 2.5293-3.20801Q3.31055-1.40625 4.6875-0.0292969Q6.06445 1.34766 7.86621 2.12891Q9.66797 2.91016 11.709 2.91016ZM11.709 1.25Q9.98047 1.25 8.47656 0.605469Q6.97266-0.0390625 5.83496-1.17676Q4.69727-2.31445 4.05762-3.81836Q3.41797-5.32227 3.41797-7.05078Q3.41797-8.7793 4.05762-10.2832Q4.69727-11.7871 5.83008-12.9297Q6.96289-14.0723 8.4668-14.7119Q9.9707-15.3516 11.6992-15.3516Q13.4277-15.3516 14.9316-14.7119Q16.4355-14.0723 17.5781-12.9297Q18.7207-11.7871 19.3652-10.2832Q20.0098-8.7793 20.0098-7.05078Q20.0098-5.32227 19.3701-3.81836Q18.7305-2.31445 17.5928-1.17676Q16.4551-0.0390625 14.9463 0.605469Q13.4375 1.25 11.709 1.25ZM7.17773-7.05078Q7.17773-6.69922 7.41211-6.47461Q7.64648-6.25 8.01758-6.25L10.8887-6.25L10.8887-3.36914Q10.8887-2.99805 11.1133-2.76855Q11.3379-2.53906 11.6895-2.53906Q12.0605-2.53906 12.29-2.76855Q12.5195-2.99805 12.5195-3.36914L12.5195-6.25L15.4004-6.25Q15.7715-6.25 16.001-6.47461Q16.2305-6.69922 16.2305-7.05078Q16.2305-7.42188 16.001-7.65137Q15.7715-7.88086 15.4004-7.88086L12.5195-7.88086L12.5195-10.752Q12.5195-11.1328 12.29-11.3623Q12.0605-11.5918 11.6895-11.5918Q11.3379-11.5918 11.1133-11.3574Q10.8887-11.123 10.8887-10.752L10.8887-7.88086L8.01758-7.88086Q7.63672-7.88086 7.40723-7.65137Q7.17773-7.42188 7.17773-7.05078Z"/>
  </g>
  <g transform="matrix(1 0 0 1 305.646 1933)">
   <path d="M14.9707 5.66406Q17.0605 5.66406 18.96 5.01465Q20.8594 4.36523 22.4512 3.19336Q24.043 2.02148 25.2197 0.429688Q26.3965-1.16211 27.0459-3.06641Q27.6953-4.9707 27.6953-7.05078Q27.6953-9.14062 27.0459-11.04Q26.3965-12.9395 25.2197-14.5312Q24.043-16.123 22.4512-17.2998Q20.8594-18.4766 18.9551-19.126Q17.0508-19.7754 14.9609-19.7754Q12.8711-19.7754 10.9717-19.126Q9.07227-18.4766 7.48535-17.2998Q5.89844-16.123 4.72168-14.5312Q3.54492-12.9395 2.90039-11.04Q2.25586-9.14062 2.25586-7.05078Q2.25586-4.9707 2.90527-3.06641Q3.55469-1.16211 4.72656 0.429688Q5.89844 2.02148 7.49023 3.19336Q9.08203 4.36523 10.9814 5.01465Q12.8809 5.66406 14.9707 5.66406ZM14.9707 3.84766Q13.1641 3.84766 11.5283 3.2959Q9.89258 2.74414 8.53516 1.74805Q7.17773 0.751953 6.17676-0.610352Q5.17578-1.97266 4.62891-3.6084Q4.08203-5.24414 4.08203-7.05078Q4.08203-8.86719 4.62891-10.5029Q5.17578-12.1387 6.17188-13.501Q7.16797-14.8633 8.52539-15.8594Q9.88281-16.8555 11.5186-17.4023Q13.1543-17.9492 14.9609-17.9492Q16.7773-17.9492 18.4131-17.4023Q20.0488-16.8555 21.4111-15.8594Q22.7734-14.8633 23.7695-13.501Q24.7656-12.1387 25.3174-10.5029Q25.8691-8.86719 25.8691-7.05078Q25.8789-5.24414 25.332-3.6084Q24.7852-1.97266 23.7842-0.610352Q22.7832 0.751953 21.4209 1.74805Q20.0586 2.74414 18.4229 3.2959Q16.7871 3.84766 14.9707 3.84766ZM9.19922-7.05078Q9.19922-6.66992 9.45801-6.4209Q9.7168-6.17188 10.1172-6.17188L14.0625-6.17188L14.0625-2.2168Q14.0625-1.81641 14.3115-1.55762Q14.5605-1.29883 14.9512-1.29883Q15.3516-1.29883 15.6104-1.55273Q15.8691-1.80664 15.8691-2.2168L15.8691-6.17188L19.8242-6.17188Q20.2246-6.17188 20.4785-6.4209Q20.7324-6.66992 20.7324-7.05078Q20.7324-7.46094 20.4785-7.71484Q20.2246-7.96875 19.8242-7.96875L15.8691-7.96875L15.8691-11.9141Q15.8691-12.3242 15.6104-12.583Q15.3516-12.8418 14.9512-12.8418Q14.5605-12.8418 14.3115-12.583Q14.0625-12.3242 14.0625-11.9141L14.0625-7.96875L10.1172-7.96875Q9.70703-7.96875 9.45312-7.71484Q9.19922-7.46094 9.19922-7.05078Z"/>
  </g>
  <text style="stroke:none;fill:black;font-family:sans-serif;font-size:13;font-weight:bold;" transform="matrix(1 0 0 1 263 1953)">Design Variations</text>
  <text style="stroke:none;fill:black;font-family:sans-serif;font-size:13;" transform="matrix(1 0 0 1 263 1971)">Symbols are supported in up to nine weights and three scales.</text>
  <text style="stroke:none;fill:black;font-family:sans-serif;font-size:13;" transform="matrix(1 0 0 1 263 1989)">For optimal layout with text and other symbols, vertically align</text>
  <text style="stroke:none;fill:black;font-family:sans-serif;font-size:13;" transform="matrix(1 0 0 1 263 2007)">symbols with the adjacent text.</text>
  <line style="fill:none;stroke:#00AEEF;stroke-width:0.5;opacity:1.0;" x1="776" x2="776" y1="1919" y2="1933"/>
  <g transform="matrix(1 0 0 1 776 1933)">
   <path d="M3.31055 0.15625Q3.70117 0.15625 3.91602-0.00976562Q4.13086-0.175781 4.26758-0.585938L5.52734-4.0332L11.2891-4.0332L12.5488-0.585938Q12.6855-0.175781 12.9004-0.00976562Q13.1152 0.15625 13.4961 0.15625Q13.8867 0.15625 14.1162-0.0585938Q14.3457-0.273438 14.3457-0.644531Q14.3457-0.869141 14.2383-1.17188L9.6582-13.3691Q9.48242-13.8184 9.17969-14.043Q8.87695-14.2676 8.4082-14.2676Q7.5-14.2676 7.17773-13.3789L2.59766-1.16211Q2.49023-0.859375 2.49023-0.634766Q2.49023-0.263672 2.70996-0.0537109Q2.92969 0.15625 3.31055 0.15625ZM6.00586-5.51758L8.37891-12.0898L8.42773-12.0898L10.8008-5.51758Z"/>
  </g>
  <line style="fill:none;stroke:#00AEEF;stroke-width:0.5;opacity:1.0;" x1="793.197" x2="793.197" y1="1919" y2="1933"/>
  <text style="stroke:none;fill:black;font-family:sans-serif;font-size:13;font-weight:bold;" transform="matrix(1 0 0 1 776 1953)">Margins</text>
  <text style="stroke:none;fill:black;font-family:sans-serif;font-size:13;" transform="matrix(1 0 0 1 776 1971)">Leading and trailing margins on the left and right side of each symbol</text>
  <text style="stroke:none;fill:black;font-family:sans-serif;font-size:13;" transform="matrix(1 0 0 1 776 1989)">can be adjusted by modifying the x-location of the margin guidelines.</text>
  <text style="stroke:none;fill:black;font-family:sans-serif;font-size:13;" transform="matrix(1 0 0 1 776 2007)">Modifications are automatically applied proportionally to all</text>
  <text style="stroke:none;fill:black;font-family:sans-serif;font-size:13;" transform="matrix(1 0 0 1 776 2025)">scales and weights.</text>
  <g transform="matrix(1 0 0 1 1289 1933)">
   <path d="M2.8418 1.86523L4.54102 3.57422Q5.18555 4.22852 5.90332 4.17969Q6.62109 4.13086 7.31445 3.35938L18.0078-8.42773L17.041-9.4043L6.42578 2.27539Q6.16211 2.57812 5.89355 2.61719Q5.625 2.65625 5.27344 2.30469L4.10156 1.14258Q3.75 0.791016 3.79395 0.522461Q3.83789 0.253906 4.14062-0.0195312L15.6152-10.8203L14.6387-11.7871L3.04688-0.898438Q2.30469-0.214844 2.25098 0.498047Q2.19727 1.21094 2.8418 1.86523ZM9.25781-16.3281Q8.94531-16.0254 8.90625-15.6348Q8.86719-15.2441 9.04297-14.9512Q9.21875-14.6777 9.55566-14.541Q9.89258-14.4043 10.3809-14.5215Q11.4746-14.7754 12.5977-14.7314Q13.7207-14.6875 14.7949-13.9844L14.209-12.5293Q13.9551-11.9043 14.0674-11.4404Q14.1797-10.9766 14.5801-10.5664L16.875-8.25195Q17.2363-7.88086 17.5781-7.82227Q17.9199-7.76367 18.3398-7.8418L19.4043-8.03711L20.0684-7.36328L20.0293-6.80664Q20-6.43555 20.1221-6.12305Q20.2441-5.81055 20.6055-5.44922L21.3672-4.70703Q21.7285-4.3457 22.1533-4.33105Q22.5781-4.31641 22.9297-4.66797L25.8398-7.58789Q26.1914-7.93945 26.1816-8.35449Q26.1719-8.76953 25.8105-9.13086L25.0391-9.89258Q24.6875-10.2539 24.3799-10.3857Q24.0723-10.5176 23.7109-10.4883L23.1348-10.4395L22.4902-11.0742L22.7344-12.1973Q22.832-12.6172 22.6953-12.9834Q22.5586-13.3496 22.1191-13.7891L19.9219-15.9766Q18.6719-17.2168 17.2607-17.8369Q15.8496-18.457 14.4189-18.4814Q12.9883-18.5059 11.665-17.959Q10.3418-17.4121 9.25781-16.3281ZM10.752-15.957Q11.6602-16.6211 12.7002-16.9043Q13.7402-17.1875 14.8047-17.085Q15.8691-16.9824 16.8701-16.5137Q17.8711-16.0449 18.7012-15.2051L21.1328-12.793Q21.3086-12.6172 21.3525-12.4512Q21.3965-12.2852 21.3379-12.0312L21.0156-10.5469L22.5195-9.0625L23.5059-9.12109Q23.6914-9.13086 23.7891-9.09668Q23.8867-9.0625 24.0332-8.91602L24.6094-8.33984L22.168-5.89844L21.5918-6.47461Q21.4453-6.62109 21.4062-6.71875Q21.3672-6.81641 21.377-7.01172L21.4453-7.98828L19.9512-9.47266L18.4277-9.21875Q18.1836-9.16992 18.042-9.2041Q17.9004-9.23828 17.7148-9.41406L15.7129-11.416Q15.5176-11.5918 15.4932-11.7529Q15.4688-11.9141 15.5859-12.1875L16.4648-14.2773Q15.293-15.3711 13.8281-15.791Q12.3633-16.2109 10.8398-15.7617Q10.7227-15.7324 10.6885-15.8057Q10.6543-15.8789 10.752-15.957Z"/>
  </g>
  <text style="stroke:none;fill:black;font-family:sans-serif;font-size:13;font-weight:bold;" transform="matrix(1 0 0 1 1289 1953)">Exporting</text>
  <text style="stroke:none;fill:black;font-family:sans-serif;font-size:13;" transform="matrix(1 0 0 1 1289 1971)">Symbols should be outlined when exporting to ensure the</text>
  <text style="stroke:none;fill:black;font-family:sans-serif;font-size:13;" transform="matrix(1 0 0 1 1289 1989)">design is preserved when submitting to Xcode.</text>
  <text id="template-version" style="stroke:none;fill:black;font-family:sans-serif;font-size:13;text-anchor:end;" transform="matrix(1 0 0 1 3036 1933)">Template v.2.0</text>
  <text style="stroke:none;fill:black;font-family:sans-serif;font-size:13;text-anchor:end;" transform="matrix(1 0 0 1 3036 1951)">Requires Xcode 13 or greater</text>
  <text id="descriptive-name" style="stroke:none;fill:black;font-family:sans-serif;font-size:13;text-anchor:end;" transform="matrix(1 0 0 1 3036 1969)">Generated from arrow.right</text>
  <text style="stroke:none;fill:black;font-family:sans-serif;font-size:13;text-anchor:end;" transform="matrix(1 0 0 1 3036 1987)">Typeset at 100 points</text>
  <text style="stroke:none;fill:black;font-family:sans-serif;font-size:13;" transform="matrix(1 0 0 1 263 726)">Small</text>
  <text style="stroke:none;fill:black;font-family:sans-serif;font-size:13;" transform="matrix(1 0 0 1 263 1156)">Medium</text>
  <text style="stroke:none;fill:black;font-family:sans-serif;font-size:13;" transform="matrix(1 0 0 1 263 1586)">Large</text>
 </g>
 <g id="Guides">
  <g id="H-reference" style="fill:#27AAE1;stroke:none;" transform="matrix(1 0 0 1 339 696)">
   <path d="M0.976562 0L3.66211 0L29.3457-67.1387L30.0293-67.1387L30.0293-70.459L28.125-70.459ZM11.6699-24.4629L46.9727-24.4629L46.2402-26.709L12.4512-26.709ZM55.127 0L57.7637 0L30.6152-70.459L29.4434-70.459L29.4434-67.1387Z"/>
  </g>
  <line id="Baseline-S" style="fill:none;stroke:#27AAE1;opacity:1;stroke-width:0.5;" x1="263" x2="3036" y1="696" y2="696"/>
  <line id="Capline-S" style="fill:none;stroke:#27AAE1;opacity:1;stroke-width:0.5;" x1="263" x2="3036" y1="625.541" y2="625.541"/>
  <g id="H-reference" style="fill:#27AAE1;stroke:none;" transform="matrix(1 0 0 1 339 1126)">
   <path d="M0.976562 0L3.66211 0L29.3457-67.1387L30.0293-67.1387L30.0293-70.459L28.125-70.459ZM11.6699-24.4629L46.9727-24.4629L46.2402-26.709L12.4512-26.709ZM55.127 0L57.7637 0L30.6152-70.459L29.4434-70.459L29.4434-67.1387Z"/>
  </g>
  <line id="Baseline-M" style="fill:none;stroke:#27AAE1;opacity:1;stroke-width:0.5;" x1="263" x2="3036" y1="1126" y2="1126"/>
  <line id="Capline-M" style="fill:none;stroke:#27AAE1;opacity:1;stroke-width:0.5;" x1="263" x2="3036" y1="1055.54" y2="1055.54"/>
  <g id="H-reference" style="fill:#27AAE1;stroke:none;" transform="matrix(1 0 0 1 339 1556)">
   <path d="M0.976562 0L3.66211 0L29.3457-67.1387L30.0293-67.1387L30.0293-70.459L28.125-70.459ZM11.6699-24.4629L46.9727-24.4629L46.2402-26.709L12.4512-26.709ZM55.127 0L57.7637 0L30.6152-70.459L29.4434-70.459L29.4434-67.1387Z"/>
  </g>
  <line id="Baseline-L" style="fill:none;stroke:#27AAE1;opacity:1;stroke-width:0.5;" x1="263" x2="3036" y1="1556" y2="1556"/>
  <line id="Capline-L" style="fill:none;stroke:#27AAE1;opacity:1;stroke-width:0.5;" x1="263" x2="3036" y1="1485.54" y2="1485.54"/>
  <line id="left-margin" style="fill:none;stroke:#00AEEF;stroke-width:0.5;opacity:1.0;" x1="1392.06" x2="1392.06" y1="1030.79" y2="1150.12"/>
  <line id="right-margin" style="fill:none;stroke:#00AEEF;stroke-width:0.5;opacity:1.0;" x1="1507.63" x2="1507.63" y1="1030.79" y2="1150.12"/>
 </g>
 <g id="Symbols">
  <g id="Black-L" transform="matrix(1 0 0 1 2854.32 1556)">
   <path d="M142.09-35.5469Q142.09-40.625 138.672-43.9453L98.1934-84.375Q96.4355-86.1328 94.3848-87.0361Q92.334-87.9395 90.332-87.9395Q85.2051-87.9395 82.1289-84.8389Q79.0527-81.7383 79.0527-77.1484Q79.0527-74.5117 80.1025-72.5342Q81.1523-70.5566 82.7637-68.9941L96.0938-55.7129L115.088-38.1836L120.508-45.5566L93.2617-46.9727L28.0762-46.9727Q22.6562-46.9727 19.3604-43.8477Q16.0645-40.7227 16.0645-35.5469Q16.0645-30.4199 19.3604-27.2705Q22.6562-24.1211 28.0762-24.1211L93.2617-24.1211L120.508-25.5859L115.088-32.9102L96.0938-15.4297L82.7637-2.19727Q81.1523-0.634766 80.1025 1.36719Q79.0527 3.36914 79.0527 6.00586Q79.0527 10.5957 82.1289 13.6719Q85.2051 16.748 90.332 16.748Q94.6289 16.748 98.1934 13.2324L138.672-27.1484Q142.09-30.5176 142.09-35.5469Z"/>
  </g>
  <g id="Heavy-L" transform="matrix(1 0 0 1 2558.69 1556)">
   <path d="M139.941-35.498Q139.941-39.8438 136.963-42.7246L96.1426-83.5449Q94.5801-85.1074 92.7979-85.8887Q91.0156-86.6699 89.2578-86.6699Q84.8633-86.6699 82.2021-83.9844Q79.541-81.2988 79.541-77.3438Q79.541-75.0977 80.4199-73.3643Q81.2988-71.6309 82.666-70.3125L96.9238-56.0547L116.797-37.6953L121.191-43.9941L95.8496-45.3125L26.3672-45.3125Q21.7285-45.3125 18.8965-42.627Q16.0645-39.9414 16.0645-35.498Q16.0645-31.0547 18.8965-28.3447Q21.7285-25.6348 26.3672-25.6348L95.8496-25.6348L121.191-27.002L116.797-33.252L96.9238-14.9414L82.666-0.732422Q81.2988 0.585938 80.4199 2.34375Q79.541 4.10156 79.541 6.34766Q79.541 10.3027 82.2021 12.9639Q84.8633 15.625 89.2578 15.625Q92.9688 15.625 96.0938 12.5977L136.963-28.2227Q139.941-31.1523 139.941-35.498Z"/>
  </g>
  <g id="Bold-L" transform="matrix(1 0 0 1 2263.15 1556)">
   <path d="M137.598-35.4004Q137.598-38.9648 135.059-41.4062L93.8477-82.6172Q92.5293-83.9355 91.04-84.5947Q89.5508-85.2539 88.0859-85.2539Q84.5215-85.2539 82.2998-83.0566Q80.0781-80.8594 80.0781-77.5391Q80.0781-75.7812 80.7617-74.3408Q81.4453-72.9004 82.6172-71.7773L97.8027-56.4941L118.701-37.207L121.973-42.2852L98.7793-43.5059L24.4141-43.5059Q20.7031-43.5059 18.3838-41.2842Q16.0645-39.0625 16.0645-35.4004Q16.0645-31.8359 18.3838-29.5898Q20.7031-27.3438 24.4141-27.3438L98.7793-27.3438L121.973-28.6133L118.701-33.6426L97.8027-14.3555L82.6172 0.927734Q81.4941 2.00195 80.7861 3.4668Q80.0781 4.93164 80.0781 6.73828Q80.0781 10.0098 82.2998 12.207Q84.5215 14.4043 88.0859 14.4043Q91.1621 14.4043 93.75 11.9141L135.059-29.4434Q137.598-31.8848 137.598-35.4004Z"/>
  </g>
  <g id="Semibold-L" transform="matrix(1 0 0 1 1967.27 1556)">
   <path d="M135.938-35.3516Q135.938-38.3301 133.74-40.4297L92.2852-81.9336Q91.0645-83.1543 89.7949-83.6914Q88.5254-84.2285 87.2559-84.2285Q84.2285-84.2285 82.3486-82.373Q80.4688-80.5176 80.4688-77.6855Q80.4688-76.2207 81.0059-74.9756Q81.543-73.7305 82.5195-72.8027L98.4375-56.7383L120.02-36.8164L122.51-41.0645L100.732-42.1875L23.0957-42.1875Q19.9707-42.1875 18.0176-40.3076Q16.0645-38.4277 16.0645-35.3516Q16.0645-32.3242 18.0176-30.3955Q19.9707-28.4668 23.0957-28.4668L100.732-28.4668L122.51-29.6875L120.02-33.8867L98.4375-13.9648L82.5195 2.05078Q81.5918 2.97852 81.0303 4.22363Q80.4688 5.46875 80.4688 6.98242Q80.4688 9.76562 82.3486 11.6455Q84.2285 13.5254 87.2559 13.5254Q89.8926 13.5254 92.0898 11.377L133.74-30.2734Q135.938-32.373 135.938-35.3516Z"/>
  </g>
  <g id="Medium-L" transform="matrix(1 0 0 1 1671.19 1556)">
   <path d="M134.668-35.3027Q134.668-37.8418 132.764-39.7461L91.0645-81.4453Q89.9902-82.5195 88.8672-83.0078Q87.7441-83.4961 86.6211-83.4961Q84.0332-83.4961 82.373-81.8848Q80.7129-80.2734 80.7129-77.7832Q80.7129-76.5625 81.1768-75.4639Q81.6406-74.3652 82.4707-73.5352L98.877-56.9336L120.996-36.5234L122.9-40.1367L102.295-41.2598L22.0703-41.2598Q19.4336-41.2598 17.749-39.5996Q16.0645-37.9395 16.0645-35.3027Q16.0645-32.7148 17.749-31.0303Q19.4336-29.3457 22.0703-29.3457L102.295-29.3457L122.9-30.5176L120.996-34.082L98.877-13.6719L82.4707 2.88086Q81.6895 3.71094 81.2012 4.80957Q80.7129 5.9082 80.7129 7.17773Q80.7129 9.57031 82.373 11.2061Q84.0332 12.8418 86.6211 12.8418Q88.9648 12.8418 90.8691 11.0352L132.764-30.9082Q134.668-32.7637 134.668-35.3027Z"/>
  </g>
  <g id="Regular-L" transform="matrix(1 0 0 1 1375.28 1556)">
   <path d="M133.057-35.2539Q133.057-37.2559 131.445-38.8184L89.502-80.8105Q88.5742-81.7383 87.6465-82.1289Q86.7188-82.5195 85.791-82.5195Q83.7891-82.5195 82.4463-81.2256Q81.1035-79.9316 81.1035-77.9297Q81.1035-77.002 81.4209-76.0986Q81.7383-75.1953 82.4219-74.5605L99.5117-57.2266L122.314-36.1816L123.438-38.9648L104.248-39.9902L20.752-39.9902Q18.7012-39.9902 17.3828-38.6719Q16.0645-37.3535 16.0645-35.2539Q16.0645-33.2031 17.3828-31.8604Q18.7012-30.5176 20.752-30.5176L104.248-30.5176L123.438-31.5918L122.314-34.3262L99.5117-13.2812L82.4219 4.00391Q81.7871 4.63867 81.4453 5.54199Q81.1035 6.44531 81.1035 7.42188Q81.1035 9.375 82.4463 10.6934Q83.7891 12.0117 85.791 12.0117Q87.6953 12.0117 89.2578 10.5469L131.445-31.7383Q133.057-33.252 133.057-35.2539Z"/>
  </g>
  <g id="Light-L" transform="matrix(1 0 0 1 1078.57 1556)">
   <path d="M133.057-35.2539Q133.057-36.7676 131.885-37.8906L89.5996-80.3711Q88.7695-81.2012 88.0371-81.5186Q87.3047-81.8359 86.6211-81.8359Q85.0586-81.8359 84.0576-80.8594Q83.0566-79.8828 83.0566-78.418Q83.0566-77.6855 83.3008-77.002Q83.5449-76.3184 84.0332-75.8301L105.273-54.4434L125.049-35.791L125.977-38.0859L108.252-38.8184L19.5801-38.8184Q18.0664-38.8184 17.0654-37.8174Q16.0645-36.8164 16.0645-35.2539Q16.0645-33.7402 17.0654-32.7393Q18.0664-31.7383 19.5801-31.7383L108.252-31.7383L125.977-32.4707L125.049-34.7168L105.273-16.0645L84.0332 5.27344Q83.5938 5.76172 83.3252 6.44531Q83.0566 7.12891 83.0566 7.86133Q83.0566 9.32617 84.0576 10.3271Q85.0586 11.3281 86.6211 11.3281Q88.0371 11.3281 89.209 10.2051L131.885-32.666Q133.057-33.7891 133.057-35.2539Z"/>
  </g>
  <g id="Thin-L" transform="matrix(1 0 0 1 781.862 1556)">
   <path d="M133.057-35.2539Q133.057-36.084 132.422-36.7188L89.7949-79.7363Q89.0625-80.4688 88.5986-80.7129Q88.1348-80.957 87.6953-80.957Q86.7676-80.957 86.2305-80.3711Q85.6934-79.7852 85.6934-79.0039Q85.6934-78.5645 85.791-78.1982Q85.8887-77.832 86.1816-77.4902L112.891-50.7812L128.711-35.3027L129.297-36.9141L113.477-37.207L18.0176-37.207Q17.2363-37.207 16.6504-36.6699Q16.0645-36.1328 16.0645-35.2539Q16.0645-34.4238 16.6504-33.8867Q17.2363-33.3496 18.0176-33.3496L113.477-33.3496L129.297-33.5938L128.711-35.2051L112.891-19.7266L86.1816 6.98242Q85.9375 7.22656 85.8154 7.61719Q85.6934 8.00781 85.6934 8.49609Q85.6934 9.27734 86.2305 9.83887Q86.7676 10.4004 87.6953 10.4004Q88.4766 10.4004 89.1113 9.81445L132.422-33.8379Q133.057-34.4238 133.057-35.2539Z"/>
  </g>
  <g id="Ultralight-L" transform="matrix(1 0 0 1 485.151 1556)">
   <path d="M133.057-35.2539Q133.057-35.7422 132.715-36.084L89.8438-79.4434Q89.209-80.127 88.8672-80.2979Q88.5254-80.4688 88.2324-80.4688Q87.6465-80.4688 87.3291-80.1025Q87.0117-79.7363 87.0117-79.3457Q87.0117-79.0527 87.0605-78.833Q87.1094-78.6133 87.3047-78.3691L116.748-48.9258L130.566-35.0586L131.006-36.3281L116.211-36.4258L17.1875-36.4258Q16.7969-36.4258 16.4307-36.084Q16.0645-35.7422 16.0645-35.2539Q16.0645-34.8145 16.4307-34.4727Q16.7969-34.1309 17.1875-34.1309L116.211-34.1309L131.006-34.1797L130.566-35.4492L116.748-21.6309L87.3047 7.86133Q87.1582 7.95898 87.085 8.22754Q87.0117 8.49609 87.0117 8.78906Q87.0117 9.22852 87.3291 9.57031Q87.6465 9.91211 88.2324 9.91211Q88.6719 9.91211 89.0625 9.57031L132.715-34.4727Q133.057-34.8145 133.057-35.2539Z"/>
  </g>
  <g id="Black-M" transform="matrix(1 0 0 1 2871.22 1126)">
   <path d="M111.914-35.5469Q111.914-39.8926 109.082-42.7246L77.8809-73.877Q76.416-75.3906 74.6582-76.1719Q72.9004-76.9531 71.1914-76.9531Q66.748-76.9531 64.1357-74.292Q61.5234-71.6309 61.5234-67.7246Q61.5234-65.4297 62.4512-63.7207Q63.3789-62.0117 64.7949-60.6934L75.7324-49.8535L88.6719-37.793L93.6523-44.2871L71.4355-45.3613L22.8027-45.3613Q18.1152-45.3613 15.2832-42.6758Q12.4512-39.9902 12.4512-35.5469Q12.4512-31.1035 15.2832-28.418Q18.1152-25.7324 22.8027-25.7324L71.4355-25.7324L93.6523-26.8066L88.6719-33.252L75.7324-21.2402L64.7949-10.4492Q63.3789-9.13086 62.4512-7.42188Q61.5234-5.71289 61.5234-3.41797Q61.5234 0.488281 64.1357 3.14941Q66.748 5.81055 71.1914 5.81055Q74.8535 5.81055 77.8809 2.73438L109.082-28.3691Q111.914-31.2012 111.914-35.5469Z"/>
  </g>
  <g id="Heavy-M" transform="matrix(1 0 0 1 2575.53 1126)">
   <path d="M109.863-35.498Q109.863-39.2578 107.324-41.748L75.8301-73.1445Q74.5605-74.5117 73.0225-75.1709Q71.4844-75.8301 69.9707-75.8301Q66.1621-75.8301 63.8672-73.5352Q61.5723-71.2402 61.5723-67.8223Q61.5723-65.8203 62.3535-64.3311Q63.1348-62.8418 64.3555-61.7188L75.293-50.7812L89.7461-37.4023L93.7988-42.9688L73.0957-43.9941L21.3867-43.9941Q17.334-43.9941 14.8926-41.6504Q12.4512-39.3066 12.4512-35.498Q12.4512-31.6406 14.8926-29.2969Q17.334-26.9531 21.3867-26.9531L73.0957-26.9531L93.7988-28.0273L89.7461-33.4961L75.293-20.166L64.3555-9.27734Q63.1348-8.1543 62.3535-6.64062Q61.5723-5.12695 61.5723-3.17383Q61.5723 0.244141 63.8672 2.53906Q66.1621 4.83398 69.9707 4.83398Q73.1934 4.83398 75.8301 2.19727L107.324-29.1992Q109.863-31.7383 109.863-35.498Z"/>
  </g>
  <g id="Bold-M" transform="matrix(1 0 0 1 2279.99 1126)">
   <path d="M107.52-35.4004Q107.52-38.5254 105.371-40.625L73.584-72.3633Q72.4609-73.4863 71.1914-74.0479Q69.9219-74.6094 68.6035-74.6094Q65.4785-74.6094 63.5742-72.6807Q61.6699-70.752 61.6699-67.9199Q61.6699-66.3086 62.2803-65.0635Q62.8906-63.8184 63.8672-62.8418L74.8047-51.8555L90.9668-37.0117L93.9453-41.4551L75-42.4805L19.7754-42.4805Q16.5039-42.4805 14.4775-40.5273Q12.4512-38.5742 12.4512-35.4004Q12.4512-32.2266 14.4775-30.2734Q16.5039-28.3203 19.7754-28.3203L75-28.3203L93.9453-29.3457L90.9668-33.7891L74.8047-18.9453L63.8672-8.00781Q62.8906-7.03125 62.2803-5.78613Q61.6699-4.54102 61.6699-2.92969Q61.6699-0.0976562 63.5742 1.85547Q65.4785 3.80859 68.6035 3.80859Q71.3379 3.80859 73.5352 1.5625L105.371-30.1758Q107.52-32.3242 107.52-35.4004Z"/>
  </g>
  <g id="Semibold-M" transform="matrix(1 0 0 1 1984.09 1126)">
   <path d="M105.908-35.3516Q105.908-37.9883 104.004-39.8438L72.0215-71.7773Q71.0449-72.8027 69.9219-73.291Q68.7988-73.7793 67.6758-73.7793Q65.0391-73.7793 63.3545-72.0947Q61.6699-70.4102 61.6699-67.9688Q61.6699-66.6504 62.1826-65.5518Q62.6953-64.4531 63.5254-63.623L74.4629-52.5879L91.7969-36.6699L94.043-40.4297L76.2695-41.4551L18.6523-41.4551Q15.8691-41.4551 14.1602-39.7461Q12.4512-38.0371 12.4512-35.3516Q12.4512-32.6172 14.1602-30.9326Q15.8691-29.248 18.6523-29.248L76.2695-29.248L94.043-30.2734L91.7969-33.9355L74.4629-18.1152L63.5254-7.08008Q62.6953-6.25 62.1826-5.17578Q61.6699-4.10156 61.6699-2.73438Q61.6699-0.292969 63.3545 1.36719Q65.0391 3.02734 67.6758 3.02734Q70.0195 3.02734 71.9727 1.12305L104.004-30.8105Q105.908-32.7148 105.908-35.3516Z"/>
  </g>
  <g id="Medium-M" transform="matrix(1 0 0 1 1687.99 1126)">
   <path d="M104.688-35.3027Q104.688-37.5977 102.979-39.2578L70.8496-71.3379Q69.9219-72.2656 68.9453-72.6807Q67.9688-73.0957 66.9434-73.0957Q64.6484-73.0957 63.1836-71.6309Q61.7188-70.166 61.7188-68.0176Q61.7188-66.8945 62.1338-65.918Q62.5488-64.9414 63.2812-64.209L74.2188-53.125L92.4316-36.4746L94.1406-39.6484L77.2461-40.625L17.8223-40.625Q15.4297-40.625 13.9404-39.1357Q12.4512-37.6465 12.4512-35.3027Q12.4512-32.959 13.9404-31.4697Q15.4297-29.9805 17.8223-29.9805L77.2461-29.9805L94.1406-30.957L92.4316-34.082L74.2188-17.4805L63.2812-6.39648Q62.5488-5.66406 62.1338-4.71191Q61.7188-3.75977 61.7188-2.63672Q61.7188-0.439453 63.1836 1.02539Q64.6484 2.49023 66.9434 2.49023Q69.043 2.49023 70.752 0.830078L102.979-31.3477Q104.688-33.0078 104.688-35.3027Z"/>
  </g>
  <g id="Regular-M" transform="matrix(1 0 0 1 1392.06 1126)">
   <path d="M103.125-35.2539Q103.125-37.1094 101.66-38.5254L69.2871-70.8008Q68.5059-71.582 67.7002-71.9238Q66.8945-72.2656 66.0156-72.2656Q64.209-72.2656 62.9883-71.0693Q61.7676-69.873 61.7676-68.0664Q61.7676-67.1875 62.0605-66.3818Q62.3535-65.5762 62.9395-64.9902L73.877-53.8574L93.2617-36.1816L94.2383-38.623L78.5156-39.5996L16.748-39.5996Q14.8438-39.5996 13.6475-38.3789Q12.4512-37.1582 12.4512-35.2539Q12.4512-33.3496 13.6475-32.1289Q14.8438-30.9082 16.748-30.9082L78.5156-30.9082L94.2383-31.8848L93.2617-34.2773L73.877-16.6504L62.9395-5.51758Q62.3535-4.93164 62.0605-4.12598Q61.7676-3.32031 61.7676-2.44141Q61.7676-0.634766 62.9883 0.561523Q64.209 1.75781 66.0156 1.75781Q67.7734 1.75781 69.1895 0.390625L101.66-31.9824Q103.125-33.3984 103.125-35.2539Z"/>
  </g>
  <g id="Light-M" transform="matrix(1 0 0 1 1095.35 1126)">
   <path d="M103.125-35.2539Q103.125-36.6699 102.051-37.6953L69.3848-70.4102Q68.7012-71.0938 68.0664-71.3867Q67.4316-71.6797 66.748-71.6797Q65.3809-71.6797 64.4531-70.752Q63.5254-69.8242 63.5254-68.457Q63.5254-67.8223 63.7451-67.2119Q63.9648-66.6016 64.4043-66.1133L79.0039-51.3672L95.752-35.8398L96.4844-37.8418L82.0801-38.5254L15.6738-38.5254Q14.2578-38.5254 13.3545-37.5977Q12.4512-36.6699 12.4512-35.2539Q12.4512-33.8379 13.3545-32.9102Q14.2578-31.9824 15.6738-31.9824L82.0801-31.9824L96.4844-32.666L95.752-34.6191L79.0039-19.1406L64.4043-4.39453Q63.9648-3.95508 63.7451-3.32031Q63.5254-2.68555 63.5254-2.05078Q63.5254-0.683594 64.4531 0.244141Q65.3809 1.17188 66.748 1.17188Q68.0664 1.17188 69.1406 0.0976562L102.051-32.8125Q103.125-33.8867 103.125-35.2539Z"/>
  </g>
  <g id="Thin-M" transform="matrix(1 0 0 1 798.634 1126)">
   <path d="M103.125-35.2539Q103.125-36.0352 102.539-36.6211L69.5312-69.873Q68.9453-70.459 68.5303-70.6543Q68.1152-70.8496 67.7246-70.8496Q66.8945-70.8496 66.3818-70.3125Q65.8691-69.7754 65.8691-68.9941Q65.8691-68.6523 65.9668-68.2861Q66.0645-67.9199 66.3086-67.627L85.8398-48.0957L98.9746-35.4004L99.4629-36.8164L86.8164-37.1094L14.3066-37.1094Q13.5254-37.1094 12.9883-36.5967Q12.4512-36.084 12.4512-35.2539Q12.4512-34.4238 12.9883-33.9111Q13.5254-33.3984 14.3066-33.3984L86.8164-33.3984L99.4629-33.6914L98.9746-35.1074L85.8398-22.4121L66.3086-2.88086Q66.0645-2.63672 65.9668-2.24609Q65.8691-1.85547 65.8691-1.51367Q65.8691-0.732422 66.3818-0.195312Q66.8945 0.341797 67.7246 0.341797Q68.457 0.341797 69.0918-0.244141L102.539-33.8867Q103.125-34.4727 103.125-35.2539Z"/>
  </g>
  <g id="Ultralight-M" transform="matrix(1 0 0 1 501.923 1126)">
   <path d="M103.125-35.2539Q103.125-35.7422 102.783-36.084L69.6289-69.5801Q69.0918-70.1172 68.7988-70.2881Q68.5059-70.459 68.2129-70.459Q67.6758-70.459 67.3584-70.0928Q67.041-69.7266 67.041-69.2871Q67.041-69.043 67.0898-68.8232Q67.1387-68.6035 67.2852-68.4082L89.3066-46.3867L100.684-35.2051L101.025-36.2793L89.209-36.377L13.5742-36.377Q13.1348-36.377 12.793-36.0596Q12.4512-35.7422 12.4512-35.2539Q12.4512-34.7656 12.793-34.4482Q13.1348-34.1309 13.5742-34.1309L89.209-34.1309L101.025-34.2285L100.684-35.3027L89.3066-24.1211L67.2852-2.09961Q67.1875-2.00195 67.1143-1.7334Q67.041-1.46484 67.041-1.2207Q67.041-0.78125 67.3584-0.415039Q67.6758-0.0488281 68.2129-0.0488281Q68.7012-0.0488281 69.043-0.439453L102.783-34.4238Q103.125-34.8145 103.125-35.2539Z"/>
  </g>
  <g id="Black-S" transform="matrix(1 0 0 1 2884.35 696)">
   <path d="M88.3301-35.498Q88.3301-39.0625 86.0352-41.3574L61.6699-65.7227Q59.1797-68.2129 56.2012-68.2129Q52.5879-68.2129 50.4395-66.04Q48.291-63.8672 48.291-60.6934Q48.291-58.7891 49.0723-57.4219Q49.8535-56.0547 50.9766-54.9316L59.7656-46.2402L69.2871-37.3535L73.4863-42.6758L55.6641-43.5059L18.2617-43.5059Q14.4043-43.5059 12.085-41.3086Q9.76562-39.1113 9.76562-35.498Q9.76562-31.8848 12.085-29.6875Q14.4043-27.4902 18.2617-27.4902L55.6641-27.4902L73.4863-28.3203L69.2871-33.6426L59.7656-24.7559L50.9766-16.1133Q49.8535-15.0391 49.0723-13.6475Q48.291-12.2559 48.291-10.3516Q48.291-7.17773 50.4395-5.00488Q52.5879-2.83203 56.2012-2.83203Q59.1797-2.83203 61.6699-5.32227L86.0352-29.6387Q88.3301-31.9336 88.3301-35.498Z"/>
  </g>
  <g id="Heavy-S" transform="matrix(1 0 0 1 2588.52 696)">
   <path d="M86.5723-35.4492Q86.5723-38.5742 84.4727-40.625L59.9121-65.1367Q57.7148-67.334 55.0781-67.334Q51.9043-67.334 50-65.4297Q48.0957-63.5254 48.0957-60.6934Q48.0957-59.082 48.7793-57.8613Q49.4629-56.6406 50.4395-55.6641L58.7402-47.3633L69.9219-37.0605L73.291-41.6504L56.6406-42.4805L17.1875-42.4805Q13.8184-42.4805 11.792-40.5518Q9.76562-38.623 9.76562-35.4492Q9.76562-32.2754 11.792-30.3223Q13.8184-28.3691 17.1875-28.3691L56.6406-28.3691L73.291-29.248L69.9219-33.7891L58.7402-23.5352L50.4395-15.2832Q49.4629-14.3066 48.7793-13.0859Q48.0957-11.8652 48.0957-10.2051Q48.0957-7.37305 50-5.46875Q51.9043-3.56445 55.0781-3.56445Q57.7148-3.56445 59.9121-5.76172L84.4727-30.2734Q86.5723-32.3242 86.5723-35.4492Z"/>
  </g>
  <g id="Bold-S" transform="matrix(1 0 0 1 2292.81 696)">
   <path d="M84.5703-35.4004Q84.5703-37.9883 82.7637-39.7949L57.959-64.5508Q56.1035-66.4062 53.8086-66.4062Q51.1719-66.4062 49.5605-64.7705Q47.9492-63.1348 47.9492-60.7422Q47.9492-59.375 48.4619-58.3252Q48.9746-57.2754 49.8047-56.4941L57.5684-48.6328L70.6055-36.7676L73.1445-40.4785L57.7148-41.3574L15.9668-41.3574Q13.1836-41.3574 11.4746-39.6973Q9.76562-38.0371 9.76562-35.4004Q9.76562-32.7148 11.4746-31.0547Q13.1836-29.3945 15.9668-29.3945L57.7148-29.3945L73.1445-30.2734L70.6055-33.9844L57.5684-22.1191L49.8047-14.3066Q48.9746-13.5254 48.4619-12.4756Q47.9492-11.4258 47.9492-10.0586Q47.9492-7.66602 49.5605-6.03027Q51.1719-4.39453 53.8086-4.39453Q56.1035-4.39453 57.959-6.25L82.7637-31.0059Q84.5703-32.7637 84.5703-35.4004Z"/>
  </g>
  <g id="Semibold-S" transform="matrix(1 0 0 1 1996.78 696)">
   <path d="M83.2031-35.3516Q83.2031-37.5977 81.543-39.209L56.5918-64.1113Q54.9316-65.7227 52.8809-65.7227Q50.6348-65.7227 49.2188-64.3066Q47.8027-62.8906 47.8027-60.7422Q47.8027-59.5703 48.2178-58.6426Q48.6328-57.7148 49.3652-57.0312L56.7871-49.5117L71.0449-36.5234L72.998-39.6973L58.4473-40.5762L15.1367-40.5762Q12.6953-40.5762 11.2305-39.1113Q9.76562-37.6465 9.76562-35.3516Q9.76562-33.0078 11.2305-31.543Q12.6953-30.0781 15.1367-30.0781L58.4473-30.0781L72.998-31.0059L71.0449-34.1309L56.7871-21.1426L49.3652-13.6719Q48.6328-12.9883 48.2178-12.0361Q47.8027-11.084 47.8027-9.96094Q47.8027-7.8125 49.2188-6.39648Q50.6348-4.98047 52.8809-4.98047Q54.9316-4.98047 56.5918-6.5918L81.543-31.4941Q83.2031-33.0566 83.2031-35.3516Z"/>
  </g>
  <g id="Medium-S" transform="matrix(1 0 0 1 1700.58 696)">
   <path d="M82.1777-35.3027Q82.1777-37.3047 80.6152-38.7695L55.5664-63.7695Q54.1016-65.1855 52.2461-65.1855Q50.2441-65.1855 48.9746-63.916Q47.7051-62.6465 47.7051-60.7422Q47.7051-59.7656 48.0469-58.9111Q48.3887-58.0566 49.0723-57.4707L56.1523-50.1465L71.3867-36.3281L72.9004-39.0625L59.0332-39.9902L14.502-39.9902Q12.3535-39.9902 11.0596-38.6719Q9.76562-37.3535 9.76562-35.3027Q9.76562-33.252 11.0596-31.9336Q12.3535-30.6152 14.502-30.6152L59.0332-30.6152L72.9004-31.543L71.3867-34.1797L56.1523-20.4102L49.0723-13.1348Q48.3887-12.5488 48.0469-11.6943Q47.7051-10.8398 47.7051-9.86328Q47.7051-7.95898 48.9746-6.66504Q50.2441-5.37109 52.2461-5.37109Q54.1016-5.37109 55.5664-6.83594L80.6152-31.8359Q82.1777-33.3008 82.1777-35.3027Z"/>
  </g>
  <g id="Regular-S" transform="matrix(1 0 0 1 1404.56 696)">
   <path d="M80.8105-35.2539Q80.8105-36.9141 79.4434-38.1836L54.248-63.3301Q52.9785-64.5508 51.3672-64.5508Q49.7559-64.5508 48.6572-63.4766Q47.5586-62.4023 47.5586-60.7422Q47.5586-59.9609 47.8271-59.2285Q48.0957-58.4961 48.6328-58.0078L55.3711-51.0254L71.875-36.1328L72.7539-38.2812L59.7656-39.209L13.6719-39.209Q11.9141-39.209 10.8398-38.0859Q9.76562-36.9629 9.76562-35.2539Q9.76562-33.5449 10.8398-32.4219Q11.9141-31.2988 13.6719-31.2988L59.7656-31.2988L72.7539-32.2266L71.875-34.3262L55.3711-19.4824L48.6328-12.5Q48.0957-12.0117 47.8271-11.2793Q47.5586-10.5469 47.5586-9.76562Q47.5586-8.10547 48.6572-7.03125Q49.7559-5.95703 51.3672-5.95703Q52.9785-5.95703 54.248-7.17773L79.4434-32.3242Q80.8105-33.5938 80.8105-35.2539Z"/>
  </g>
  <g id="Light-S" transform="matrix(1 0 0 1 1107.85 696)">
   <path d="M80.8105-35.2539Q80.8105-36.5234 79.7852-37.4512L54.3457-62.9395Q53.2715-64.0137 52.002-64.0137Q50.7812-64.0137 49.9512-63.1836Q49.1211-62.3535 49.1211-61.1328Q49.1211-60.498 49.3164-59.9365Q49.5117-59.375 49.9023-58.9844L59.9609-48.8281L74.0723-35.8398L74.7559-37.5977L62.9395-38.2324L12.7441-38.2324Q11.4258-38.2324 10.5957-37.4023Q9.76562-36.5723 9.76562-35.2539Q9.76562-33.9355 10.5957-33.1055Q11.4258-32.2754 12.7441-32.2754L62.9395-32.2754L74.7559-32.9102L74.0723-34.6191L59.9609-21.6797L49.9023-11.5234Q49.5117-11.1328 49.3164-10.5713Q49.1211-10.0098 49.1211-9.375Q49.1211-8.1543 49.9512-7.32422Q50.7812-6.49414 52.002-6.49414Q53.2227-6.49414 54.1992-7.42188L79.7852-33.0566Q80.8105-33.9844 80.8105-35.2539Z"/>
  </g>
  <g id="Thin-S" transform="matrix(1 0 0 1 811.134 696)">
   <path d="M80.8105-35.2539Q80.8105-35.9863 80.2246-36.5234L54.4434-62.4512Q53.6621-63.2812 52.8809-63.2812Q52.0996-63.2812 51.6113-62.793Q51.123-62.3047 51.123-61.6211Q51.123-61.2305 51.2451-60.8887Q51.3672-60.5469 51.6113-60.3516L65.9668-45.9473L76.9531-35.4492L77.3926-36.6699L67.1387-37.0117L11.4746-37.0117Q10.7422-37.0117 10.2539-36.5234Q9.76562-36.0352 9.76562-35.2539Q9.76562-34.4727 10.2539-33.9844Q10.7422-33.4961 11.4746-33.4961L67.1387-33.4961L77.3926-33.8379L76.9531-35.0098L65.9668-24.5605L51.6113-10.1562Q51.416-9.96094 51.2695-9.61914Q51.123-9.27734 51.123-8.88672Q51.123-8.20312 51.6113-7.71484Q52.0996-7.22656 52.8809-7.22656Q53.5645-7.22656 54.1504-7.76367L80.2246-33.9844Q80.8105-34.5215 80.8105-35.2539Z"/>
  </g>
  <g id="Ultralight-S" transform="matrix(1 0 0 1 514.423 696)">
   <path d="M80.8105-35.2539Q80.8105-35.6934 80.4199-36.0352L54.541-62.207Q53.9062-62.9395 53.3203-62.9395Q52.7832-62.9395 52.4902-62.5977Q52.1973-62.2559 52.1973-61.8652Q52.1973-61.5723 52.2461-61.377Q52.2949-61.1816 52.4902-60.9863L69.0918-44.4336L78.418-35.2539L78.7598-36.1816L69.2871-36.3281L10.8398-36.3281Q10.4004-36.3281 10.083-36.0352Q9.76562-35.7422 9.76562-35.2539Q9.76562-34.7656 10.083-34.4727Q10.4004-34.1797 10.8398-34.1797L69.2871-34.1797L78.7598-34.3262L78.418-35.2539L69.0918-26.0742L52.4902-9.52148Q52.3438-9.32617 52.2705-9.13086Q52.1973-8.93555 52.1973-8.64258Q52.1973-8.25195 52.4902-7.91016Q52.7832-7.56836 53.3203-7.56836Q53.7598-7.56836 54.1016-7.91016L80.4199-34.4727Q80.8105-34.8145 80.8105-35.2539Z"/>
  </g>
 </g>
</svg>
